<?xml version="1.0" encoding="UTF-8"?>
<svg version="1.1" xmlns="http://www.w3.org/2000/svg" width="200" height="200">
<path d="M0 0 C66 0 132 0 200 0 C200 66 200 132 200 200 C134 200 68 200 0 200 C0 134 0 68 0 0 Z " fill="#D32128" transform="translate(0,0)"/>
<path d="M0 0 C0.73605469 0.32935547 1.47210938 0.65871094 2.23046875 0.99804688 C4.03144557 1.80497805 5.82862181 2.6203826 7.625 3.4375 C7.625 4.4275 7.625 5.4175 7.625 6.4375 C6.0078125 7.9453125 6.0078125 7.9453125 3.75 9.5625 C-19.25259419 26.78736252 -34.48315985 51.71286844 -38.97265625 80.234375 C-39.52465576 85.08939505 -39.52122155 89.93154447 -39.5 94.8125 C-39.50386719 95.69421875 -39.50773437 96.5759375 -39.51171875 97.484375 C-39.50286401 103.52330787 -39.08357151 109.44127415 -38.375 115.4375 C-45.544242 114.99140529 -51.98087772 113.61703939 -58.8125 111.4375 C-59.69615234 111.16421875 -60.57980469 110.8909375 -61.49023438 110.609375 C-64.79645193 109.58356757 -68.09091427 108.53219524 -71.375 107.4375 C-72.2890625 105.1796875 -72.2890625 105.1796875 -73 102.3125 C-73.23976563 101.38179688 -73.47953125 100.45109375 -73.7265625 99.4921875 C-78.65067161 76.29548072 -74.8514119 52.33384712 -62.1875 32.25 C-49.12984792 12.45416687 -24.48538314 -11.1800348 0 0 Z " fill="#FEFAFA" transform="translate(88.375,19.5625)"/>
<path d="M0 0 C22.53437888 0.42444892 41.47580593 10.09053396 57 26 C58.21623047 27.20269531 58.21623047 27.20269531 59.45703125 28.4296875 C74.45222143 44.01242346 82.41587189 65.80733204 82.30078125 87.24536133 C81.67220951 112.75583333 71.95552022 134.7665293 53.62646484 152.53222656 C47.86997573 157.72706483 41.32112956 162.37086508 34 165 C35.13691613 162.03589723 36.38234946 159.14787558 37.734375 156.27734375 C52.16112818 125.42181593 58.90869823 91.12394132 48 58 C39.49975763 34.78051833 23.13117583 16.14035967 2.58203125 2.75 C1.72996094 2.1725 0.87789063 1.595 0 1 C0 0.67 0 0.34 0 0 Z " fill="#FDF8F8" transform="translate(107,12)"/>
<path d="M0 0 C-2.24035362 12.54598025 -7.36881256 24.08515313 -13 35.4375 C-13.40283203 36.25323486 -13.80566406 37.06896973 -14.22070312 37.90942383 C-15.43391224 40.30151973 -16.70198237 42.65294635 -18 45 C-18.43957031 45.83418457 -18.87914063 46.66836914 -19.33203125 47.52783203 C-22.71934099 53.3681419 -22.71934099 53.3681419 -26.01147461 54.99243164 C-28.36983256 55.57751346 -30.57531476 55.84631256 -33 56 C-34.24934326 56.09619629 -34.24934326 56.09619629 -35.52392578 56.19433594 C-59.67262273 57.50701112 -81.56076608 51.05663628 -100 35 C-106.23483147 29.33422061 -112.66864387 23.29202995 -117 16 C-117 15.34 -117 14.68 -117 14 C-115.29457031 14.39832031 -115.29457031 14.39832031 -113.5546875 14.8046875 C-111.99485989 15.16175647 -110.43496002 15.51850995 -108.875 15.875 C-107.76318359 16.13603516 -107.76318359 16.13603516 -106.62890625 16.40234375 C-94.41075987 19.17452822 -82.45878294 20.32717278 -69.9375 20.25 C-68.0493457 20.26160156 -68.0493457 20.26160156 -66.12304688 20.2734375 C-47.98170627 20.23597474 -32.12782311 16.09324814 -15.8125 8.4375 C-15.01054199 8.06165771 -14.20858398 7.68581543 -13.38232422 7.29858398 C-9.37291063 5.35515458 -4.06713217 0 0 0 Z " fill="#FDF9F9" transform="translate(143,131)"/>
<path d="M0 0 C3.08897763 1.39520737 5.40132257 3.53538352 7.8515625 5.82421875 C8.38233398 6.31962158 8.91310547 6.81502441 9.45996094 7.32543945 C25.11318566 22.31181213 34.39590825 43.3914813 35.1015625 64.94921875 C32.82715466 62.8325733 31.30534949 60.73905029 29.7265625 58.07421875 C17.5536274 39.68022591 -2.67539168 27.69751217 -22.8984375 19.94921875 C-19.956316 12.97172841 -8.29502506 -0.22188339 0 0 Z " fill="#FDF6F6" transform="translate(110.8984375,34.05078125)"/>
<path d="M0 0 C3.19704607 2.89646909 4.99931526 5.56636268 6.75 9.5 C7.17796875 10.4384375 7.6059375 11.376875 8.046875 12.34375 C9 15 9 15 9 19 C-7.95827811 32.56123035 -30.6563029 38.61078942 -52 38 C-48.4945479 35.09369405 -44.57984975 33.25833373 -40.5 31.3125 C-25.13183645 23.76667431 -10.67481606 13.54731201 0 0 Z " fill="#FDF6F5" transform="translate(127,99)"/>
<path d="M0 0 C4.78869611 0.44760809 8.56219184 1.99411242 12.875 4.0625 C14.02742188 4.61035156 15.17984375 5.15820312 16.3671875 5.72265625 C17.67042969 6.35494141 17.67042969 6.35494141 19 7 C16.70409571 9.97914934 14.49200061 12.58215542 11.5625 14.9375 C7.54140728 18.37014013 3.9603101 22.12472035 0.375 26 C-0.43215454 26.87192993 -0.43215454 26.87192993 -1.25561523 27.76147461 C-4.53736103 31.33640376 -7.71099819 34.98349304 -10.81396484 38.71484375 C-11.40105225 39.35099609 -11.40105225 39.35099609 -12 40 C-12.33 40 -12.66 40 -13 40 C-14.230326 26.22034878 -7.57494837 12.75360394 -1 1 C-0.67 0.67 -0.34 0.34 0 0 Z " fill="#FDF6F5" transform="translate(77,66)"/>
<path d="M0 0 C3.86463725 0.41406828 6.12722 2.52621722 9 5 C1.81174503 20.95792603 -17.30804793 30.7208167 -32.07421875 38.28515625 C-32.70972656 38.52105469 -33.34523438 38.75695312 -34 39 C-34.66 38.67 -35.32 38.34 -36 38 C-12.12776642 10.0433145 -12.12776642 10.0433145 -1 1 C-0.67 0.67 -0.34 0.34 0 0 Z " fill="#FDF1F1" transform="translate(108,82)"/>
<path d="M0 0 C0.66 0.33 1.32 0.66 2 1 C1.67 2.32 1.34 3.64 1 5 C1.804375 5.28875 2.60875 5.5775 3.4375 5.875 C6 7 6 7 7 9 C8.32 8.67 9.64 8.34 11 8 C11.33 8.99 11.66 9.98 12 11 C11.43152344 11.42410156 10.86304687 11.84820312 10.27734375 12.28515625 C5.12443923 16.19929909 0.44499803 20.2977352 -4 25 C-4.58984375 23.09765625 -4.58984375 23.09765625 -5 21 C-3.5625 19.4375 -3.5625 19.4375 -2 18 C-2 17.01 -2 16.02 -2 15 C-3.32 15 -4.64 15 -6 15 C-6.33 13.35 -6.66 11.7 -7 10 C-8.98 11.32 -10.96 12.64 -13 14 C-13.66 13.67 -14.32 13.34 -15 13 C-13.2519799 11.3936298 -11.50168356 9.78986703 -9.75 8.1875 C-9.25886719 7.73568359 -8.76773438 7.28386719 -8.26171875 6.81835938 C-5.60492352 4.39181973 -2.92534924 2.09650029 0 0 Z " fill="#CF252C" transform="translate(94,26)"/>
<path d="M0 0 C0 4.0333534 -1.60879918 5.83517538 -4 9 C-4.66 9 -5.32 9 -6 9 C-6.0825 9.61875 -6.165 10.2375 -6.25 10.875 C-7 13 -7 13 -8.9375 13.9375 C-11.78922631 15.40657113 -12.00657538 17.01972614 -13 20 C-13.65213539 21.34050052 -14.31379969 22.67661368 -15 24 C-16.65 24 -18.3 24 -20 24 C-20 24.66 -20 25.32 -20 26 C-21.65 26.66 -23.3 27.32 -25 28 C-20.69794842 21.95334709 -15.94091319 16.54279229 -10.8125 11.1875 C-10.10158203 10.43791016 -9.39066406 9.68832031 -8.65820312 8.91601562 C-5.80367757 5.91111055 -2.94148417 2.92009974 0 0 Z " fill="#C92A30" transform="translate(90,78)"/>
<path d="M0 0 C0.66 0.66 1.32 1.32 2 2 C1.43285278 2.60473145 1.43285278 2.60473145 0.85424805 3.22167969 C-0.87004707 5.0625491 -2.59129374 6.90624239 -4.3125 8.75 C-4.90740234 9.38421875 -5.50230469 10.0184375 -6.11523438 10.671875 C-8.47368129 13.20160577 -10.75003883 15.6580052 -12.79296875 18.453125 C-13.19128906 18.96359375 -13.58960937 19.4740625 -14 20 C-14.66 20 -15.32 20 -16 20 C-15.67 17.69 -15.34 15.38 -15 13 C-14.34 13 -13.68 13 -13 13 C-12.34 11.35 -11.68 9.7 -11 8 C-10.01 8.33 -9.02 8.66 -8 9 C-8.226875 8.4225 -8.45375 7.845 -8.6875 7.25 C-9 5 -9 5 -7.6875 2.75 C-7.130625 2.1725 -6.57375 1.595 -6 1 C-5.34 1 -4.68 1 -4 1 C-4 1.66 -4 2.32 -4 3 C-3.01 3 -2.02 3 -1 3 C-0.67 2.01 -0.34 1.02 0 0 Z " fill="#CC272D" transform="translate(93,93)"/>
<path d="M0 0 C0 4.23853084 -1.33032107 7.04331581 -3.75 10.5 C-5.34749483 12.98886107 -5.34749483 12.98886107 -4.1875 15.8125 C-3.795625 16.534375 -3.40375 17.25625 -3 18 C-4.98 18.33 -6.96 18.66 -9 19 C-8.67 18.01 -8.34 17.02 -8 16 C-8.66 16 -9.32 16 -10 16 C-10 16.99 -10 17.98 -10 19 C-10.66 19 -11.32 19 -12 19 C-12 20.32 -12 21.64 -12 23 C-12.66 23 -13.32 23 -14 23 C-14 23.66 -14 24.32 -14 25 C-14.66 24.67 -15.32 24.34 -16 24 C-6.31446541 6.31446541 -6.31446541 6.31446541 0 0 Z " fill="#C92931" transform="translate(74,45)"/>
<path d="M0 0 C0.33 0 0.66 0 1 0 C2.23929362 5.49924955 2.1909575 10.82252514 2.1875 16.4375 C2.18814453 17.50613281 2.18878906 18.57476562 2.18945312 19.67578125 C2.13659151 27.61463521 1.53873737 35.19640332 0 43 C-2 41 -2 41 -2.125 37.875 C-2.08375 36.92625 -2.0425 35.9775 -2 35 C-1.34 35 -0.68 35 0 35 C0 23.45 0 11.9 0 0 Z " fill="#C0353C" transform="translate(159,87)"/>
<path d="M0 0 C0.33 0.66 0.66 1.32 1 2 C0.67 2.66 0.34 3.32 0 4 C0.66 4 1.32 4 2 4 C1.7109375 5.8984375 1.7109375 5.8984375 1 8 C-0.8364258 8.88420501 -2.67749879 9.75986859 -4.5390625 10.58984375 C-8.74666716 13.00086801 -12.03377147 16.48866559 -15.484375 19.85546875 C-17.8253623 21.85112407 -19.0058446 22.6432198 -22 23 C-18.84291532 19.73767917 -15.55023858 16.73141956 -12.125 13.75 C-7.44345219 9.58005846 -3.63643424 5.09341617 0 0 Z " fill="#C42C35" transform="translate(173,149)"/>
<path d="M0 0 C0.33 0.66 0.66 1.32 1 2 C1.66 2.33 2.32 2.66 3 3 C-6.51145038 10 -6.51145038 10 -10 10 C-10.33 10.99 -10.66 11.98 -11 13 C-14.07322948 15.95940617 -16.82152545 16.52517335 -21 17 C-21 16.34 -21 15.68 -21 15 C-17.76496267 12.85217851 -14.4688453 10.87056009 -11.12695312 8.89648438 C-6.83023366 6.30275692 -3.38279553 3.71640455 0 0 Z " fill="#C72E35" transform="translate(105,100)"/>
<path d="M0 0 C3.875 1.75 3.875 1.75 5 4 C3.25197854 4.81674796 1.50149811 5.62823451 -0.25 6.4375 C-1.71179688 7.11619141 -1.71179688 7.11619141 -3.203125 7.80859375 C-5.49251695 8.78382356 -7.57378746 9.4974274 -10 10 C-10 9.01 -10 8.02 -10 7 C-9.360625 6.87625 -8.72125 6.7525 -8.0625 6.625 C-7.381875 6.41875 -6.70125 6.2125 -6 6 C-5.67 5.34 -5.34 4.68 -5 4 C-5.99 3.67 -6.98 3.34 -8 3 C-8 2.67 -8 2.34 -8 2 C-7.05125 2.04125 -6.1025 2.0825 -5.125 2.125 C-1.89755144 2.34973818 -1.89755144 2.34973818 0 0 Z " fill="#C9262B" transform="translate(123,136)"/>
<path d="M0 0 C5.06998019 0.65419099 9.41990777 2.8546409 14 5 C13.01 5.66 12.02 6.32 11 7 C9.7934375 6.7525 9.7934375 6.7525 8.5625 6.5 C5.50002543 5.90244399 4.66499303 6.57867038 2 8 C1.01 7.67 0.02 7.34 -1 7 C-1.33 6.01 -1.66 5.02 -2 4 C-1.34 4 -0.68 4 0 4 C0 2.68 0 1.36 0 0 Z " fill="#CC2930" transform="translate(90,55)"/>
<path d="M0 0 C0.33 0 0.66 0 1 0 C0.85888117 2.75031587 0.71228835 5.50015418 0.5625 8.25 C0.50352539 9.41595703 0.50352539 9.41595703 0.44335938 10.60546875 C0.40146484 11.35957031 0.35957031 12.11367187 0.31640625 12.890625 C0.27974854 13.58188477 0.24309082 14.27314453 0.20532227 14.98535156 C-0.00705649 17.06923921 -0.48930748 18.97119416 -1 21 C-1.22390317 23.75317974 -1.41393662 26.49305329 -1.5625 29.25 C-1.60568359 29.99507812 -1.64886719 30.74015625 -1.69335938 31.5078125 C-1.79896725 33.338349 -1.89994201 35.16915176 -2 37 C-2.33 37 -2.66 37 -3 37 C-3.36211623 24.26836492 -2.95041657 12.41633642 0 0 Z " fill="#C73F45" transform="translate(51,88)"/>
<path d="M0 0 C0.515625 0.5775 1.03125 1.155 1.5625 1.75 C4.93944068 4.86717602 8.77201072 6.30157695 13 8 C12.67 8.66 12.34 9.32 12 10 C11.35933594 9.69964844 10.71867187 9.39929687 10.05859375 9.08984375 C4.5788806 6.68072992 0.99684034 5.44082151 -5 7 C-6.2065625 7.2784375 -6.2065625 7.2784375 -7.4375 7.5625 C-8.2109375 7.7790625 -8.2109375 7.7790625 -9 8 C-9 7.34 -9 6.68 -9 6 C-7.35 5.67 -5.7 5.34 -4 5 C-4 3.68 -4 2.36 -4 1 C-2 0 -2 0 0 0 Z " fill="#C42F35" transform="translate(76,10)"/>
<path d="M0 0 C2 1 4 2 6 3 C6 4.65 6 6.3 6 8 C6.66 8 7.32 8 8 8 C7.979375 9.175625 7.95875 10.35125 7.9375 11.5625 C7.93052739 15.47413467 8.35749657 19.14497944 9 23 C8.34 23 7.68 23 7 23 C6.74476563 21.89205078 6.74476563 21.89205078 6.484375 20.76171875 C4.78171305 13.63408603 2.64908945 6.83115453 0 0 Z " fill="#C13035" transform="translate(180,61)"/>
<path d="M0 0 C0 4.0333534 -1.60879918 5.83517538 -4 9 C-4.66 9 -5.32 9 -6 9 C-6.12375 9.61875 -6.2475 10.2375 -6.375 10.875 C-7 13 -7 13 -9 15 C-11.125 14.625 -11.125 14.625 -13 14 C-8.83295817 9.14256071 -4.58155004 4.46980492 0 0 Z " fill="#CA3841" transform="translate(90,78)"/>
<path d="M0 0 C0 0.66 0 1.32 0 2 C-0.99 2.495 -0.99 2.495 -2 3 C0.97 3.33 3.94 3.66 7 4 C7 4.33 7 4.66 7 5 C2.64667264 5.84023188 -1.44442519 6.10770995 -5.875 6.0625 C-7.02742188 6.05347656 -8.17984375 6.04445312 -9.3671875 6.03515625 C-10.23601562 6.02355469 -11.10484375 6.01195312 -12 6 C-4.23529412 0 -4.23529412 0 0 0 Z " fill="#FBD3D5" transform="translate(87,131)"/>
<path d="M0 0 C0.66 0 1.32 0 2 0 C2.33 0.66 2.66 1.32 3 2 C5.02463255 2.65213292 5.02463255 2.65213292 7 3 C5.56542672 3.9834496 4.12722594 4.96160921 2.6875 5.9375 C1.88699219 6.48277344 1.08648437 7.02804688 0.26171875 7.58984375 C-2 9 -2 9 -5 10 C-5 8.68 -5 7.36 -5 6 C-4.360625 5.7525 -3.72125 5.505 -3.0625 5.25 C-0.81258459 4.18437567 -0.81258459 4.18437567 -0.25 1.875 C-0.1675 1.25625 -0.085 0.6375 0 0 Z " fill="#C92830" transform="translate(134,129)"/>
<path d="M0 0 C0.66 0.33 1.32 0.66 2 1 C1.48378772 7.83981276 -0.48590969 13.63876684 -3 20 C-4.76462683 16.91190305 -5 15.76687864 -5 12 C-4.34 12.33 -3.68 12.66 -3 13 C-1.39944637 8.79854672 -0.89586293 5.47789401 -1 1 C-0.67 0.67 -0.34 0.34 0 0 Z " fill="#C32A2D" transform="translate(155,133)"/>
<path d="M0 0 C0.99 0.66 1.98 1.32 3 2 C3 2.66 3 3.32 3 4 C2.43023437 4.07605469 1.86046875 4.15210937 1.2734375 4.23046875 C-1.77910578 5.26371794 -3.18593011 6.9659707 -5.375 9.3125 C-8.72682127 12.79174588 -11.84835679 15.55159503 -16 18 C-14.47401851 14.21933799 -12.19469402 12.19041313 -9.125 9.5625 C-5.66844657 6.59605489 -2.7551344 3.63293304 0 0 Z " fill="#FDE0DF" transform="translate(127,99)"/>
<path d="M0 0 C0.66 0 1.32 0 2 0 C2.33 0.99 2.66 1.98 3 3 C2.01 3.66 1.02 4.32 0 5 C-1.21284876 8.05429073 -1.21284876 8.05429073 -2 11 C-2.99 10.67 -3.98 10.34 -5 10 C-5 9.34 -5 8.68 -5 8 C-5.99 7.34 -6.98 6.68 -8 6 C-2.25 2 -2.25 2 0 2 C0 1.34 0 0.68 0 0 Z " fill="#CD2B32" transform="translate(136,116)"/>
<path d="M0 0 C0.33 0.66 0.66 1.32 1 2 C1.99 2.33 2.98 2.66 4 3 C-0.95 5.97 -0.95 5.97 -6 9 C-6 7.35 -6 5.7 -6 4 C-3 1.6875 -3 1.6875 0 0 Z " fill="#C92831" transform="translate(55,19)"/>
<path d="M0 0 C0.66 0.33 1.32 0.66 2 1 C1.15695313 1.77085938 0.31390625 2.54171875 -0.5546875 3.3359375 C-1.66148032 4.34893432 -2.76824994 5.36195647 -3.875 6.375 C-4.70837891 7.13683594 -4.70837891 7.13683594 -5.55859375 7.9140625 C-7.74011781 9.9116026 -9.90816093 11.90816093 -12 14 C-12.99 13.67 -13.98 13.34 -15 13 C-13.06478939 11.20580474 -11.1269646 9.41458671 -9.1875 7.625 C-8.64029297 7.11710937 -8.09308594 6.60921875 -7.52929688 6.0859375 C-5.09977985 3.84783697 -2.75431332 1.83620888 0 0 Z " fill="#FCD9D7" transform="translate(51,26)"/>
<path d="M0 0 C12.66970387 -0.3690205 12.66970387 -0.3690205 18 2 C18 2.33 18 2.66 18 3 C15.37405216 2.8863485 12.74988453 2.75960946 10.125 2.625 C9.37863281 2.5940625 8.63226563 2.563125 7.86328125 2.53125 C2.2265625 2.2265625 2.2265625 2.2265625 0 0 Z " fill="#C6373C" transform="translate(48,149)"/>
<path d="M0 0 C2.97 0.495 2.97 0.495 6 1 C6 1.33 6 1.66 6 2 C4.02 2 2.04 2 0 2 C0.33 2.99 0.66 3.98 1 5 C0.54625 5.4125 0.0925 5.825 -0.375 6.25 C-2.05950374 8.06408095 -2.99265971 9.75285627 -4 12 C-4.66 12 -5.32 12 -6 12 C-4.68139111 7.38486888 -2.78644563 3.90102388 0 0 Z " fill="#FCDAD9" transform="translate(77,66)"/>
<path d="M0 0 C3.29153357 2.63134059 4.03105648 5.59691781 5.1875 9.5625 C5.53167969 10.71878906 5.87585938 11.87507813 6.23046875 13.06640625 C7 16 7 16 7 18 C6.01 17.67 5.02 17.34 4 17 C3.855625 15.865625 3.71125 14.73125 3.5625 13.5625 C3.38828522 10.19222799 3.38828522 10.19222799 2 9 C1.95936168 7.33382885 1.957279 5.66611905 2 4 C1.34 4 0.68 4 0 4 C0 2.68 0 1.36 0 0 Z " fill="#C92B31" transform="translate(9,104)"/>
<path d="M0 0 C6.875 5.75 6.875 5.75 8 8 C5.69 8.33 3.38 8.66 1 9 C0.67 6.03 0.34 3.06 0 0 Z " fill="#C82F34" transform="translate(35,158)"/>
<path d="M0 0 C0.99 0.33 1.98 0.66 3 1 C5.14255793 0.61067144 5.14255793 0.61067144 7 0 C7.33 0.66 7.66 1.32 8 2 C7.06833174 4.03273074 6.0650015 6.03384339 5 8 C4.67 8.66 4.34 9.32 4 10 C3.34 9.67 2.68 9.34 2 9 C2.66 7.68 3.32 6.36 4 5 C2.68 4.67 1.36 4.34 0 4 C0 2.68 0 1.36 0 0 Z " fill="#CB2631" transform="translate(71,118)"/>
<path d="M0 0 C0.33 0 0.66 0 1 0 C2.29167406 5.75382082 1.61764637 8.76470727 -1 14 C-1.67276716 15.6642135 -2.34206835 17.32986582 -3 19 C-3.66 18.67 -4.32 18.34 -5 18 C-4.58427734 16.80503906 -4.58427734 16.80503906 -4.16015625 15.5859375 C-3.79792969 14.52632812 -3.43570313 13.46671875 -3.0625 12.375 C-2.70285156 11.33085938 -2.34320313 10.28671875 -1.97265625 9.2109375 C-1.04249877 6.14029714 -0.45253692 3.172522 0 0 Z " fill="#BF3337" transform="translate(187,114)"/>
<path d="M0 0 C2.15059309 3.53186832 2.3797728 6.66287993 2.625 10.75 C2.69976562 11.92046875 2.77453125 13.0909375 2.8515625 14.296875 C2.90054688 15.18890625 2.94953125 16.0809375 3 17 C0.7522025 14.94766315 -0.0022242 13.99332739 -1 11 C-0.34 11 0.32 11 1 11 C0.67 10.01 0.34 9.02 0 8 C-0.12781786 5.32605036 -0.04391871 2.67904143 0 0 Z " fill="#F8C0C1" transform="translate(143,82)"/>
<path d="M0 0 C1.32 0.66 2.64 1.32 4 2 C1.36 4.64 -1.28 7.28 -4 10 C-4.33 8.68 -4.66 7.36 -5 6 C-4.360625 5.7525 -3.72125 5.505 -3.0625 5.25 C-0.81258459 4.18437567 -0.81258459 4.18437567 -0.25 1.875 C-0.1675 1.25625 -0.085 0.6375 0 0 Z " fill="#C73A41" transform="translate(94,41)"/>
<path d="M0 0 C-2.475 3.465 -2.475 3.465 -5 7 C-6.0625 5.1875 -6.0625 5.1875 -7 3 C-6.67 2.01 -6.34 1.02 -6 0 C-4 -1 -4 -1 0 0 Z " fill="#CB2632" transform="translate(33,43)"/>
<path d="M0 0 C0.66 0.33 1.32 0.66 2 1 C2.73075648 3.3140622 3.40138258 5.64828869 4 8 C2.0625 8.5625 2.0625 8.5625 0 9 C-0.33 8.67 -0.66 8.34 -1 8 C-0.82364548 5.30917128 -0.38164079 2.67148554 0 0 Z " fill="#D5353D" transform="translate(62,101)"/>
<path d="M0 0 C1.98 0 3.96 0 6 0 C6 0.99 6 1.98 6 3 C5.46375 2.731875 4.9275 2.46375 4.375 2.1875 C1.42717399 1.95477689 0.95188505 2.5799856 -1.25 4.4375 C-2.61125 5.7059375 -2.61125 5.7059375 -4 7 C-4 5.35 -4 3.7 -4 2 C-3.34 1.67 -2.68 1.34 -2 1 C-1.34 1.33 -0.68 1.66 0 2 C0 1.34 0 0.68 0 0 Z " fill="#C42E35" transform="translate(106,81)"/>
<path d="M0 0 C3.26954202 0.56371414 4.82575883 1.49962266 7 4 C5.948125 3.95875 4.89625 3.9175 3.8125 3.875 C0.25989827 3.99147875 -1.84866641 4.47208068 -5 6 C-3.35 4.02 -1.7 2.04 0 0 Z " fill="#FDDADA" transform="translate(108,82)"/>
<path d="M0 0 C1.77226453 0.28284018 3.542788 0.57660498 5.3125 0.875 C6.29863281 1.03742188 7.28476563 1.19984375 8.30078125 1.3671875 C11 2 11 2 14 4 C10.30823564 5.36732013 8.5364391 4.46632841 5 3 C2.29113059 2.83201738 2.29113059 2.83201738 0 3 C0 2.01 0 1.02 0 0 Z " fill="#C7363E" transform="translate(75,64)"/>
<path d="M0 0 C0.53625 0.2475 1.0725 0.495 1.625 0.75 C1.625 1.08 1.625 1.41 1.625 1.75 C0.696875 2.018125 -0.23125 2.28625 -1.1875 2.5625 C-4.31924055 3.47769901 -4.31924055 3.47769901 -5.9375 5.3125 C-7.89490658 7.26990658 -9.68896579 7.3870224 -12.375 7.75 C-4.71746575 -0.49657534 -4.71746575 -0.49657534 0 0 Z " fill="#FDDBDC" transform="translate(111.375,34.25)"/>
<path d="M0 0 C1.32 0.33 2.64 0.66 4 1 C1.69 3.31 -0.62 5.62 -3 8 C-3.33 6.68 -3.66 5.36 -4 4 C-3.34 4 -2.68 4 -2 4 C-2 3.34 -2 2.68 -2 2 C-1.34 2 -0.68 2 0 2 C0 1.34 0 0.68 0 0 Z " fill="#C7353E" transform="translate(119,104)"/>
<path d="M0 0 C2.475 0.495 2.475 0.495 5 1 C5.144375 1.886875 5.28875 2.77375 5.4375 3.6875 C5.91019978 6.47117646 6.43070185 9.23483757 7 12 C0 2.9 0 2.9 0 0 Z " fill="#C1333B" transform="translate(173,48)"/>
<path d="M0 0 C2.25245881 2.68841859 3.88213958 4.64641875 5 8 C4.01 8.99 3.02 9.98 2 11 C1.34 10.67 0.68 10.34 0 10 C0.66 8.02 1.32 6.04 2 4 C1.34 4 0.68 4 0 4 C0 2.68 0 1.36 0 0 Z " fill="#C62C30" transform="translate(145,50)"/>
<path d="M0 0 C3.98069267 2.87494471 6.43571997 5.82117329 9 10 C6.50638429 8.79618552 4.31856917 7.54571278 2 6 C2 5.01 2 4.02 2 3 C1.01 3 0.02 3 -1 3 C-0.67 2.01 -0.34 1.02 0 0 Z " fill="#C1343B" transform="translate(131,32)"/>
<path d="M0 0 C-0.75 1.9375 -0.75 1.9375 -2 4 C-5.00243773 5.30105635 -6.92988563 4.84139118 -10 4 C-8.71086513 3.32845067 -7.41859796 2.66291141 -6.125 2 C-5.40570313 1.62875 -4.68640625 1.2575 -3.9453125 0.875 C-2 0 -2 0 0 0 Z " fill="#F9D6D1" transform="translate(134,137)"/>
<path d="M0 0 C3.72114571 2.31537955 6.61229661 4.28579473 9 8 C5.02945403 8 3.83528756 6.6860619 1 4 C0.1875 1.75 0.1875 1.75 0 0 Z " fill="#FDE6E5" transform="translate(152,28)"/>
<path d="M0 0 C0.66 0.99 1.32 1.98 2 3 C1.01 4.98 0.02 6.96 -1 9 C-1.99 8.67 -2.98 8.34 -4 8 C-2.68 5.36 -1.36 2.72 0 0 Z " fill="#CA313D" transform="translate(130,164)"/>
<path d="M0 0 C4.95 0.99 4.95 0.99 10 2 C10 2.33 10 2.66 10 3 C8.02 3 6.04 3 4 3 C3.67 3.99 3.34 4.98 3 6 C0 2.25 0 2.25 0 0 Z " fill="#FAC6C3" transform="translate(26,145)"/>
<path d="M0 0 C0.99 0.66 1.98 1.32 3 2 C3 2.66 3 3.32 3 4 C2.4225 4.12375 1.845 4.2475 1.25 4.375 C-1.02335767 5.00648824 -2.9253529 5.88858191 -5 7 C-1.125 1.125 -1.125 1.125 0 0 Z " fill="#FCD8D7" transform="translate(127,99)"/>
<path d="M0 0 C0.99 0.33 1.98 0.66 3 1 C3.80078125 2.77734375 3.80078125 2.77734375 4.3125 4.9375 C4.49425781 5.64777344 4.67601562 6.35804687 4.86328125 7.08984375 C4.93095703 8.03537109 4.93095703 8.03537109 5 9 C4.34 9.66 3.68 10.32 3 11 C2.49384702 9.73160474 1.99530901 8.46016898 1.5 7.1875 C1.2215625 6.47980469 0.943125 5.77210937 0.65625 5.04296875 C0 3 0 3 0 0 Z " fill="#C12B31" transform="translate(138,65)"/>
<path d="M0 0 C0.66 0.33 1.32 0.66 2 1 C-0.475 5.455 -0.475 5.455 -3 10 C-4 6 -4 6 -3 3 C-2.34 3 -1.68 3 -1 3 C-0.67 2.01 -0.34 1.02 0 0 Z " fill="#FDDFDF" transform="translate(63,57)"/>
<path d="M0 0 C3.3 0.99 6.6 1.98 10 3 C9.67 3.66 9.34 4.32 9 5 C4.545 4.01 4.545 4.01 0 3 C0 2.01 0 1.02 0 0 Z " fill="#C5323C" transform="translate(22,128)"/>
<path d="M0 0 C0.33 0 0.66 0 1 0 C1.08131463 1.43655854 1.13933559 2.8744483 1.1875 4.3125 C1.23970703 5.51326172 1.23970703 5.51326172 1.29296875 6.73828125 C0.93801608 9.47851584 0.10633718 10.29171079 -2 12 C-1 3.42857143 -1 3.42857143 0 0 Z " fill="#F7C9CC" transform="translate(66,89)"/>
<path d="M0 0 C0.33 0.66 0.66 1.32 1 2 C-1.84936103 5.00765886 -4.23511958 7.27845212 -8 9 C-7.04270084 7.87411986 -6.08412105 6.7493285 -5.125 5.625 C-4.59132813 4.99851562 -4.05765625 4.37203125 -3.5078125 3.7265625 C-2.38567993 2.44163349 -1.20628025 1.20628025 0 0 Z " fill="#FEECE8" transform="translate(98,42)"/>
<path d="M0 0 C0.99 0.66 1.98 1.32 3 2 C2.67 3.32 2.34 4.64 2 6 C0.35 4.35 -1.3 2.7 -3 1 C-2.01 0.67 -1.02 0.34 0 0 Z " fill="#C73238" transform="translate(115,33)"/>
<path d="M0 0 C0.33 0.99 0.66 1.98 1 3 C1.99 3.33 2.98 3.66 4 4 C-0.75 7 -0.75 7 -3 7 C-1.125 2.25 -1.125 2.25 0 0 Z " fill="#FED2D2" transform="translate(144,170)"/>
<path d="M0 0 C4.875 4.75 4.875 4.75 6 7 C4.68 7 3.36 7 2 7 C0 4 0 4 0 0 Z " fill="#C42E38" transform="translate(26,147)"/>
<path d="M0 0 C0.99 1.32 1.98 2.64 3 4 C1.03533587 5.06775224 -0.96855359 6.06553465 -3 7 C-3.66 6.67 -4.32 6.34 -5 6 C-3.35 4.02 -1.7 2.04 0 0 Z " fill="#FCC5C4" transform="translate(77,114)"/>
<path d="M0 0 C0.66 0 1.32 0 2 0 C0.60667426 3.36720387 -0.9789286 4.9859524 -4 7 C-4 5.35 -4 3.7 -4 2 C-3.01 2.33 -2.02 2.66 -1 3 C-0.67 2.01 -0.34 1.02 0 0 Z " fill="#FDE0DF" transform="translate(68,99)"/>
<path d="M0 0 C0.99 0.33 1.98 0.66 3 1 C2.34 2.32 1.68 3.64 1 5 C-0.32 4.67 -1.64 4.34 -3 4 C-2.01 2.68 -1.02 1.36 0 0 Z " fill="#CA2E37" transform="translate(80,88)"/>
<path d="M0 0 C0.66 0 1.32 0 2 0 C2.33 1.65 2.66 3.3 3 5 C2.01 5.66 1.02 6.32 0 7 C-0.99 6.67 -1.98 6.34 -3 6 C-2.505 5.566875 -2.01 5.13375 -1.5 4.6875 C0.33218192 3.00259517 0.33218192 3.00259517 0 0 Z " fill="#C8313E" transform="translate(116,86)"/>
<path d="M0 0 C2 1 4 2 6 3 C6 3.99 6 4.98 6 6 C4.125 5.8125 4.125 5.8125 2 5 C0.75 2.4375 0.75 2.4375 0 0 Z " fill="#C72A30" transform="translate(180,61)"/>
<path d="M0 0 C4.455 1.98 4.455 1.98 9 4 C9 4.33 9 4.66 9 5 C3.5 5.36666667 3.5 5.36666667 1.125 3.625 C0 2 0 2 0 0 Z " fill="#C3363F" transform="translate(58,176)"/>
<path d="M0 0 C0.99 0 1.98 0 3 0 C3.33 0.66 3.66 1.32 4 2 C5.64363134 2.72159424 7.31050386 3.39351421 9 4 C5.79937313 5.60031344 3.27728194 4.03173691 0 3 C0 2.01 0 1.02 0 0 Z " fill="#FDDADC" transform="translate(17,124)"/>
<path d="M0 0 C0 3 0 3 -1 6 C-3.5625 7.1875 -3.5625 7.1875 -6 8 C-2.25 2.25 -2.25 2.25 0 0 Z " fill="#C63E44" transform="translate(74,45)"/>
<path d="M0 0 C2.97 0.495 2.97 0.495 6 1 C6 2.98 6 4.96 6 7 C1.125 2.25 1.125 2.25 0 0 Z " fill="#C12D34" transform="translate(122,43)"/>
<path d="M0 0 C2.97 0.99 5.94 1.98 9 3 C4.70600835 4.07349791 3.80504787 3.79682816 0 2 C0 1.34 0 0.68 0 0 Z " fill="#FEE1DE" transform="translate(131,17)"/>
</svg>
