<?xml version="1.0" standalone="no"?>
<!DOCTYPE svg PUBLIC "-//W3C//DTD SVG 20010904//EN"
 "http://www.w3.org/TR/2001/REC-SVG-20010904/DTD/svg10.dtd">
<svg version="1.0" xmlns="http://www.w3.org/2000/svg"
 width="200.000000pt" height="200.000000pt" viewBox="0 0 200.000000 200.000000"
 preserveAspectRatio="xMidYMid meet">

<g transform="translate(0.000000,200.000000) scale(0.100000,-0.100000)"
fill="#000000" stroke="none">
<path d="M0 1000 l0 -1000 1000 0 1000 0 0 1000 0 1000 -1000 0 -1000 0 0
-1000z m1248 854 c195 -56 373 -183 489 -350 41 -58 92 -171 118 -259 109
-378 -54 -786 -398 -994 -21 -13 -40 -21 -43 -19 -2 3 16 45 40 94 57 115 99
236 128 365 31 144 32 374 1 499 -64 256 -231 494 -450 640 -43 28 -80 54 -82
55 -11 11 126 -11 197 -31z m-361 -54 c48 -22 84 -42 82 -44 -2 -2 -22 -18
-44 -36 -73 -57 -177 -164 -235 -241 -151 -202 -231 -490 -203 -730 6 -52 9
-96 7 -98 -7 -7 -117 18 -221 51 -100 31 -103 32 -113 67 -40 143 -38 353 5
491 77 244 250 445 471 546 116 53 125 53 251 -6z m342 -246 c127 -138 208
-315 228 -497 6 -59 4 -58 -51 26 -84 125 -254 257 -441 343 -46 21 -85 44
-85 51 0 12 92 95 174 156 l48 37 38 -30 c21 -17 61 -56 89 -86z m-393 -230
c22 -9 59 -25 83 -36 l43 -20 -95 -93 c-52 -52 -123 -127 -157 -167 -35 -40
-67 -77 -72 -83 -12 -12 -2 66 19 150 29 116 100 265 127 265 8 0 31 -7 52
-16z m304 -173 l35 -28 -39 -47 c-44 -55 -138 -135 -213 -183 -53 -34 -186
-103 -198 -103 -3 0 22 35 56 78 76 93 295 312 312 312 7 0 28 -13 47 -29z
m160 -171 c12 -17 32 -57 45 -90 l23 -59 -66 -44 c-112 -73 -226 -118 -353
-141 -92 -16 -209 -26 -208 -17 0 3 58 34 127 69 146 72 237 137 337 239 38
40 71 72 72 72 1 1 11 -13 23 -29z m125 -322 c-23 -104 -125 -332 -208 -461
l-36 -55 -67 -7 c-271 -29 -522 55 -712 239 -72 69 -149 163 -140 171 2 2 37
-4 78 -15 266 -67 546 -65 770 6 88 27 236 98 280 133 35 29 43 26 35 -11z"/>
</g>
</svg>
