<svg xmlns="http://www.w3.org/2000/svg" xmlns:xlink="http://www.w3.org/1999/xlink" xmlns:lucid="lucid" width="1441.5" height="770.33"><g transform="translate(1201.0000000377795 -1238.9999999916788)" lucid:page-tab-id="onZ-gAoYT~go"><path d="M-1500 0h3000v2500h-3000z" fill="#fff"/><path d="M-1200 1704.42v-242.17a6 6 0 0 1 6-6h34v248.17z" stroke="#3a414a" fill="#6db1ff"/><path d="M-1160 2008.83h-34a6 6 0 0 1-6-6v-298.4h40z" stroke="#3a414a" fill="#b8f5ed"/><path d="M-1160 1456.25H234a6 6 0 0 1 6 6v242.17h-1400zM240 1704.42v298.4a6 6 0 0 1-6 6h-1394v-304.4z" stroke="#3a414a" fill="none"/><use xlink:href="#a" transform="matrix(-1.8369701987210297e-16,-1,1,-1.8369701987210297e-16,-1199.999999999938,1704.4166666666665) translate(43.78597005208334 28.017903645833332)"/><use xlink:href="#b" transform="matrix(-1.8369701987210297e-16,-1,1,-1.8369701987210297e-16,-1199.999999999938,1704.4166666666665) translate(123.48583984375 28.017903645833332)"/><use xlink:href="#c" transform="matrix(-1.8369701987210297e-16,-1,1,-1.8369701987210297e-16,-1199.999999999938,2008.8333333333335) translate(102.43277994791667 28.017903645833332)"/><path d="M-1200 1248a8 8 0 0 1 8-8h472.17a8 8 0 0 1 8 8v104a8 8 0 0 1-8 8H-1192a8 8 0 0 1-8-8z" stroke="#6f7681" stroke-width="2" fill="#f2f3f5"/><use xlink:href="#d" transform="matrix(1,0,0,1,-1194.439,1245.561) translate(12.977 63.603833333333334)"/><use xlink:href="#e" transform="matrix(1,0,0,1,-1194.439,1245.561) translate(83.5629375 63.603833333333334)"/><path d="M-860 1848a8 8 0 0 1 8-8h144.37a8 8 0 0 1 8 8v104a8 8 0 0 1-8 8H-852a8 8 0 0 1-8-8z" stroke="#ff80df" stroke-width="2" fill="#b8f5ed"/><use xlink:href="#f" transform="matrix(1,0,0,1,-854.439,1845.561) translate(25.250651041666668 61.197583333333334)"/><use xlink:href="#g" transform="matrix(1,0,0,1,-854.439,1845.561) translate(63.1328125 61.197583333333334)"/><path d="M-582.62 1848a8 8 0 0 1 8-8h144.37a8 8 0 0 1 8 8v104a8 8 0 0 1-8 8h-144.37a8 8 0 0 1-8-8z" stroke="#ff80df" stroke-width="2" fill="#b8f5ed"/><use xlink:href="#f" transform="matrix(1,0,0,1,-577.0630859369281,1845.561) translate(25.250651041666668 61.197583333333334)"/><use xlink:href="#g" transform="matrix(1,0,0,1,-577.0630859369281,1845.561) translate(63.1328125 61.197583333333334)"/><path d="M-1100 1528.33a8 8 0 0 1 8-8h144.37a8 8 0 0 1 8 8v104a8 8 0 0 1-8 8H-1092a8 8 0 0 1-8-8z" stroke="#ff80df" stroke-width="2" fill="#cfe4ff"/><use xlink:href="#h" transform="matrix(1,0,0,1,-1094.4390000000003,1525.8943333333275) translate(49.91341145833333 38.86604427083333)"/><use xlink:href="#i" transform="matrix(1,0,0,1,-1094.4390000000003,1525.8943333333275) translate(19.998209635416668 63.871903645833335)"/><use xlink:href="#j" transform="matrix(1,0,0,1,-1094.4390000000003,1525.8943333333275) translate(111.05061848958333 63.871903645833335)"/><use xlink:href="#k" transform="matrix(1,0,0,1,-1094.4390000000003,1525.8943333333275) translate(11.51660156250001 88.87776302083336)"/><path d="M-786.22 1525.13a10.7 10.7 0 0 1 12.8 0l67.4 50.4a6 6 0 0 1 0 9.6l-67.4 50.4a10.7 10.7 0 0 1-12.8 0l-67.38-50.4a6 6 0 0 1 0-9.6z" stroke="#ff80df" stroke-width="2" fill="#cfe4ff"/><use xlink:href="#l" transform="matrix(1,0,0,1,-854.439,1525.8943333333275) translate(13.504557291666668 38.86604427083333)"/><use xlink:href="#m" transform="matrix(1,0,0,1,-854.439,1525.8943333333275) translate(35.775716145833336 38.86604427083333)"/><use xlink:href="#n" transform="matrix(1,0,0,1,-854.439,1525.8943333333275) translate(119.27994791666667 38.86604427083333)"/><use xlink:href="#o" transform="matrix(1,0,0,1,-854.439,1525.8943333333275) translate(35.27115885416666 63.871903645833335)"/><use xlink:href="#p" transform="matrix(1,0,0,1,-854.439,1525.8943333333275) translate(45.36735026041666 88.87776302083336)"/><path d="M-938.13 1580.33h64.75" stroke="#000" stroke-linejoin="round" fill="none"/><path d="M-938.1 1580.8h-.53v-.94h.52z" stroke="#000" stroke-width=".05"/><path d="M-858.62 1580.33l-14.26 4.64v-9.27z" stroke="#000"/><path d="M-678.55 1539.45l2.35 3.8 1.78 3.45 1.3 3.12.9 2.8.6 2.47.35 2.2.15 2v1.82l-.16 1.65-.25 1.52-.36 1.4-.44 1.32-.53 1.24-.63 1.18-.72 1.13-.82 1.1-.95 1.04-1.06 1.04-1.24 1-1.43.98-1.67.96-1.97.93-2.36.9-2.88.82-3.58.72-4.54.54-5.4.2-.02-.94 5.35-.2 4.46-.54 3.5-.7 2.8-.8 2.3-.87 1.9-.9 1.6-.92 1.37-.92 1.18-.96 1.03-.97.9-1 .77-1.02.68-1.07.6-1.1.5-1.2.42-1.23.34-1.34.24-1.45.14-1.58v-1.73l-.13-1.92-.35-2.14-.57-2.4-.9-2.73-1.26-3.05-1.75-3.4-2.3-3.72-2.76-3.73h1.2zm-46.26-29.02l3.86.52 4.08.9 4.3 1.3 4.52 1.78.17.08v1.07l-.55-.27-4.45-1.75-4.23-1.3-4-.86-3.8-.53-3.6-.2-3.4.1-3.28.35-3.16.6-3.06.83-3 1.1-2.96 1.33-2.93 1.64-2.87 1.92-.53-.8 2.9-1.93 3-1.66 3.04-1.38 3.07-1.1 3.15-.87 3.23-.62 3.35-.36 3.5-.1z" stroke="#000" stroke-width=".05"/><path d="M-702.1 1580.8h-.57l.04-.47-.04-.47.54-.02z"/><path stroke="#000" stroke-width=".05"/><path d="M-750.47 1522.23l-13.36 6.82 6.8-13.37z"/><path d="M-749.67 1522.36l-15.24 7.77 7.75-15.25zm-13.07 5.6l11.48-5.86-5.64-5.63z" stroke="#000" stroke-width=".05"/><use xlink:href="#q" transform="matrix(1,0,0,1,-707.8682964926659,1514.7392822884094) translate(0 17.22222222222222)"/><path d="M-779.45 1822.6l-.95.02-.22-33.38h.95zm.1-183.42l-.23 76.92h-.95l.24-76.93z" stroke="#000" stroke-width=".05"/><path d="M-779.34 1639.2h-.95v-.56l.5.03.46-.03z"/><path stroke="#000" stroke-width=".05"/><path d="M-779.82 1837.38l-4.73-14.23 9.27-.07z"/><path d="M-779.8 1838.92l-5.4-16.24 10.57-.07zm-4.1-15.3l4.07 12.23 3.9-12.28z" stroke="#000" stroke-width=".05"/><use xlink:href="#r" transform="matrix(1,0,0,1,-868.4421966523657,1716.0994578801292) translate(76.05534722222222 17.22222222222222)"/><use xlink:href="#s" transform="matrix(1,0,0,1,-868.4421966523657,1716.0994578801292) translate(7.218541666666667 43.034722222222214)"/><use xlink:href="#t" transform="matrix(1,0,0,1,-868.4421966523657,1716.0994578801292) translate(0.0049999999999954525 68.84722222222221)"/><path d="M-582.62 1528.33a8 8 0 0 1 8-8h144.37a8 8 0 0 1 8 8v104a8 8 0 0 1-8 8h-144.37a8 8 0 0 1-8-8z" stroke="#ff80df" stroke-width="2" fill="#cfe4ff"/><use xlink:href="#u" transform="matrix(1,0,0,1,-577.0630859369281,1525.894333333372) translate(21.516927083333332 27.135083333333334)"/><use xlink:href="#v" transform="matrix(1,0,0,1,-577.0630859369281,1525.894333333372) translate(112.5693359375 27.135083333333334)"/><use xlink:href="#w" transform="matrix(1,0,0,1,-577.0630859369281,1525.894333333372) translate(32.94514973958333 52.14094270833334)"/><use xlink:href="#x" transform="matrix(1,0,0,1,-577.0630859369281,1525.894333333372) translate(80.68636067708334 52.14094270833334)"/><use xlink:href="#y" transform="matrix(1,0,0,1,-577.0630859369281,1525.894333333372) translate(105.45003255208334 52.14094270833334)"/><use xlink:href="#z" transform="matrix(1,0,0,1,-577.0630859369281,1525.894333333372) translate(17.243326822916668 77.14680208333334)"/><use xlink:href="#A" transform="matrix(1,0,0,1,-577.0630859369281,1525.894333333372) translate(36.310546875 102.15266145833334)"/><path d="M-501.96 1822.62h-.95V1783h.94zm0-86.95h-.95v-93.83h.94z" stroke="#000" stroke-width=".05"/><path d="M-501.96 1641.85h-.95v-.52h.94z"/><path stroke="#000" stroke-width=".05"/><path d="M-502.44 1837.38l-4.63-14.26h9.27z"/><path d="M-502.44 1838.92l-5.3-16.28h10.6zm-3.98-15.33l3.98 12.25 3.98-12.26z" stroke="#000" stroke-width=".05"/><use xlink:href="#s" transform="matrix(1,0,0,1,-641.968292968467,1735.667481307068) translate(58.47288194444444 17.22222222222222)"/><use xlink:href="#B" transform="matrix(1,0,0,1,-641.968292968467,1735.667481307068) translate(0.0049999999999954525 43.034722222222214)"/><path d="M-260 1848a8 8 0 0 1 8-8h144.37a8 8 0 0 1 8 8v104a8 8 0 0 1-8 8H-252a8 8 0 0 1-8-8z" stroke="#ff80df" stroke-width="2" fill="#b8f5ed"/><g><use xlink:href="#f" transform="matrix(1,0,0,1,-254.439,1845.5609999999554) translate(25.250651041666668 61.197583333333334)"/><use xlink:href="#g" transform="matrix(1,0,0,1,-254.439,1845.5609999999554) translate(63.1328125 61.197583333333334)"/></g><path d="M-260 1518.4a8 8 0 0 1 8-8h144.37a8 8 0 0 1 8 8v123.86a8 8 0 0 1-8 8H-252a8 8 0 0 1-8-8z" stroke="#ff80df" stroke-width="2" fill="#cfe4ff"/><g><use xlink:href="#C" transform="matrix(1,0,0,1,-254.439,1515.9646848958275) translate(21.73893229166666 27.760083333333334)"/><use xlink:href="#D" transform="matrix(1,0,0,1,-254.439,1515.9646848958275) translate(19.473470052083325 52.76594270833334)"/><use xlink:href="#E" transform="matrix(1,0,0,1,-254.439,1515.9646848958275) translate(41.19970703124999 52.76594270833334)"/><use xlink:href="#F" transform="matrix(1,0,0,1,-254.439,1515.9646848958275) translate(43.50048828125 77.77180208333334)"/><use xlink:href="#y" transform="matrix(1,0,0,1,-254.439,1515.9646848958275) translate(94.89469401041667 77.77180208333334)"/><use xlink:href="#z" transform="matrix(1,0,0,1,-254.439,1515.9646848958275) translate(17.243326822916668 102.77766145833334)"/><use xlink:href="#A" transform="matrix(1,0,0,1,-254.439,1515.9646848958275) translate(36.310546875 127.78352083333334)"/></g><path d="M-179.34 1822.62h-.95V1787h.96zm0-82.95h-.95v-87.9h.96z" stroke="#000" stroke-width=".05"/><path d="M-179.34 1651.78h-.95v-.52h.96z"/><path stroke="#000" stroke-width=".05"/><path d="M-179.8 1837.38l-4.65-14.26h9.27z"/><path d="M-179.8 1838.92l-5.3-16.28h10.58zm-4-15.33l4 12.25 3.97-12.26z" stroke="#000" stroke-width=".05"/><g><use xlink:href="#s" transform="matrix(1,0,0,1,-280.34681119820556,1739.6697025189949) translate(19.475486111111124 17.22222222222222)"/><use xlink:href="#G" transform="matrix(1,0,0,1,-280.34681119820556,1739.6697025189949) translate(0.0049999999999954525 43.034722222222214)"/></g><path d="M-20 1848a8 8 0 0 1 8-8h144.37a8 8 0 0 1 8 8v104a8 8 0 0 1-8 8H-12a8 8 0 0 1-8-8z" stroke="#ff80df" stroke-width="2" fill="#b8f5ed"/><g><use xlink:href="#f" transform="matrix(1,0,0,1,-14.43899999999703,1845.561) translate(25.250651041666668 61.197583333333334)"/><use xlink:href="#g" transform="matrix(1,0,0,1,-14.43899999999703,1845.561) translate(63.1328125 61.197583333333334)"/></g><path d="M-20 1505.9a8 8 0 0 1 8-8h144.37a8 8 0 0 1 8 8v148.87a8 8 0 0 1-8 8H-12a8 8 0 0 1-8-8z" stroke="#ff80df" stroke-width="2" fill="#cfe4ff"/><g><use xlink:href="#C" transform="matrix(1,0,0,1,-14.43899999999703,1503.461755208372) translate(21.73893229166666 28.541333333333334)"/><use xlink:href="#D" transform="matrix(1,0,0,1,-14.43899999999703,1503.461755208372) translate(43.17252604166666 53.54719270833334)"/><use xlink:href="#H" transform="matrix(1,0,0,1,-14.43899999999703,1503.461755208372) translate(64.89876302083333 53.54719270833334)"/><use xlink:href="#I" transform="matrix(1,0,0,1,-14.43899999999703,1503.461755208372) translate(21.07291666666666 78.55305208333334)"/><use xlink:href="#x" transform="matrix(1,0,0,1,-14.43899999999703,1503.461755208372) translate(92.55859375 78.55305208333334)"/><use xlink:href="#y" transform="matrix(1,0,0,1,-14.43899999999703,1503.461755208372) translate(117.322265625 78.55305208333334)"/><use xlink:href="#J" transform="matrix(1,0,0,1,-14.43899999999703,1503.461755208372) translate(50.9931640625 103.55891145833334)"/><use xlink:href="#K" transform="matrix(1,0,0,1,-14.43899999999703,1503.461755208372) translate(13.898111979166654 128.56477083333334)"/><use xlink:href="#L" transform="matrix(1,0,0,1,-14.43899999999703,1503.461755208372) translate(98.51236979166666 128.56477083333334)"/><use xlink:href="#y" transform="matrix(1,0,0,1,-14.43899999999703,1503.461755208372) translate(124.4970703125 128.56477083333334)"/><use xlink:href="#M" transform="matrix(1,0,0,1,-14.43899999999703,1503.461755208372) translate(55.67041015625 153.57063020833337)"/></g><path d="M60.66 1822.62h-.95v-30.6h.96zm0-77.9h-.95v-80.45h.96z" stroke="#000" stroke-width=".05"/><path d="M60.66 1664.28h-.95v-.5h.96z"/><path stroke="#000" stroke-width=".05"/><path d="M60.2 1837.38l-4.65-14.26h9.27z"/><path d="M60.2 1838.92l-5.3-16.28h10.58zm-4-15.33l4 12.25 3.97-12.26z" stroke="#000" stroke-width=".05"/><g><use xlink:href="#s" transform="matrix(1,0,0,1,-20.87632508709146,1744.7091043257906) translate(0.0049999999999954525 17.22222222222222)"/><use xlink:href="#N" transform="matrix(1,0,0,1,-20.87632508709146,1744.7091043257906) translate(32.03624999999999 43.034722222222214)"/></g><defs><path d="M657 26c-323 0-524-166-541-416h195c15 169 171 246 346 246 202 0 356-106 356-265 5-203-294-238-475-293-239-73-380-191-380-389 0-252 224-419 512-419 294 0 499 171 508 396H992c-17-145-151-228-328-228-193 0-321 102-321 242 0 156 175 211 284 241l149 41c160 44 422 134 422 412 0 244-197 432-541 432" id="O"/><path d="M628 24c-324 0-524-230-524-574 0-343 198-582 503-582 237 0 487 146 487 559v75H286c9 234 145 362 343 362 132 0 231-58 273-172l174 48C1024-91 857 24 628 24zM287-650h624c-17-190-120-322-304-322-192 0-309 151-320 322" id="P"/><path d="M158 0v-1118h174v172h12c41-113 157-188 290-188 26 0 70 2 91 3v181c-11-2-60-10-108-10-161 0-279 109-279 260V0H158" id="Q"/><path d="M481 0L54-1118h197c107 314 236 620 325 951 87-331 217-637 324-951h197L670 0H481" id="R"/><path d="M158 0v-1118h180V0H158zm91-1301c-68 0-125-53-125-119s57-119 125-119c69 0 126 53 126 119s-57 119-126 119" id="S"/><path d="M613 24c-304 0-509-231-509-576 0-350 205-580 509-580 216 0 392 114 453 309l-173 49c-33-115-133-197-280-197-223 0-326 196-326 419 0 220 103 415 326 415 150 0 252-85 285-206l172 49C1010-95 832 24 613 24" id="T"/><g id="a"><use transform="matrix(0.010091145833333332,0,0,0.010091145833333332,0,0)" xlink:href="#O"/><use transform="matrix(0.010091145833333332,0,0,0.010091145833333332,13.259765624999998,0)" xlink:href="#P"/><use transform="matrix(0.010091145833333332,0,0,0.010091145833333332,25.308593749999996,0)" xlink:href="#Q"/><use transform="matrix(0.010091145833333332,0,0,0.010091145833333332,33.411783854166664,0)" xlink:href="#R"/><use transform="matrix(0.010091145833333332,0,0,0.010091145833333332,45.02669270833333,0)" xlink:href="#S"/><use transform="matrix(0.010091145833333332,0,0,0.010091145833333332,50.031901041666664,0)" xlink:href="#T"/><use transform="matrix(0.010091145833333332,0,0,0.010091145833333332,61.83854166666667,0)" xlink:href="#P"/></g><path d="M180 0v-1490h510c348 0 508 209 508 474 0 266-160 477-507 477H370V0H180zm190-706h312c236 0 327-133 327-310 0-176-91-307-329-307H370v617" id="U"/><path d="M613 24c-304 0-509-231-509-576 0-350 205-580 509-580 305 0 511 230 511 580 0 345-206 576-511 576zm0-161c226 0 329-195 329-415 0-222-103-419-329-419-223 0-326 196-326 419 0 220 103 415 326 415" id="V"/><path d="M577 24c-279 0-473-224-473-580 0-354 195-576 474-576 218 0 287 134 324 193h14v-551h180V0H922v-173h-20C865-111 790 24 577 24zm27-161c203 0 314-172 314-421 0-247-108-413-314-413-212 0-317 181-317 413 0 235 108 421 317 421" id="W"/><g id="b"><use transform="matrix(0.010091145833333332,0,0,0.010091145833333332,0,0)" xlink:href="#U"/><use transform="matrix(0.010091145833333332,0,0,0.010091145833333332,13.199218749999998,0)" xlink:href="#Q"/><use transform="matrix(0.010091145833333332,0,0,0.010091145833333332,20.636393229166664,0)" xlink:href="#V"/><use transform="matrix(0.010091145833333332,0,0,0.010091145833333332,32.624674479166664,0)" xlink:href="#R"/><use transform="matrix(0.010091145833333332,0,0,0.010091145833333332,44.23958333333333,0)" xlink:href="#S"/><use transform="matrix(0.010091145833333332,0,0,0.010091145833333332,49.244791666666664,0)" xlink:href="#W"/><use transform="matrix(0.010091145833333332,0,0,0.010091145833333332,61.89908854166667,0)" xlink:href="#P"/><use transform="matrix(0.010091145833333332,0,0,0.010091145833333332,73.94791666666666,0)" xlink:href="#Q"/></g><path d="M52 0l541-1490h220L1361 0h-200l-149-416H398L254 0H52zm404-582h497c-103-290-145-390-251-756-108 377-145 460-246 756" id="X"/><path d="M538 24C308 24 148-78 108-271l171-41c32 123 123 178 257 178 156 0 256-77 256-169 0-77-54-128-164-154l-186-44c-203-48-300-148-300-305 0-192 176-326 414-326 230 0 351 112 402 269l-163 42c-31-80-94-158-238-158-133 0-233 69-233 162 0 83 57 129 188 160l169 40c203 48 298 149 298 302 0 196-179 339-441 339" id="Y"/><path d="M180 0v-1490h510c348 0 508 194 508 460 0 198-88 351-276 417L1256 0h-220L726-579c-117 2-238 0-356 1V0H180zm190-747h312c235 0 327-108 327-283 0-177-92-293-329-293H370v576" id="Z"/><path d="M783 20c-382 0-661-292-661-764 0-473 279-766 661-766 302 0 548 182 601 489h-190c-42-204-217-313-411-313-268 0-476 208-476 590 0 381 209 588 476 588 195 0 369-110 411-313h190c-52 303-296 489-601 489" id="aa"/><g id="c"><use transform="matrix(0.010091145833333332,0,0,0.010091145833333332,0,0)" xlink:href="#X"/><use transform="matrix(0.010091145833333332,0,0,0.010091145833333332,14.258789062499998,0)" xlink:href="#T"/><use transform="matrix(0.010091145833333332,0,0,0.010091145833333332,26.065429687499996,0)" xlink:href="#T"/><use transform="matrix(0.010091145833333332,0,0,0.010091145833333332,37.87207031249999,0)" xlink:href="#P"/><use transform="matrix(0.010091145833333332,0,0,0.010091145833333332,49.92089843749999,0)" xlink:href="#Y"/><use transform="matrix(0.010091145833333332,0,0,0.010091145833333332,60.82942708333333,0)" xlink:href="#Y"/><use transform="matrix(0.010091145833333332,0,0,0.010091145833333332,71.73795572916666,0)" xlink:href="#Z"/><use transform="matrix(0.010091145833333332,0,0,0.010091145833333332,85.03808593749999,0)" xlink:href="#aa"/></g><path d="M140 405l46-156c120 36 205 19 263-150l32-93L54-1118h197c107 313 237 620 324 950 87-331 219-637 326-950h196L606 167c-68 178-176 259-334 259-64 0-113-12-132-21" id="ab"/><path d="M338-670V0H158v-1118h173l1 207c72-158 192-221 342-221 226 0 378 139 378 422V0H872v-695c0-172-96-275-252-275-161 0-282 109-282 300" id="ac"/><g id="d"><use transform="matrix(0.013020833333333334,0,0,0.013020833333333334,0,0)" xlink:href="#O"/><use transform="matrix(0.013020833333333334,0,0,0.013020833333333334,17.109375,0)" xlink:href="#ab"/><use transform="matrix(0.013020833333333334,0,0,0.013020833333333334,32.09635416666667,0)" xlink:href="#ac"/><use transform="matrix(0.013020833333333334,0,0,0.013020833333333334,47.85156250000001,0)" xlink:href="#T"/></g><path d="M645 0H180v-1490h484c435 0 692 280 692 742 0 466-257 748-711 748zM370-168h263c363 0 539-218 539-580 0-358-176-574-521-574H370v1154" id="ad"/><path d="M338-1490V0H158v-1490h180" id="ae"/><g id="e"><use transform="matrix(0.013020833333333334,0,0,0.013020833333333334,0,0)" xlink:href="#ad"/><use transform="matrix(0.013020833333333334,0,0,0.013020833333333334,19.244791666666668,0)" xlink:href="#P"/><use transform="matrix(0.013020833333333334,0,0,0.013020833333333334,34.79166666666667,0)" xlink:href="#ae"/><use transform="matrix(0.013020833333333334,0,0,0.013020833333333334,41.25000000000001,0)" xlink:href="#S"/><use transform="matrix(0.013020833333333334,0,0,0.013020833333333334,47.70833333333334,0)" xlink:href="#R"/><use transform="matrix(0.013020833333333334,0,0,0.013020833333333334,62.17447916666667,0)" xlink:href="#P"/><use transform="matrix(0.013020833333333334,0,0,0.013020833333333334,77.72135416666667,0)" xlink:href="#Q"/><use transform="matrix(0.013020833333333334,0,0,0.013020833333333334,88.17708333333334,0)" xlink:href="#ab"/></g><path d="M598-1118v154H368v674c0 100 37 144 132 144 23 0 62-6 92-12L629-6c-37 13-88 20-134 20-193 0-307-107-307-290v-688H20v-154h168v-266h180v266h230" id="af"/><g id="f"><use transform="matrix(0.010091145833333334,0,0,0.010091145833333334,0,0)" xlink:href="#O"/><use transform="matrix(0.010091145833333334,0,0,0.010091145833333334,13.259765625,0)" xlink:href="#P"/><use transform="matrix(0.010091145833333334,0,0,0.010091145833333334,25.30859375,0)" xlink:href="#af"/></g><path d="M471 26C259 26 90-98 90-318c0-256 228-303 435-329 202-27 287-16 287-108 0-139-79-219-234-219-161 0-248 86-283 164l-173-57c86-203 278-265 451-265 150 0 419 46 419 395V0H815v-152h-12C765-73 660 26 471 26zm31-159c199 0 310-134 310-271v-155c-30 35-226 55-295 64-131 17-246 59-246 186 0 116 97 176 231 176" id="ag"/><path d="M537 14c-226 0-379-139-379-422v-710h180v695c0 172 97 275 253 275 160 0 281-109 281-300v-670h181V0H879v-209C806-46 684 14 537 14" id="ah"/><g id="g"><use transform="matrix(0.010091145833333334,0,0,0.010091145833333334,0,0)" xlink:href="#O"/><use transform="matrix(0.010091145833333334,0,0,0.010091145833333334,13.259765625,0)" xlink:href="#af"/><use transform="matrix(0.010091145833333334,0,0,0.010091145833333334,20.121744791666668,0)" xlink:href="#ag"/><use transform="matrix(0.010091145833333334,0,0,0.010091145833333334,31.726562500000004,0)" xlink:href="#af"/><use transform="matrix(0.010091145833333334,0,0,0.010091145833333334,38.487630208333336,0)" xlink:href="#ah"/><use transform="matrix(0.010091145833333334,0,0,0.010091145833333334,50.7080078125,0)" xlink:href="#Y"/></g><g id="h"><use transform="matrix(0.010091145833333334,0,0,0.010091145833333334,0,0)" xlink:href="#O"/><use transform="matrix(0.010091145833333334,0,0,0.010091145833333334,13.259765625,0)" xlink:href="#P"/><use transform="matrix(0.010091145833333334,0,0,0.010091145833333334,25.30859375,0)" xlink:href="#ac"/><use transform="matrix(0.010091145833333334,0,0,0.010091145833333334,37.518880208333336,0)" xlink:href="#W"/></g><path d="M158 0v-1118h175l1 205c55-151 181-225 313-225 147 0 245 90 285 228 53-141 190-228 352-228 194 0 352 125 352 384V0h-181v-749c0-161-105-225-225-225-151 0-243 103-243 244V0H807v-767c0-124-93-207-219-207-131 0-250 92-250 270V0H158" id="ai"/><g id="i"><use transform="matrix(0.010091145833333334,0,0,0.010091145833333334,0,0)" xlink:href="#U"/><use transform="matrix(0.010091145833333334,0,0,0.010091145833333334,13.19921875,0)" xlink:href="#ag"/><use transform="matrix(0.010091145833333334,0,0,0.010091145833333334,24.501302083333336,0)" xlink:href="#ab"/><use transform="matrix(0.010091145833333334,0,0,0.010091145833333334,36.1162109375,0)" xlink:href="#ai"/><use transform="matrix(0.010091145833333334,0,0,0.010091145833333334,54.2197265625,0)" xlink:href="#P"/><use transform="matrix(0.010091145833333334,0,0,0.010091145833333334,66.2685546875,0)" xlink:href="#ac"/><use transform="matrix(0.010091145833333334,0,0,0.010091145833333334,78.47884114583333,0)" xlink:href="#af"/></g><g id="j"><use transform="matrix(0.010091145833333334,0,0,0.010091145833333334,0,0)" xlink:href="#af"/><use transform="matrix(0.010091145833333334,0,0,0.010091145833333334,6.559244791666667,0)" xlink:href="#V"/></g><path d="M180 0v-1490h528c311 0 458 177 458 395 0 191-114 278-244 313v14c139 9 302 137 302 371 0 225-148 397-499 397H180zm190-168h350c232 0 321-102 321-231 0-149-120-277-311-277H370v508zm0-668h328c160 0 286-101 286-255 0-129-87-231-280-231H370v486" id="aj"/><path d="M678-1118v154H420V0H240v-964H20v-154h220v-149c0-194 155-293 318-293 85 0 141 18 168 30l-50 154c-19-6-47-17-97-17-111 0-159 58-159 166v109h258" id="ak"/><g id="k"><use transform="matrix(0.010091145833333334,0,0,0.010091145833333334,0,0)" xlink:href="#aj"/><use transform="matrix(0.010091145833333334,0,0,0.010091145833333334,13.522135416666668,0)" xlink:href="#P"/><use transform="matrix(0.010091145833333334,0,0,0.010091145833333334,25.570963541666668,0)" xlink:href="#ac"/><use transform="matrix(0.010091145833333334,0,0,0.010091145833333334,37.78125,0)" xlink:href="#P"/><use transform="matrix(0.010091145833333334,0,0,0.010091145833333334,49.830078125,0)" xlink:href="#ak"/><use transform="matrix(0.010091145833333334,0,0,0.010091145833333334,57.479166666666664,0)" xlink:href="#S"/><use transform="matrix(0.010091145833333334,0,0,0.010091145833333334,62.48437500000001,0)" xlink:href="#T"/><use transform="matrix(0.010091145833333334,0,0,0.010091145833333334,74.291015625,0)" xlink:href="#S"/><use transform="matrix(0.010091145833333334,0,0,0.010091145833333334,79.29622395833333,0)" xlink:href="#ag"/><use transform="matrix(0.010091145833333334,0,0,0.010091145833333334,90.90104166666666,0)" xlink:href="#Q"/><use transform="matrix(0.010091145833333334,0,0,0.010091145833333334,99.00423177083331,0)" xlink:href="#S"/><use transform="matrix(0.010091145833333334,0,0,0.010091145833333334,104.00944010416666,0)" xlink:href="#P"/><use transform="matrix(0.010091145833333334,0,0,0.010091145833333334,116.05826822916666,0)" xlink:href="#Y"/></g><path d="M370-1490V0H180v-1490h190" id="al"/><g id="l"><use transform="matrix(0.010091145833333334,0,0,0.010091145833333334,0,0)" xlink:href="#al"/><use transform="matrix(0.010091145833333334,0,0,0.010091145833333334,5.550130208333334,0)" xlink:href="#Y"/></g><g id="m"><use transform="matrix(0.010091145833333334,0,0,0.010091145833333334,0,0)" xlink:href="#W"/><use transform="matrix(0.010091145833333334,0,0,0.010091145833333334,12.654296875,0)" xlink:href="#P"/><use transform="matrix(0.010091145833333334,0,0,0.010091145833333334,24.703125,0)" xlink:href="#ae"/><use transform="matrix(0.010091145833333334,0,0,0.010091145833333334,29.708333333333336,0)" xlink:href="#S"/><use transform="matrix(0.010091145833333334,0,0,0.010091145833333334,34.71354166666667,0)" xlink:href="#R"/><use transform="matrix(0.010091145833333334,0,0,0.010091145833333334,45.9248046875,0)" xlink:href="#P"/><use transform="matrix(0.010091145833333334,0,0,0.010091145833333334,57.9736328125,0)" xlink:href="#Q"/><use transform="matrix(0.010091145833333334,0,0,0.010091145833333334,66.07682291666667,0)" xlink:href="#ab"/></g><g id="n"><use transform="matrix(0.010091145833333334,0,0,0.010091145833333334,0,0)" xlink:href="#S"/><use transform="matrix(0.010091145833333334,0,0,0.010091145833333334,5.005208333333334,0)" xlink:href="#ac"/></g><path d="M158 418v-1536h174v179h20c37-59 106-193 324-193 279 0 474 222 474 576 0 356-194 580-473 580-213 0-288-135-325-197h-14v591H158zm492-555c209 0 317-186 317-421 0-232-105-413-317-413-206 0-314 166-314 413 0 249 111 421 314 421" id="am"/><path d="M611 442c-248 0-391-105-460-228l146-94c47 65 117 165 314 165 178 0 307-82 307-266v-224h-17C863-141 792-18 576-18c-268 0-472-195-472-546 0-346 197-568 476-568 216 0 288 133 326 193h17v-179h175V29c0 289-215 413-487 413zm-5-620c203 0 314-146 314-390 0-237-108-403-314-403-213 0-319 180-319 403 0 230 109 390 319 390" id="an"/><g id="o"><use transform="matrix(0.010091145833333334,0,0,0.010091145833333334,0,0)" xlink:href="#am"/><use transform="matrix(0.010091145833333334,0,0,0.010091145833333334,12.654296875,0)" xlink:href="#P"/><use transform="matrix(0.010091145833333334,0,0,0.010091145833333334,24.703125,0)" xlink:href="#ac"/><use transform="matrix(0.010091145833333334,0,0,0.010091145833333334,36.913411458333336,0)" xlink:href="#W"/><use transform="matrix(0.010091145833333334,0,0,0.010091145833333334,49.567708333333336,0)" xlink:href="#S"/><use transform="matrix(0.010091145833333334,0,0,0.010091145833333334,54.57291666666667,0)" xlink:href="#ac"/><use transform="matrix(0.010091145833333334,0,0,0.010091145833333334,66.783203125,0)" xlink:href="#an"/></g><g id="p"><use transform="matrix(0.010091145833333334,0,0,0.010091145833333334,0,0)" xlink:href="#Y"/><use transform="matrix(0.010091145833333334,0,0,0.010091145833333334,10.908528645833334,0)" xlink:href="#af"/><use transform="matrix(0.010091145833333334,0,0,0.010091145833333334,17.7705078125,0)" xlink:href="#ag"/><use transform="matrix(0.010091145833333334,0,0,0.010091145833333334,29.375325520833336,0)" xlink:href="#af"/><use transform="matrix(0.010091145833333334,0,0,0.010091145833333334,36.13639322916667,0)" xlink:href="#ah"/><use transform="matrix(0.010091145833333334,0,0,0.010091145833333334,48.35677083333334,0)" xlink:href="#Y"/></g><path fill="#333" d="M601 0v-560L49-1490h357l252 464c38 68 67 130 97 208 96-243 225-446 337-672h356L905-560V0H601" id="ao"/><path fill="#333" d="M633 22C291 22 81-200 81-553c0-345 210-579 537-579 292 0 525 185 525 567v84H378c7 183 109 277 260 277 105 0 184-46 216-132l272 51C1071-99 893 22 633 22zM380-669h474c-15-146-94-237-233-237-143 0-229 99-241 237" id="ap"/><path fill="#333" d="M572 22C302 22 117-98 78-306l279-48c29 105 101 156 224 156 114 0 185-48 185-115 0-118-228-130-337-155-215-49-322-150-322-317 0-215 187-347 470-347 265 0 424 116 466 298l-266 47c-24-76-87-130-196-130-98 0-174 46-174 113 0 56 38 95 144 117l201 40c216 44 320 143 320 302 0 220-207 367-500 367" id="aq"/><g id="q"><use transform="matrix(0.008680555555555556,0,0,0.008680555555555556,0,0)" xlink:href="#ao"/><use transform="matrix(0.008680555555555556,0,0,0.008680555555555556,11.050347222222223,0)" xlink:href="#ap"/><use transform="matrix(0.008680555555555556,0,0,0.008680555555555556,21.640625,0)" xlink:href="#aq"/></g><path fill="#333" d="M135 0v-1490h340l471 754c59 97 122 210 187 365-32-387-14-721-19-1119h312V0h-341C855-382 627-689 427-1113c32 420 16 695 20 1113H135" id="ar"/><path fill="#333" d="M628 22C291 22 81-210 81-554c0-346 210-578 547-578 336 0 547 232 547 578 0 344-211 576-547 576zm0-236c160 0 242-146 242-341 0-197-82-341-242-341S387-753 387-555c0 195 81 341 241 341" id="as"/><g id="r"><use transform="matrix(0.008680555555555556,0,0,0.008680555555555556,0,0)" xlink:href="#ar"/><use transform="matrix(0.008680555555555556,0,0,0.008680555555555556,13.550347222222223,0)" xlink:href="#as"/></g><path fill="#333" d="M768-1560L288 224H28l480-1784h260" id="at"/><path fill="#333" d="M440 22C227 22 68-92 68-313c0-250 202-322 422-343 195-21 271-24 271-105 0-95-63-149-175-149-116 0-187 57-211 129l-275-46c57-194 237-305 487-305 240 0 474 108 474 379V0H777v-155h-10C713-51 605 22 440 22zm85-211c140 0 238-93 238-211v-121c-37 26-156 42-222 51-111 16-185 59-185 149 0 87 70 132 169 132" id="au"/><path fill="#333" d="M128 418v-1536h295v188h14c41-89 129-202 319-202 248 0 453 193 453 575 0 372-197 576-455 576-183 0-275-108-317-198h-9v597H128zm534-640c156 0 240-139 240-336 0-196-83-334-240-334-154 0-241 131-241 334 0 202 88 336 241 336" id="av"/><path fill="#333" d="M128 0v-1118h300V0H128zm150-1264c-91 0-165-68-165-154 0-85 74-154 165-154 90 0 165 69 165 154 0 86-75 154-165 154" id="aw"/><path fill="#333" d="M659 0H135v-1490h529c448 0 721 280 721 744 0 466-273 746-726 746zM440-263h204c287 0 437-148 437-483 0-333-150-481-435-481H440v964" id="ax"/><path fill="#333" d="M428-1490V0H128v-1490h300" id="ay"/><path fill="#333" d="M443 0L31-1118h319c90 293 199 572 268 885 66-313 175-593 264-885h315L784 0H443" id="az"/><path fill="#333" d="M128 0v-1118h290v195h12c54-169 184-238 367-200v268c-27-8-86-15-130-15-138 0-239 95-239 234V0H128" id="aA"/><path fill="#333" d="M120 396l69-226c123 42 245 23 254-107l8-60L31-1118h319c87 288 199 559 259 872 72-308 185-583 277-872h315L726 132c-68 181-186 294-410 294-79 0-153-13-196-30" id="aB"/><path fill="#333" d="M681 22C323 22 94-145 85-462h297c10 151 131 226 296 226 163 0 271-77 271-190 0-102-95-149-257-189l-164-41c-252-61-403-188-403-405 0-269 236-449 560-449 330 0 546 183 551 445H941c-11-119-106-188-259-188-156 0-244 72-244 172-3 156 226 185 373 221 250 61 445 186 445 436 0 271-213 446-575 446" id="aC"/><path fill="#333" d="M428-647V0H128v-1118h283l4 231c63-156 176-245 348-245 232 0 384 159 384 421V0H847v-659c0-139-76-222-202-222-128 0-217 86-217 234" id="aD"/><path fill="#333" d="M628 22C291 22 81-210 81-554c0-346 210-578 547-578 265 0 455 142 497 372l-279 52c-25-116-99-188-215-188-160 0-244 139-244 341 0 200 84 341 244 341 116 0 193-74 217-195l279 51C1085-123 896 22 628 22" id="aE"/><g id="s"><use transform="matrix(0.008680555555555556,0,0,0.008680555555555556,0,0)" xlink:href="#at"/><use transform="matrix(0.008680555555555556,0,0,0.008680555555555556,6.901041666666667,0)" xlink:href="#au"/><use transform="matrix(0.008680555555555556,0,0,0.008680555555555556,17.22222222222222,0)" xlink:href="#av"/><use transform="matrix(0.008680555555555556,0,0,0.008680555555555556,28.428819444444443,0)" xlink:href="#aw"/><use transform="matrix(0.008680555555555556,0,0,0.008680555555555556,33.24652777777778,0)" xlink:href="#at"/><use transform="matrix(0.008680555555555556,0,0,0.008680555555555556,40.14756944444444,0)" xlink:href="#ax"/><use transform="matrix(0.008680555555555556,0,0,0.008680555555555556,52.986111111111114,0)" xlink:href="#ap"/><use transform="matrix(0.008680555555555556,0,0,0.008680555555555556,63.57638888888889,0)" xlink:href="#ay"/><use transform="matrix(0.008680555555555556,0,0,0.008680555555555556,68.39409722222223,0)" xlink:href="#aw"/><use transform="matrix(0.008680555555555556,0,0,0.008680555555555556,73.21180555555556,0)" xlink:href="#az"/><use transform="matrix(0.008680555555555556,0,0,0.008680555555555556,83.55034722222223,0)" xlink:href="#ap"/><use transform="matrix(0.008680555555555556,0,0,0.008680555555555556,94.140625,0)" xlink:href="#aA"/><use transform="matrix(0.008680555555555556,0,0,0.008680555555555556,101.6579861111111,0)" xlink:href="#aB"/><use transform="matrix(0.008680555555555556,0,0,0.008680555555555556,111.35416666666666,0)" xlink:href="#at"/><use transform="matrix(0.008680555555555556,0,0,0.008680555555555556,118.25520833333333,0)" xlink:href="#aC"/><use transform="matrix(0.008680555555555556,0,0,0.008680555555555556,129.89583333333331,0)" xlink:href="#aB"/><use transform="matrix(0.008680555555555556,0,0,0.008680555555555556,140.59895833333331,0)" xlink:href="#aD"/><use transform="matrix(0.008680555555555556,0,0,0.008680555555555556,151.66666666666663,0)" xlink:href="#aE"/></g><path fill="#333" d="M135 0v-1490h997v253H440v360h640v249H440v375h694V0H135" id="aF"/><path fill="#333" d="M135 0v-1490h305v1237h643V0H135" id="aG"/><path fill="#333" d="M440-1490V0H135v-1490h305" id="aH"/><path fill="#333" d="M571 0L49-1490h339c138 427 271 775 384 1244 111-471 237-815 371-1244h337L970 0H571" id="aI"/><path fill="#333" d="M135 0v-1490h581c339 0 533 192 533 485 0 204-94 351-264 424L1302 0H964L680-532H440V0H135zm305-779h220c186 0 274-77 274-226 0-150-88-233-275-233H440v459" id="aJ"/><path fill="#333" d="M975 0v231H0V0h975" id="aK"/><path fill="#333" d="M135 0v-1490h581c339 0 533 210 533 503 0 295-197 500-540 500H440V0H135zm305-733h220c186 0 274-104 274-254s-88-251-275-251H440v505" id="aL"/><path fill="#333" d="M795 20C377 20 94-272 94-743c0-483 302-767 694-767 335 0 593 206 635 500h-310c-42-142-154-229-320-229-230 0-389 177-389 493s154 495 393 495c212 0 340-120 345-311H818v-232h620v186c0 391-269 628-643 628" id="aM"/><g id="t"><use transform="matrix(0.008680555555555556,0,0,0.008680555555555556,0,0)" xlink:href="#ax"/><use transform="matrix(0.008680555555555556,0,0,0.008680555555555556,12.838541666666668,0)" xlink:href="#aF"/><use transform="matrix(0.008680555555555556,0,0,0.008680555555555556,23.63715277777778,0)" xlink:href="#aG"/><use transform="matrix(0.008680555555555556,0,0,0.008680555555555556,33.689236111111114,0)" xlink:href="#aH"/><use transform="matrix(0.008680555555555556,0,0,0.008680555555555556,38.68055555555556,0)" xlink:href="#aI"/><use transform="matrix(0.008680555555555556,0,0,0.008680555555555556,51.953125,0)" xlink:href="#aF"/><use transform="matrix(0.008680555555555556,0,0,0.008680555555555556,62.751736111111114,0)" xlink:href="#aJ"/><use transform="matrix(0.008680555555555556,0,0,0.008680555555555556,73.90625,0)" xlink:href="#ao"/><use transform="matrix(0.008680555555555556,0,0,0.008680555555555556,86.90104166666667,0)" xlink:href="#aK"/><use transform="matrix(0.008680555555555556,0,0,0.008680555555555556,95.96354166666667,0)" xlink:href="#aL"/><use transform="matrix(0.008680555555555556,0,0,0.008680555555555556,107.4826388888889,0)" xlink:href="#aF"/><use transform="matrix(0.008680555555555556,0,0,0.008680555555555556,118.28125000000001,0)" xlink:href="#ar"/><use transform="matrix(0.008680555555555556,0,0,0.008680555555555556,131.83159722222223,0)" xlink:href="#ax"/><use transform="matrix(0.008680555555555556,0,0,0.008680555555555556,144.67013888888889,0)" xlink:href="#aH"/><use transform="matrix(0.008680555555555556,0,0,0.008680555555555556,149.66145833333334,0)" xlink:href="#ar"/><use transform="matrix(0.008680555555555556,0,0,0.008680555555555556,163.21180555555557,0)" xlink:href="#aM"/></g><g id="u"><use transform="matrix(0.010091145833333334,0,0,0.010091145833333334,0,0)" xlink:href="#U"/><use transform="matrix(0.010091145833333334,0,0,0.010091145833333334,13.19921875,0)" xlink:href="#ag"/><use transform="matrix(0.010091145833333334,0,0,0.010091145833333334,24.501302083333336,0)" xlink:href="#ab"/><use transform="matrix(0.010091145833333334,0,0,0.010091145833333334,36.1162109375,0)" xlink:href="#ai"/><use transform="matrix(0.010091145833333334,0,0,0.010091145833333334,54.2197265625,0)" xlink:href="#P"/><use transform="matrix(0.010091145833333334,0,0,0.010091145833333334,66.2685546875,0)" xlink:href="#ac"/><use transform="matrix(0.010091145833333334,0,0,0.010091145833333334,78.47884114583333,0)" xlink:href="#af"/></g><g id="v"><use transform="matrix(0.010091145833333334,0,0,0.010091145833333334,0,0)" xlink:href="#S"/><use transform="matrix(0.010091145833333334,0,0,0.010091145833333334,5.005208333333334,0)" xlink:href="#Y"/></g><g id="w"><use transform="matrix(0.010091145833333334,0,0,0.010091145833333334,0,0)" xlink:href="#Y"/><use transform="matrix(0.010091145833333334,0,0,0.010091145833333334,10.908528645833334,0)" xlink:href="#P"/><use transform="matrix(0.010091145833333334,0,0,0.010091145833333334,22.957356770833336,0)" xlink:href="#ac"/><use transform="matrix(0.010091145833333334,0,0,0.010091145833333334,35.16764322916667,0)" xlink:href="#af"/></g><g id="x"><use transform="matrix(0.010091145833333334,0,0,0.010091145833333334,0,0)" xlink:href="#af"/><use transform="matrix(0.010091145833333334,0,0,0.010091145833333334,6.559244791666667,0)" xlink:href="#V"/></g><use transform="matrix(0.010091145833333334,0,0,0.010091145833333334,0,0)" xlink:href="#ag" id="y"/><path d="M338-670V0H158v-1490h180v566c73-149 190-208 336-208 226 0 379 139 379 422V0H872v-695c0-172-96-275-252-275-161 0-282 109-282 300" id="aN"/><path d="M158 0v-1490h180v865h22l478-493h223L593-638 1096 0H865L456-523 338-412V0H158" id="aO"/><g id="z"><use transform="matrix(0.010091145833333334,0,0,0.010091145833333334,0,0)" xlink:href="#aa"/><use transform="matrix(0.010091145833333334,0,0,0.010091145833333334,15.096354166666668,0)" xlink:href="#ag"/><use transform="matrix(0.010091145833333334,0,0,0.010091145833333334,26.701171875,0)" xlink:href="#Y"/><use transform="matrix(0.010091145833333334,0,0,0.010091145833333334,37.609700520833336,0)" xlink:href="#aN"/><use transform="matrix(0.010091145833333334,0,0,0.010091145833333334,49.830078125,0)" xlink:href="#am"/><use transform="matrix(0.010091145833333334,0,0,0.010091145833333334,62.48437500000001,0)" xlink:href="#S"/><use transform="matrix(0.010091145833333334,0,0,0.010091145833333334,67.48958333333333,0)" xlink:href="#T"/><use transform="matrix(0.010091145833333334,0,0,0.010091145833333334,79.29622395833333,0)" xlink:href="#aO"/><use transform="matrix(0.010091145833333334,0,0,0.010091145833333334,90.638671875,0)" xlink:href="#ah"/><use transform="matrix(0.010091145833333334,0,0,0.010091145833333334,102.85904947916667,0)" xlink:href="#am"/></g><g id="A"><use transform="matrix(0.010091145833333334,0,0,0.010091145833333334,0,0)" xlink:href="#ae"/><use transform="matrix(0.010091145833333334,0,0,0.010091145833333334,5.005208333333334,0)" xlink:href="#V"/><use transform="matrix(0.010091145833333334,0,0,0.010091145833333334,17.397135416666668,0)" xlink:href="#T"/><use transform="matrix(0.010091145833333334,0,0,0.010091145833333334,29.405598958333336,0)" xlink:href="#ag"/><use transform="matrix(0.010091145833333334,0,0,0.010091145833333334,41.01041666666667,0)" xlink:href="#af"/><use transform="matrix(0.010091145833333334,0,0,0.010091145833333334,47.771484375,0)" xlink:href="#S"/><use transform="matrix(0.010091145833333334,0,0,0.010091145833333334,52.77669270833334,0)" xlink:href="#V"/><use transform="matrix(0.010091145833333334,0,0,0.010091145833333334,65.16861979166667,0)" xlink:href="#ac"/></g><path fill="#333" d="M49 0l509-1490h400L1480 0h-339l-115-346H497L386 0H49zm524-585h374c-75-213-124-402-192-666-66 268-110 453-182 666" id="aP"/><path fill="#333" d="M75-1237v-253h1217v253H837V0H531v-1237H75" id="aQ"/><path fill="#333" d="M789 20C394 20 94-260 94-744c0-487 300-766 695-766s695 279 695 766c0 485-300 764-695 764zm0-271c231 0 385-174 385-493 0-321-154-495-385-495s-385 175-385 495c0 319 154 493 385 493" id="aR"/><path fill="#333" d="M786 20C389 20 94-260 94-744c0-487 299-766 692-766 339 0 597 194 641 529h-309c-28-162-156-258-326-258-233 0-388 179-388 495 0 323 157 493 387 493 170 0 298-97 328-259h309c-34 277-266 530-642 530" id="aS"/><g id="B"><use transform="matrix(0.008680555555555556,0,0,0.008680555555555556,0,0)" xlink:href="#ax"/><use transform="matrix(0.008680555555555556,0,0,0.008680555555555556,12.838541666666668,0)" xlink:href="#aF"/><use transform="matrix(0.008680555555555556,0,0,0.008680555555555556,23.63715277777778,0)" xlink:href="#aG"/><use transform="matrix(0.008680555555555556,0,0,0.008680555555555556,33.689236111111114,0)" xlink:href="#aH"/><use transform="matrix(0.008680555555555556,0,0,0.008680555555555556,38.68055555555556,0)" xlink:href="#aI"/><use transform="matrix(0.008680555555555556,0,0,0.008680555555555556,51.953125,0)" xlink:href="#aF"/><use transform="matrix(0.008680555555555556,0,0,0.008680555555555556,62.751736111111114,0)" xlink:href="#aJ"/><use transform="matrix(0.008680555555555556,0,0,0.008680555555555556,73.90625,0)" xlink:href="#ao"/><use transform="matrix(0.008680555555555556,0,0,0.008680555555555556,86.90104166666667,0)" xlink:href="#aK"/><use transform="matrix(0.008680555555555556,0,0,0.008680555555555556,95.96354166666667,0)" xlink:href="#aJ"/><use transform="matrix(0.008680555555555556,0,0,0.008680555555555556,107.6388888888889,0)" xlink:href="#aF"/><use transform="matrix(0.008680555555555556,0,0,0.008680555555555556,118.43750000000001,0)" xlink:href="#aP"/><use transform="matrix(0.008680555555555556,0,0,0.008680555555555556,131.71006944444446,0)" xlink:href="#ax"/><use transform="matrix(0.008680555555555556,0,0,0.008680555555555556,143.78472222222223,0)" xlink:href="#ao"/><use transform="matrix(0.008680555555555556,0,0,0.008680555555555556,156.77951388888889,0)" xlink:href="#aK"/><use transform="matrix(0.008680555555555556,0,0,0.008680555555555556,164.2361111111111,0)" xlink:href="#aQ"/><use transform="matrix(0.008680555555555556,0,0,0.008680555555555556,175.53819444444443,0)" xlink:href="#aR"/><use transform="matrix(0.008680555555555556,0,0,0.008680555555555556,188.5329861111111,0)" xlink:href="#aK"/><use transform="matrix(0.008680555555555556,0,0,0.008680555555555556,196.29340277777774,0)" xlink:href="#aS"/><use transform="matrix(0.008680555555555556,0,0,0.008680555555555556,209.4444444444444,0)" xlink:href="#aR"/><use transform="matrix(0.008680555555555556,0,0,0.008680555555555556,223.14236111111106,0)" xlink:href="#aG"/><use transform="matrix(0.008680555555555556,0,0,0.008680555555555556,233.1944444444444,0)" xlink:href="#aG"/><use transform="matrix(0.008680555555555556,0,0,0.008680555555555556,243.24652777777774,0)" xlink:href="#aF"/><use transform="matrix(0.008680555555555556,0,0,0.008680555555555556,254.04513888888886,0)" xlink:href="#aS"/><use transform="matrix(0.008680555555555556,0,0,0.008680555555555556,267.19618055555554,0)" xlink:href="#aQ"/></g><g id="C"><use transform="matrix(0.010091145833333334,0,0,0.010091145833333334,0,0)" xlink:href="#X"/><use transform="matrix(0.010091145833333334,0,0,0.010091145833333334,14.2587890625,0)" xlink:href="#Y"/><use transform="matrix(0.010091145833333334,0,0,0.010091145833333334,25.167317708333336,0)" xlink:href="#Y"/><use transform="matrix(0.010091145833333334,0,0,0.010091145833333334,36.07584635416667,0)" xlink:href="#S"/><use transform="matrix(0.010091145833333334,0,0,0.010091145833333334,41.08105468750001,0)" xlink:href="#Y"/><use transform="matrix(0.010091145833333334,0,0,0.010091145833333334,51.98958333333334,0)" xlink:href="#af"/><use transform="matrix(0.010091145833333334,0,0,0.010091145833333334,58.851562500000014,0)" xlink:href="#ag"/><use transform="matrix(0.010091145833333334,0,0,0.010091145833333334,70.45638020833334,0)" xlink:href="#ac"/><use transform="matrix(0.010091145833333334,0,0,0.010091145833333334,82.66666666666667,0)" xlink:href="#T"/><use transform="matrix(0.010091145833333334,0,0,0.010091145833333334,94.47330729166667,0)" xlink:href="#P"/></g><g id="D"><use transform="matrix(0.010091145833333334,0,0,0.010091145833333334,0,0)" xlink:href="#S"/><use transform="matrix(0.010091145833333334,0,0,0.010091145833333334,5.005208333333334,0)" xlink:href="#Y"/></g><g id="E"><use transform="matrix(0.010091145833333334,0,0,0.010091145833333334,0,0)" xlink:href="#T"/><use transform="matrix(0.010091145833333334,0,0,0.010091145833333334,11.806640625,0)" xlink:href="#V"/><use transform="matrix(0.010091145833333334,0,0,0.010091145833333334,24.198567708333336,0)" xlink:href="#ae"/><use transform="matrix(0.010091145833333334,0,0,0.010091145833333334,29.20377604166667,0)" xlink:href="#ae"/><use transform="matrix(0.010091145833333334,0,0,0.010091145833333334,34.20898437500001,0)" xlink:href="#P"/><use transform="matrix(0.010091145833333334,0,0,0.010091145833333334,46.2578125,0)" xlink:href="#T"/><use transform="matrix(0.010091145833333334,0,0,0.010091145833333334,58.064453125,0)" xlink:href="#af"/><use transform="matrix(0.010091145833333334,0,0,0.010091145833333334,64.62369791666667,0)" xlink:href="#P"/><use transform="matrix(0.010091145833333334,0,0,0.010091145833333334,76.67252604166667,0)" xlink:href="#W"/></g><g id="F"><use transform="matrix(0.010091145833333334,0,0,0.010091145833333334,0,0)" xlink:href="#ak"/><use transform="matrix(0.010091145833333334,0,0,0.010091145833333334,7.649088541666667,0)" xlink:href="#Q"/><use transform="matrix(0.010091145833333334,0,0,0.010091145833333334,15.086263020833336,0)" xlink:href="#V"/><use transform="matrix(0.010091145833333334,0,0,0.010091145833333334,27.47819010416667,0)" xlink:href="#ai"/></g><g id="G"><use transform="matrix(0.008680555555555556,0,0,0.008680555555555556,0,0)" xlink:href="#ax"/><use transform="matrix(0.008680555555555556,0,0,0.008680555555555556,12.838541666666668,0)" xlink:href="#aF"/><use transform="matrix(0.008680555555555556,0,0,0.008680555555555556,23.63715277777778,0)" xlink:href="#aG"/><use transform="matrix(0.008680555555555556,0,0,0.008680555555555556,33.689236111111114,0)" xlink:href="#aH"/><use transform="matrix(0.008680555555555556,0,0,0.008680555555555556,38.68055555555556,0)" xlink:href="#aI"/><use transform="matrix(0.008680555555555556,0,0,0.008680555555555556,51.953125,0)" xlink:href="#aF"/><use transform="matrix(0.008680555555555556,0,0,0.008680555555555556,62.751736111111114,0)" xlink:href="#aJ"/><use transform="matrix(0.008680555555555556,0,0,0.008680555555555556,73.90625,0)" xlink:href="#ao"/><use transform="matrix(0.008680555555555556,0,0,0.008680555555555556,86.90104166666667,0)" xlink:href="#aK"/><use transform="matrix(0.008680555555555556,0,0,0.008680555555555556,94.66145833333334,0)" xlink:href="#aS"/><use transform="matrix(0.008680555555555556,0,0,0.008680555555555556,107.81250000000001,0)" xlink:href="#aR"/><use transform="matrix(0.008680555555555556,0,0,0.008680555555555556,121.51041666666669,0)" xlink:href="#aG"/><use transform="matrix(0.008680555555555556,0,0,0.008680555555555556,131.56250000000003,0)" xlink:href="#aG"/><use transform="matrix(0.008680555555555556,0,0,0.008680555555555556,141.61458333333337,0)" xlink:href="#aF"/><use transform="matrix(0.008680555555555556,0,0,0.008680555555555556,152.41319444444449,0)" xlink:href="#aS"/><use transform="matrix(0.008680555555555556,0,0,0.008680555555555556,165.56423611111114,0)" xlink:href="#aQ"/><use transform="matrix(0.008680555555555556,0,0,0.008680555555555556,177.4305555555556,0)" xlink:href="#aF"/><use transform="matrix(0.008680555555555556,0,0,0.008680555555555556,188.2291666666667,0)" xlink:href="#ax"/></g><g id="H"><use transform="matrix(0.010091145833333334,0,0,0.010091145833333334,0,0)" xlink:href="#Y"/><use transform="matrix(0.010091145833333334,0,0,0.010091145833333334,10.908528645833334,0)" xlink:href="#P"/><use transform="matrix(0.010091145833333334,0,0,0.010091145833333334,22.957356770833336,0)" xlink:href="#ac"/><use transform="matrix(0.010091145833333334,0,0,0.010091145833333334,35.16764322916667,0)" xlink:href="#af"/></g><g id="I"><use transform="matrix(0.010091145833333334,0,0,0.010091145833333334,0,0)" xlink:href="#W"/><use transform="matrix(0.010091145833333334,0,0,0.010091145833333334,12.654296875,0)" xlink:href="#S"/><use transform="matrix(0.010091145833333334,0,0,0.010091145833333334,17.659505208333336,0)" xlink:href="#Q"/><use transform="matrix(0.010091145833333334,0,0,0.010091145833333334,25.0966796875,0)" xlink:href="#P"/><use transform="matrix(0.010091145833333334,0,0,0.010091145833333334,37.1455078125,0)" xlink:href="#T"/><use transform="matrix(0.010091145833333334,0,0,0.010091145833333334,48.9521484375,0)" xlink:href="#ae"/><use transform="matrix(0.010091145833333334,0,0,0.010091145833333334,54.05826822916667,0)" xlink:href="#ab"/></g><path d="M677 24c-213 0-288-135-325-197h-20V0H158v-1490h180v551h14c37-59 106-193 324-193 279 0 474 222 474 576 0 356-194 580-473 580zm-27-161c209 0 317-186 317-421 0-232-105-413-317-413-206 0-314 166-314 413 0 249 111 421 314 421" id="aT"/><g id="J"><use transform="matrix(0.010091145833333334,0,0,0.010091145833333334,0,0)" xlink:href="#aT"/><use transform="matrix(0.010091145833333334,0,0,0.010091145833333334,12.856119791666664,0)" xlink:href="#ag"/><use transform="matrix(0.010091145833333334,0,0,0.010091145833333334,24.4609375,0)" xlink:href="#ac"/><use transform="matrix(0.010091145833333334,0,0,0.010091145833333334,36.671223958333336,0)" xlink:href="#aO"/></g><g id="K"><use transform="matrix(0.010091145833333334,0,0,0.010091145833333334,0,0)" xlink:href="#ag"/><use transform="matrix(0.010091145833333334,0,0,0.010091145833333334,11.604817708333334,0)" xlink:href="#T"/><use transform="matrix(0.010091145833333334,0,0,0.010091145833333334,23.411458333333336,0)" xlink:href="#T"/><use transform="matrix(0.010091145833333334,0,0,0.010091145833333334,35.218098958333336,0)" xlink:href="#V"/><use transform="matrix(0.010091145833333334,0,0,0.010091145833333334,47.61002604166667,0)" xlink:href="#ah"/><use transform="matrix(0.010091145833333334,0,0,0.010091145833333334,59.83040364583334,0)" xlink:href="#ac"/><use transform="matrix(0.010091145833333334,0,0,0.010091145833333334,72.04069010416667,0)" xlink:href="#af"/></g><g id="L"><use transform="matrix(0.010091145833333334,0,0,0.010091145833333334,0,0)" xlink:href="#V"/><use transform="matrix(0.010091145833333334,0,0,0.010091145833333334,12.391927083333334,0)" xlink:href="#Q"/></g><path d="M180 0v-1490h901v168H370v510h643v168H370V0H180" id="aU"/><g id="M"><use transform="matrix(0.010091145833333334,0,0,0.010091145833333334,0,0)" xlink:href="#aU"/><use transform="matrix(0.010091145833333334,0,0,0.010091145833333334,12.2001953125,0)" xlink:href="#O"/><use transform="matrix(0.010091145833333334,0,0,0.010091145833333334,25.4599609375,0)" xlink:href="#U"/></g><g id="N"><use transform="matrix(0.008680555555555556,0,0,0.008680555555555556,0,0)" xlink:href="#ax"/><use transform="matrix(0.008680555555555556,0,0,0.008680555555555556,12.838541666666668,0)" xlink:href="#aF"/><use transform="matrix(0.008680555555555556,0,0,0.008680555555555556,23.63715277777778,0)" xlink:href="#aG"/><use transform="matrix(0.008680555555555556,0,0,0.008680555555555556,33.689236111111114,0)" xlink:href="#aH"/><use transform="matrix(0.008680555555555556,0,0,0.008680555555555556,38.68055555555556,0)" xlink:href="#aI"/><use transform="matrix(0.008680555555555556,0,0,0.008680555555555556,51.953125,0)" xlink:href="#aF"/><use transform="matrix(0.008680555555555556,0,0,0.008680555555555556,62.751736111111114,0)" xlink:href="#aJ"/><use transform="matrix(0.008680555555555556,0,0,0.008680555555555556,74.42708333333334,0)" xlink:href="#aF"/><use transform="matrix(0.008680555555555556,0,0,0.008680555555555556,85.22569444444446,0)" xlink:href="#ax"/></g></defs></g></svg>