<svg xmlns="http://www.w3.org/2000/svg" xmlns:xlink="http://www.w3.org/1999/xlink" xmlns:lucid="lucid" width="2659.25" height="770.33"><g transform="translate(1198.7500000377795 -314.5833333250122)" lucid:page-tab-id="onZ-gAoYT~go"><path d="M-1500 0h3000v2500h-3000z" fill="#fff"/><path d="M-1197.75 780V537.83a6 6 0 0 1 6-6h34V780z" stroke="#3a414a" fill="#6db1ff"/><path d="M-1157.74 1084.42h-34a6 6 0 0 1-6-6V780h40z" stroke="#3a414a" fill="#b8f5ed"/><path d="M-1157.74 531.83H1454a6 6 0 0 1 6 6V780h-2617.74zM1460 780v298.42a6 6 0 0 1-6 6h-2611.74V780z" stroke="#3a414a" fill="none"/><use xlink:href="#a" transform="matrix(-1.8369701987210297e-16,-1,1,-1.8369701987210297e-16,-1197.7499999999382,779.9999999999999) translate(43.78597005208334 28.017903645833332)"/><use xlink:href="#b" transform="matrix(-1.8369701987210297e-16,-1,1,-1.8369701987210297e-16,-1197.7499999999382,779.9999999999999) translate(123.48583984375 28.017903645833332)"/><use xlink:href="#c" transform="matrix(-1.8369701987210297e-16,-1,1,-1.8369701987210297e-16,-1197.749999999938,1084.416666666667) translate(102.43277994791667 28.017903645833332)"/><path d="M-1197.75 323.58a8 8 0 0 1 8-8h472.17a8 8 0 0 1 8 8v104a8 8 0 0 1-8 8h-472.17a8 8 0 0 1-8-8z" stroke="#6f7681" stroke-width="2" fill="#f2f3f5"/><use xlink:href="#d" transform="matrix(1,0,0,1,-1192.189,321.14433333333335) translate(12.977 63.603833333333334)"/><use xlink:href="#e" transform="matrix(1,0,0,1,-1192.189,321.14433333333335) translate(83.5629375 63.603833333333334)"/><use xlink:href="#f" transform="matrix(1,0,0,1,-1192.189,321.14433333333335) translate(194.22700000000003 63.603833333333334)"/><path d="M-880 610.43a8 8 0 0 1 8-8h144.37a8 8 0 0 1 8 8v104a8 8 0 0 1-8 8H-872a8 8 0 0 1-8-8z" stroke="#ff80df" stroke-width="2" fill="#cfe4ff"/><use xlink:href="#g" transform="matrix(1,0,0,1,-874.439,607.993578125) translate(51.08902994791666 37.353833333333334)"/><use xlink:href="#h" transform="matrix(1,0,0,1,-874.439,607.993578125) translate(35.023925781249986 62.359692708333334)"/><use xlink:href="#i" transform="matrix(1,0,0,1,-874.439,607.993578125) translate(35.18033854166667 87.36555208333334)"/><path d="M-1097.75 932.42a8 8 0 0 1 8-8h144.37a8 8 0 0 1 8 8v104a8 8 0 0 1-8 8h-144.37a8 8 0 0 1-8-8z" stroke="#ff80df" stroke-width="2" fill="#b8f5ed"/><use xlink:href="#j" transform="matrix(1,0,0,1,-1092.1890000000003,929.9776666666668) translate(26.607910156249996 37.353833333333334)"/><use xlink:href="#k" transform="matrix(1,0,0,1,-1092.1890000000003,929.9776666666668) translate(82.59358723958333 37.353833333333334)"/><use xlink:href="#h" transform="matrix(1,0,0,1,-1092.1890000000003,929.9776666666668) translate(35.023925781249986 62.359692708333334)"/><use xlink:href="#i" transform="matrix(1,0,0,1,-1092.1890000000003,929.9776666666668) translate(35.18033854166667 87.36555208333334)"/><path d="M-1005.64 881.68l-1.74 3-1.56 3-1.4 2.96-1.25 2.98-1.1 3-1 3.04-.86 3.1-.74 3.16-.62 3.24-.5 3.35-.36 3.5-.23 3.6-.08 3.32-.95-.02.07-3.32.23-3.67.37-3.5.5-3.4.63-3.28.75-3.2.87-3.13 1-3.1 1.12-3.03 1.27-3 1.4-3.02 1.6-3.02 1.75-3.05.2-.33h1.13zm147.4-141.87l-.24 1.33-.75 3.2-.88 3.13-1 3.08-1.14 3.04-1.26 3-1.42 3.02-1.58 3.02-1.76 3.05-1.96 3.1-2.2 3.14-2.46 3.25-2.8 3.37-3.17 3.54-3.68 3.75-4.32 4.07-5.2 4.5-6.57 5.17-8.93 6.48-38.88 24.9-3.94 2.6h-1.73l5.15-3.4 38.86-24.88 8.9-6.46 6.53-5.15 5.18-4.47 4.3-4.03 3.66-3.72 3.15-3.5 2.78-3.33 2.44-3.22 2.17-3.12 1.93-3.06 1.74-3 1.56-3 1.4-2.96 1.25-2.97 1.12-3 .98-3.05.87-3.1.74-3.15.24-1.3z" stroke="#000" stroke-width=".05"/><path d="M-1017.08 922.9v.52h-.96v-.53z"/><path stroke="#000" stroke-width=".05"/><path d="M-854.04 739.68l-9.23-.87 5.97-13.76z"/><path d="M-853.43 740.22l-10.53-1 6.8-15.7zm-9.14-1.82l7.93.75-2.8-12.58z" stroke="#000" stroke-width=".05"/><use xlink:href="#l" transform="matrix(1,0,0,1,-1102.8149740902431,833.5303396039419) translate(0.0049999999999954525 17.22222222222222)"/><use xlink:href="#m" transform="matrix(1,0,0,1,-1102.8149740902431,833.5303396039419) translate(92.79145833333334 43.034722222222214)"/><path d="M-955.2 882.95l-1.7 2.94-1.5 2.9-1.37 2.9-1.22 2.9-1.08 2.92-.96 2.95-.84 3-.72 3.06-.13.7-.93-.18.13-.7.73-3.12.85-3.03.97-3 1.1-2.95 1.24-2.94 1.38-2.92 1.54-2.95 1.7-2.97 1.03-1.6h1.14zm68.3-57.23h1.2l-12.56 7.8h-1.8l13.15-8.17zm87.55-101.77l-.06 3.18-.24 3.53-.35 3.4-.48 3.27-.6 3.18-.73 3.12-.86 3.03-.97 3-1.1 2.95-1.24 2.94-1.38 2.94-1.54 2.94-1.7 2.97-1.92 3-2.14 3.08-2.4 3.16-2.7 3.28-3.1 3.43-3.56 3.64-4.17 3.9-4.96 4.28-6.14 4.85-8.04 5.83-2.04 1.35h-1.72l3.22-2.12 8-5.8 6.12-4.84 4.94-4.26 4.13-3.87 3.54-3.6 3.07-3.4 2.7-3.25 2.38-3.13 2.1-3.04 1.9-2.98 1.7-2.94 1.52-2.9 1.37-2.9 1.22-2.9 1.07-2.93.96-2.95.84-3 .72-3.06.6-3.15.46-3.24.36-3.35.22-3.5.06-3.15z" stroke="#000" stroke-width=".05"/><path d="M-799.35 723.96l-.95-.02v-.5h.96z"/><path stroke="#000" stroke-width=".05"/><path d="M-960.63 908.06l-6 13.75-3.22-14.64z"/><path d="M-959.93 907.65l-6.86 15.7-3.66-16.73zm-6.56 12.63l5.17-11.8-7.92-.8z" stroke="#000" stroke-width=".05"/><use xlink:href="#n" transform="matrix(1,0,0,1,-886.9056903153123,804.21296945101) translate(0 17.22222222222222)"/><path d="M-640 600.5a8 8 0 0 1 8-8h144.37a8 8 0 0 1 8 8v123.86a8 8 0 0 1-8 8H-632a8 8 0 0 1-8-8z" stroke="#ff80df" stroke-width="2" fill="#cfe4ff"/><use xlink:href="#g" transform="matrix(1,0,0,1,-634.439,598.0639296875446) translate(51.08902994791666 27.760083333333334)"/><use xlink:href="#h" transform="matrix(1,0,0,1,-634.439,598.0639296875446) translate(35.023925781249986 52.76594270833334)"/><use xlink:href="#o" transform="matrix(1,0,0,1,-634.439,598.0639296875446) translate(14.039388020833325 77.77180208333334)"/><use xlink:href="#p" transform="matrix(1,0,0,1,-634.439,598.0639296875446) translate(99.49121093749999 77.77180208333334)"/><use xlink:href="#q" transform="matrix(1,0,0,1,-634.439,598.0639296875446) translate(36.15413411458333 102.77766145833334)"/><use xlink:href="#r" transform="matrix(1,0,0,1,-634.439,598.0639296875446) translate(26.850097656249996 127.78352083333334)"/><path d="M-718.13 662.43h60.75" stroke="#000" stroke-linejoin="round" fill="none"/><path d="M-718.1 662.9h-.53v-.94h.52z" stroke="#000" stroke-width=".05"/><path d="M-642.62 662.43l-14.26 4.64v-9.27z" stroke="#000"/><path d="M-346.22 607.23a10.7 10.7 0 0 1 12.8 0l67.4 50.4a6 6 0 0 1 0 9.6l-67.4 50.4a10.7 10.7 0 0 1-12.8 0l-67.38-50.4a6 6 0 0 1 0-9.6z" stroke="#ff80df" stroke-width="2" fill="#cfe4ff"/><use xlink:href="#s" transform="matrix(1,0,0,1,-414.439,607.993578125) translate(23.888346354166654 38.86604427083333)"/><use xlink:href="#h" transform="matrix(1,0,0,1,-414.439,607.993578125) translate(46.15950520833332 38.86604427083333)"/><use xlink:href="#t" transform="matrix(1,0,0,1,-414.439,607.993578125) translate(35.18033854166667 63.871903645833335)"/><use xlink:href="#u" transform="matrix(1,0,0,1,-414.439,607.993578125) translate(51.26057942708333 88.87776302083336)"/><path d="M-478.13 662.43h44.75" stroke="#000" stroke-linejoin="round" fill="none"/><path d="M-478.1 662.9h-.53v-.94h.52z" stroke="#000" stroke-width=".05"/><path d="M-418.62 662.43l-14.26 4.64v-9.27z" stroke="#000"/><path d="M-420 932.42a8 8 0 0 1 8-8h144.37a8 8 0 0 1 8 8v104a8 8 0 0 1-8 8H-412a8 8 0 0 1-8-8z" stroke="#ff80df" stroke-width="2" fill="#b8f5ed"/><use xlink:href="#v" transform="matrix(1,0,0,1,-414.439,929.9776666666668) translate(22.273763020833332 37.353833333333334)"/><use xlink:href="#w" transform="matrix(1,0,0,1,-414.439,929.9776666666668) translate(60.155924479166664 37.353833333333334)"/><use xlink:href="#x" transform="matrix(1,0,0,1,-414.439,929.9776666666668) translate(25.08414713541666 62.359692708333334)"/><use xlink:href="#y" transform="matrix(1,0,0,1,-414.439,929.9776666666668) translate(97.70003255208334 62.359692708333334)"/><use xlink:href="#z" transform="matrix(1,0,0,1,-414.439,929.9776666666668) translate(32.64241536458333 87.36555208333334)"/><path d="M-339.34 907.03h-.95V882.7h.96zm0-71.64h-.95v-2.55h.96zm0-24.06h-.95v-90.06h.96z" stroke="#000" stroke-width=".05"/><path d="M-339.8 720.77l.46-.03v.55h-.95v-.56z"/><path stroke="#000" stroke-width=".05"/><path d="M-339.8 921.8l-4.65-14.27h9.27z"/><path d="M-339.8 923.34l-5.3-16.28h10.58zm-4-15.33l4 12.26 3.97-12.25z" stroke="#000" stroke-width=".05"/><use xlink:href="#A" transform="matrix(1,0,0,1,-352.0395195315389,811.3411385636095) translate(0 17.22222222222222)"/><use xlink:href="#B" transform="matrix(1,0,0,1,-457.09160286487224,835.3851334473185) translate(0.0049999999999954525 17.22222222222222)"/><use xlink:href="#C" transform="matrix(1,0,0,1,-457.09160286487224,835.3851334473185) translate(71.12479166666667 43.034722222222214)"/><path d="M-100 588a8 8 0 0 1 8-8H52.37a8 8 0 0 1 8 8v148.87a8 8 0 0 1-8 8H-92a8 8 0 0 1-8-8z" stroke="#ff80df" stroke-width="2" fill="#cfe4ff"/><use xlink:href="#D" transform="matrix(1,0,0,1,-94.439,585.561) translate(42.50146484375 23.85725520833332)"/><use xlink:href="#E" transform="matrix(1,0,0,1,-94.439,585.561) translate(2.106608072916668 48.86311458333333)"/><use xlink:href="#F" transform="matrix(1,0,0,1,-94.439,585.561) translate(17.288736979166668 73.86897395833333)"/><use xlink:href="#G" transform="matrix(1,0,0,1,-94.439,585.561) translate(119.40104166666667 73.86897395833333)"/><use xlink:href="#H" transform="matrix(1,0,0,1,-94.439,585.561) translate(50.55419921875 98.87483333333333)"/><use xlink:href="#h" transform="matrix(1,0,0,1,-94.439,585.561) translate(35.023925781249986 123.88069270833333)"/><use xlink:href="#i" transform="matrix(1,0,0,1,-94.439,585.561) translate(35.18033854166667 148.88655208333336)"/><path d="M-197.6 662.9h-64.53v-.94h64.52zm80.22 0H-166v-.94h48.62z" stroke="#000" stroke-width=".05"/><path d="M-262.1 662.9h-.57l.04-.47-.04-.47h.56z"/><path stroke="#000" stroke-width=".05"/><path d="M-102.62 662.43l-14.26 4.64v-9.27z"/><path d="M-101.08 662.43l-16.28 5.3v-10.6zm-15.33 3.98l12.25-3.97-12.26-3.98z" stroke="#000" stroke-width=".05"/><use xlink:href="#I" transform="matrix(1,0,0,1,-197.6109918470606,651.6773697916666) translate(0 17.22222222222222)"/><path d="M-100 932.42a8 8 0 0 1 8-8H52.37a8 8 0 0 1 8 8v104a8 8 0 0 1-8 8H-92a8 8 0 0 1-8-8z" stroke="#ff80df" stroke-width="2" fill="#b8f5ed"/><use xlink:href="#v" transform="matrix(1,0,0,1,-94.439,929.9776666666668) translate(25.250651041666668 61.197583333333334)"/><use xlink:href="#J" transform="matrix(1,0,0,1,-94.439,929.9776666666668) translate(63.1328125 61.197583333333334)"/><path d="M-19.34 907.03h-.95v-22.57h.96zm0-69.9h-.95v-90.76h.96z" stroke="#000" stroke-width=".05"/><path d="M-19.34 746.38h-.95v-.5h.96z"/><path stroke="#000" stroke-width=".05"/><path d="M-19.8 921.8l-4.65-14.27h9.27z"/><path d="M-19.8 923.34l-5.3-16.28h10.58zm-4-15.33l4 12.26 3.97-12.25z" stroke="#000" stroke-width=".05"/><use xlink:href="#B" transform="matrix(1,0,0,1,-137.09160286487221,837.1367434209332) translate(0.0049999999999954525 17.22222222222222)"/><use xlink:href="#K" transform="matrix(1,0,0,1,-137.09160286487221,837.1367434209332) translate(24.675138888888867 43.034722222222214)"/><path d="M233.78 607.23a10.7 10.7 0 0 1 12.8 0l67.4 50.4a6 6 0 0 1 0 9.6l-67.4 50.4a10.7 10.7 0 0 1-12.8 0l-67.38-50.4a6 6 0 0 1 0-9.6z" stroke="#ff80df" stroke-width="2" fill="#cfe4ff"/><use xlink:href="#s" transform="matrix(1,0,0,1,165.561,607.9935781250446) translate(14.846679687499996 26.363114583333328)"/><use xlink:href="#L" transform="matrix(1,0,0,1,165.561,607.9935781250446) translate(37.117838541666664 26.363114583333328)"/><use xlink:href="#M" transform="matrix(1,0,0,1,165.561,607.9935781250446) translate(100.02604166666666 26.363114583333328)"/><use xlink:href="#N" transform="matrix(1,0,0,1,165.561,607.9935781250446) translate(41.48225911458333 51.368973958333335)"/><use xlink:href="#O" transform="matrix(1,0,0,1,165.561,607.9935781250446) translate(32.7685546875 76.37483333333334)"/><use xlink:href="#P" transform="matrix(1,0,0,1,165.561,607.9935781250446) translate(48.46028645833333 101.38069270833336)"/><path d="M61.88 662.43h84.74" stroke="#000" stroke-linejoin="round" fill="none"/><path d="M61.9 662.9h-.53v-.94h.52z" stroke="#000" stroke-width=".05"/><path d="M161.38 662.43l-14.26 4.64v-9.27z" stroke="#000"/><path d="M420 610.43a8 8 0 0 1 8-8h144.37a8 8 0 0 1 8 8v104a8 8 0 0 1-8 8H428a8 8 0 0 1-8-8z" stroke="#ff80df" stroke-width="2" fill="#cfe4ff"/><use xlink:href="#Q" transform="matrix(1,0,0,1,425.561,607.9935781250073) translate(41.20979817708333 27.135083333333334)"/><use xlink:href="#R" transform="matrix(1,0,0,1,425.561,607.9935781250073) translate(32.38004557291667 52.14094270833334)"/><use xlink:href="#S" transform="matrix(1,0,0,1,425.561,607.9935781250073) translate(31.441569010416668 77.14680208333334)"/><use xlink:href="#T" transform="matrix(1,0,0,1,425.561,607.9935781250073) translate(52.73893229166666 102.15266145833334)"/><path d="M352.4 662.9h-34.53v-.94h34.52zm50.22 0H384v-.94h18.62z" stroke="#000" stroke-width=".05"/><path d="M317.9 662.9h-.57l.04-.47-.04-.47h.56z"/><path stroke="#000" stroke-width=".05"/><path d="M417.38 662.43l-14.26 4.64v-9.27z"/><path d="M418.92 662.43l-16.28 5.3v-10.6zm-15.33 3.98l12.25-3.97-12.26-3.98z" stroke="#000" stroke-width=".05"/><use xlink:href="#I" transform="matrix(1,0,0,1,352.3885581574393,651.6773697916925) translate(0 17.22222222222222)"/><path d="M420 932.42a8 8 0 0 1 8-8h144.37a8 8 0 0 1 8 8v104a8 8 0 0 1-8 8H428a8 8 0 0 1-8-8z" stroke="#ff80df" stroke-width="2" fill="#b8f5ed"/><use xlink:href="#v" transform="matrix(1,0,0,1,425.561,929.9776666666668) translate(25.250651041666668 61.197583333333334)"/><use xlink:href="#J" transform="matrix(1,0,0,1,425.561,929.9776666666668) translate(63.1328125 61.197583333333334)"/><path d="M500.66 907.03h-.95v-10.8h.96zm0-81.05h-.95V723.94h.96z" stroke="#000" stroke-width=".05"/><path d="M500.66 723.95h-.95v-.52h.96z"/><path stroke="#000" stroke-width=".05"/><path d="M500.2 921.8l-4.65-14.27h9.27z"/><path d="M500.2 923.34l-5.3-16.28h10.58zm-4-15.33l4 12.26 3.97-12.25z" stroke="#000" stroke-width=".05"/><g><use xlink:href="#B" transform="matrix(1,0,0,1,264.9487617184612,825.9755603463637) translate(117.96463541666665 17.22222222222222)"/><use xlink:href="#U" transform="matrix(1,0,0,1,264.9487617184612,825.9755603463637) translate(142.63477430555554 43.034722222222214)"/><use xlink:href="#V" transform="matrix(1,0,0,1,264.9487617184612,825.9755603463637) translate(0.0049999999999954525 66.4765625)"/><use xlink:href="#W" transform="matrix(1,0,0,1,264.9487617184612,825.9755603463637) translate(86.4190625 66.4765625)"/><use xlink:href="#X" transform="matrix(1,0,0,1,264.9487617184612,825.9755603463637) translate(144.0284375 66.4765625)"/></g><path d="M581.88 662.43h84.74" stroke="#000" stroke-linejoin="round" fill="none"/><path d="M581.9 662.9h-.53v-.94h.52z" stroke="#000" stroke-width=".05"/><path d="M681.38 662.43l-14.26 4.64v-9.27z" stroke="#000"/><path d="M753.78 607.23a10.7 10.7 0 0 1 12.8 0l67.4 50.4a6 6 0 0 1 0 9.6l-67.4 50.4a10.7 10.7 0 0 1-12.8 0l-67.38-50.4a6 6 0 0 1 0-9.6z" stroke="#ff80df" stroke-width="2" fill="#cfe4ff"/><g><use xlink:href="#Y" transform="matrix(1,0,0,1,685.5610000000003,607.993578125) translate(26.16894531249999 38.86604427083333)"/><use xlink:href="#Z" transform="matrix(1,0,0,1,685.5610000000003,607.993578125) translate(56.250651041666664 38.86604427083333)"/><use xlink:href="#aa" transform="matrix(1,0,0,1,685.5610000000003,607.993578125) translate(30.008626302083332 63.871903645833335)"/><use xlink:href="#ab" transform="matrix(1,0,0,1,685.5610000000003,607.993578125) translate(88.90055338541666 63.871903645833335)"/><use xlink:href="#ac" transform="matrix(1,0,0,1,685.5610000000003,607.993578125) translate(28.873372395833332 88.87776302083336)"/></g><path d="M940 610.43a8 8 0 0 1 8-8h144.37a8 8 0 0 1 8 8v104a8 8 0 0 1-8 8H948a8 8 0 0 1-8-8z" stroke="#ff80df" stroke-width="2" fill="#cfe4ff"/><g><use xlink:href="#ad" transform="matrix(1,0,0,1,945.561,607.9935781250446) translate(51.98714192708333 37.353833333333334)"/><use xlink:href="#S" transform="matrix(1,0,0,1,945.561,607.9935781250446) translate(31.441569010416668 62.359692708333334)"/><use xlink:href="#T" transform="matrix(1,0,0,1,945.561,607.9935781250446) translate(52.73893229166666 87.36555208333334)"/></g><path d="M872.4 662.9h-34.53v-.94h34.52zm50.22 0H904v-.94h18.62z" stroke="#000" stroke-width=".05"/><path d="M837.9 662.9h-.57l.04-.47-.04-.47h.56z"/><path stroke="#000" stroke-width=".05"/><path d="M937.38 662.43l-14.26 4.64v-9.27z"/><path d="M938.92 662.43l-16.28 5.3v-10.6zm-15.33 3.98l12.25-3.97-12.26-3.98z" stroke="#000" stroke-width=".05"/><g><use xlink:href="#I" transform="matrix(1,0,0,1,872.3885581574394,651.6773697916889) translate(0 17.22222222222222)"/></g><path d="M564.8 740.96l.75 1.6.84 1.62.9 1.6 1.03 1.6 1.1 1.6 1.24 1.6 1.33 1.63 1.47 1.64 1.6 1.64 1.77 1.66 1.94 1.67 2.14 1.7 2.35 1.7 2.6 1.73 2.85 1.73 3.17 1.74 3.48 1.74 3.87 1.72 4.27 1.68 4.7 1.64 5.2 1.57 5.66 1.45 6.15 1.3 6.64 1.13 7.06.9 7.43.6 2.32.1v.96l-2.38-.1-7.46-.63-7.1-.9-6.68-1.13-6.2-1.32-5.7-1.46-5.22-1.57-4.75-1.66-4.32-1.7-3.9-1.75-3.53-1.76-3.2-1.75-2.9-1.77-2.62-1.74-2.4-1.74-2.15-1.72-1.97-1.7-1.8-1.68-1.62-1.67-1.5-1.67-1.36-1.65-1.25-1.64-1.13-1.64-1.04-1.63-.94-1.63-.86-1.64-.78-1.65-.7-1.65.9-.37zm195.85-19.68l-.03 1.5-.12 1.93-.2 1.9-.27 1.85-.35 1.8-.42 1.8-.5 1.75-.55 1.74-.63 1.72-.72 1.7-.8 1.7-.9 1.7-.97 1.7-1.08 1.7-1.2 1.72-1.3 1.72-1.43 1.73-1.57 1.75-1.73 1.76-1.9 1.8-2.1 1.8-2.3 1.82-2.55 1.85-2.8 1.88-3.12 1.88-3.43 1.88-3.8 1.9-4.2 1.85-4.63 1.82-5.1 1.78-5.57 1.68-6.08 1.56-6.57 1.4-7 1.17-7.4.95-4.2.35v-.95l4.1-.35 7.36-.93 6.95-1.17 6.52-1.4 6.04-1.53 5.55-1.68 5.06-1.77 4.6-1.8 4.17-1.86 3.76-1.87 3.4-1.87 3.07-1.86 2.78-1.84 2.5-1.82 2.28-1.8 2.07-1.78 1.87-1.76 1.7-1.74 1.55-1.7 1.4-1.72 1.3-1.68 1.16-1.68 1.07-1.67.96-1.66.87-1.65.78-1.67.7-1.67.63-1.67.56-1.7.48-1.72.4-1.73.35-1.78.26-1.82.2-1.85.1-1.9.04-1.47z" stroke="#000" stroke-width=".05"/><path d="M760.65 721.3l-.95-.02v-.54l.5.03.46-.03z"/><path stroke="#000" stroke-width=".05"/><path d="M568.13 738.2l-9.12 1.7 1.96-14.88z"/><path d="M568.86 738.55l-10.4 1.93 2.22-16.97zm-9.3.76l7.84-1.45-6.16-11.32z" stroke="#000" stroke-width=".05"/><g><use xlink:href="#A" transform="matrix(1,0,0,1,648.6784489389944,771.1846525977016) translate(0 17.22222222222222)"/></g><path d="M940 932.42a8 8 0 0 1 8-8h144.37a8 8 0 0 1 8 8v104a8 8 0 0 1-8 8H948a8 8 0 0 1-8-8z" stroke="#ff80df" stroke-width="2" fill="#b8f5ed"/><g><use xlink:href="#v" transform="matrix(1,0,0,1,945.561,929.9776666666668) translate(25.250651041666668 61.197583333333334)"/><use xlink:href="#J" transform="matrix(1,0,0,1,945.561,929.9776666666668) translate(63.1328125 61.197583333333334)"/></g><path d="M1020.66 907.03h-.95v-15.2h.96zm0-82.43h-.95V723.94h.96z" stroke="#000" stroke-width=".05"/><path d="M1020.66 723.95h-.95v-.52h.96z"/><path stroke="#000" stroke-width=".05"/><path d="M1020.2 921.8l-4.65-14.27h9.27z"/><path d="M1020.2 923.34l-5.3-16.28h10.58zm-4-15.33l4 12.26 3.97-12.25z" stroke="#000" stroke-width=".05"/><g><use xlink:href="#ae" transform="matrix(1,0,0,1,904.9682929684611,824.6040600922206) translate(4.791245117187472 16.216875)"/><use xlink:href="#af" transform="matrix(1,0,0,1,904.9682929684611,824.6040600922206) translate(69.13970703125 40.5225703125)"/><use xlink:href="#V" transform="matrix(1,0,0,1,904.9682929684611,824.6040600922206) translate(0.0049999999999954525 63.462953125)"/><use xlink:href="#W" transform="matrix(1,0,0,1,904.9682929684611,824.6040600922206) translate(86.4190625 63.462953125)"/><use xlink:href="#ag" transform="matrix(1,0,0,1,904.9682929684611,824.6040600922206) translate(144.0284375 63.462953125)"/></g><path d="M1240 610.43a8 8 0 0 1 8-8h144.37a8 8 0 0 1 8 8v104a8 8 0 0 1-8 8H1248a8 8 0 0 1-8-8z" stroke="#ff80df" stroke-width="2" fill="#cfe4ff"/><g><use xlink:href="#ah" transform="matrix(1,0,0,1,1245.5610000000001,607.9935781250446) translate(49.91341145833333 38.86604427083333)"/><use xlink:href="#ai" transform="matrix(1,0,0,1,1245.5610000000001,607.9935781250446) translate(19.998209635416668 63.871903645833335)"/><use xlink:href="#aj" transform="matrix(1,0,0,1,1245.5610000000001,607.9935781250446) translate(111.05061848958333 63.871903645833335)"/><use xlink:href="#ak" transform="matrix(1,0,0,1,1245.5610000000001,607.9935781250446) translate(11.51660156250001 88.87776302083336)"/></g><path d="M1101.88 662.43h120.74" stroke="#000" stroke-linejoin="round" fill="none"/><path d="M1101.9 662.9h-.53v-.94h.52z" stroke="#000" stroke-width=".05"/><path d="M1237.38 662.43l-14.26 4.64v-9.27z" stroke="#000"/><defs><path d="M657 26c-323 0-524-166-541-416h195c15 169 171 246 346 246 202 0 356-106 356-265 5-203-294-238-475-293-239-73-380-191-380-389 0-252 224-419 512-419 294 0 499 171 508 396H992c-17-145-151-228-328-228-193 0-321 102-321 242 0 156 175 211 284 241l149 41c160 44 422 134 422 412 0 244-197 432-541 432" id="al"/><path d="M628 24c-324 0-524-230-524-574 0-343 198-582 503-582 237 0 487 146 487 559v75H286c9 234 145 362 343 362 132 0 231-58 273-172l174 48C1024-91 857 24 628 24zM287-650h624c-17-190-120-322-304-322-192 0-309 151-320 322" id="am"/><path d="M158 0v-1118h174v172h12c41-113 157-188 290-188 26 0 70 2 91 3v181c-11-2-60-10-108-10-161 0-279 109-279 260V0H158" id="an"/><path d="M481 0L54-1118h197c107 314 236 620 325 951 87-331 217-637 324-951h197L670 0H481" id="ao"/><path d="M158 0v-1118h180V0H158zm91-1301c-68 0-125-53-125-119s57-119 125-119c69 0 126 53 126 119s-57 119-126 119" id="ap"/><path d="M613 24c-304 0-509-231-509-576 0-350 205-580 509-580 216 0 392 114 453 309l-173 49c-33-115-133-197-280-197-223 0-326 196-326 419 0 220 103 415 326 415 150 0 252-85 285-206l172 49C1010-95 832 24 613 24" id="aq"/><g id="a"><use transform="matrix(0.010091145833333332,0,0,0.010091145833333332,0,0)" xlink:href="#al"/><use transform="matrix(0.010091145833333332,0,0,0.010091145833333332,13.259765624999998,0)" xlink:href="#am"/><use transform="matrix(0.010091145833333332,0,0,0.010091145833333332,25.308593749999996,0)" xlink:href="#an"/><use transform="matrix(0.010091145833333332,0,0,0.010091145833333332,33.411783854166664,0)" xlink:href="#ao"/><use transform="matrix(0.010091145833333332,0,0,0.010091145833333332,45.02669270833333,0)" xlink:href="#ap"/><use transform="matrix(0.010091145833333332,0,0,0.010091145833333332,50.031901041666664,0)" xlink:href="#aq"/><use transform="matrix(0.010091145833333332,0,0,0.010091145833333332,61.83854166666667,0)" xlink:href="#am"/></g><path d="M180 0v-1490h510c348 0 508 209 508 474 0 266-160 477-507 477H370V0H180zm190-706h312c236 0 327-133 327-310 0-176-91-307-329-307H370v617" id="ar"/><path d="M613 24c-304 0-509-231-509-576 0-350 205-580 509-580 305 0 511 230 511 580 0 345-206 576-511 576zm0-161c226 0 329-195 329-415 0-222-103-419-329-419-223 0-326 196-326 419 0 220 103 415 326 415" id="as"/><path d="M577 24c-279 0-473-224-473-580 0-354 195-576 474-576 218 0 287 134 324 193h14v-551h180V0H922v-173h-20C865-111 790 24 577 24zm27-161c203 0 314-172 314-421 0-247-108-413-314-413-212 0-317 181-317 413 0 235 108 421 317 421" id="at"/><g id="b"><use transform="matrix(0.010091145833333332,0,0,0.010091145833333332,0,0)" xlink:href="#ar"/><use transform="matrix(0.010091145833333332,0,0,0.010091145833333332,13.199218749999998,0)" xlink:href="#an"/><use transform="matrix(0.010091145833333332,0,0,0.010091145833333332,20.636393229166664,0)" xlink:href="#as"/><use transform="matrix(0.010091145833333332,0,0,0.010091145833333332,32.624674479166664,0)" xlink:href="#ao"/><use transform="matrix(0.010091145833333332,0,0,0.010091145833333332,44.23958333333333,0)" xlink:href="#ap"/><use transform="matrix(0.010091145833333332,0,0,0.010091145833333332,49.244791666666664,0)" xlink:href="#at"/><use transform="matrix(0.010091145833333332,0,0,0.010091145833333332,61.89908854166667,0)" xlink:href="#am"/><use transform="matrix(0.010091145833333332,0,0,0.010091145833333332,73.94791666666666,0)" xlink:href="#an"/></g><path d="M52 0l541-1490h220L1361 0h-200l-149-416H398L254 0H52zm404-582h497c-103-290-145-390-251-756-108 377-145 460-246 756" id="au"/><path d="M538 24C308 24 148-78 108-271l171-41c32 123 123 178 257 178 156 0 256-77 256-169 0-77-54-128-164-154l-186-44c-203-48-300-148-300-305 0-192 176-326 414-326 230 0 351 112 402 269l-163 42c-31-80-94-158-238-158-133 0-233 69-233 162 0 83 57 129 188 160l169 40c203 48 298 149 298 302 0 196-179 339-441 339" id="av"/><path d="M180 0v-1490h510c348 0 508 194 508 460 0 198-88 351-276 417L1256 0h-220L726-579c-117 2-238 0-356 1V0H180zm190-747h312c235 0 327-108 327-283 0-177-92-293-329-293H370v576" id="aw"/><path d="M783 20c-382 0-661-292-661-764 0-473 279-766 661-766 302 0 548 182 601 489h-190c-42-204-217-313-411-313-268 0-476 208-476 590 0 381 209 588 476 588 195 0 369-110 411-313h190c-52 303-296 489-601 489" id="ax"/><g id="c"><use transform="matrix(0.010091145833333332,0,0,0.010091145833333332,0,0)" xlink:href="#au"/><use transform="matrix(0.010091145833333332,0,0,0.010091145833333332,14.258789062499998,0)" xlink:href="#aq"/><use transform="matrix(0.010091145833333332,0,0,0.010091145833333332,26.065429687499996,0)" xlink:href="#aq"/><use transform="matrix(0.010091145833333332,0,0,0.010091145833333332,37.87207031249999,0)" xlink:href="#am"/><use transform="matrix(0.010091145833333332,0,0,0.010091145833333332,49.92089843749999,0)" xlink:href="#av"/><use transform="matrix(0.010091145833333332,0,0,0.010091145833333332,60.82942708333333,0)" xlink:href="#av"/><use transform="matrix(0.010091145833333332,0,0,0.010091145833333332,71.73795572916666,0)" xlink:href="#aw"/><use transform="matrix(0.010091145833333332,0,0,0.010091145833333332,85.03808593749999,0)" xlink:href="#ax"/></g><path d="M140 405l46-156c120 36 205 19 263-150l32-93L54-1118h197c107 313 237 620 324 950 87-331 219-637 326-950h196L606 167c-68 178-176 259-334 259-64 0-113-12-132-21" id="ay"/><path d="M338-670V0H158v-1118h173l1 207c72-158 192-221 342-221 226 0 378 139 378 422V0H872v-695c0-172-96-275-252-275-161 0-282 109-282 300" id="az"/><g id="d"><use transform="matrix(0.013020833333333334,0,0,0.013020833333333334,0,0)" xlink:href="#al"/><use transform="matrix(0.013020833333333334,0,0,0.013020833333333334,17.109375,0)" xlink:href="#ay"/><use transform="matrix(0.013020833333333334,0,0,0.013020833333333334,32.09635416666667,0)" xlink:href="#az"/><use transform="matrix(0.013020833333333334,0,0,0.013020833333333334,47.85156250000001,0)" xlink:href="#aq"/></g><path d="M645 0H180v-1490h484c435 0 692 280 692 742 0 466-257 748-711 748zM370-168h263c363 0 539-218 539-580 0-358-176-574-521-574H370v1154" id="aA"/><path d="M338-1490V0H158v-1490h180" id="aB"/><g id="e"><use transform="matrix(0.013020833333333334,0,0,0.013020833333333334,0,0)" xlink:href="#aA"/><use transform="matrix(0.013020833333333334,0,0,0.013020833333333334,19.244791666666668,0)" xlink:href="#am"/><use transform="matrix(0.013020833333333334,0,0,0.013020833333333334,34.79166666666667,0)" xlink:href="#aB"/><use transform="matrix(0.013020833333333334,0,0,0.013020833333333334,41.25000000000001,0)" xlink:href="#ap"/><use transform="matrix(0.013020833333333334,0,0,0.013020833333333334,47.70833333333334,0)" xlink:href="#ao"/><use transform="matrix(0.013020833333333334,0,0,0.013020833333333334,62.17447916666667,0)" xlink:href="#am"/><use transform="matrix(0.013020833333333334,0,0,0.013020833333333334,77.72135416666667,0)" xlink:href="#an"/><use transform="matrix(0.013020833333333334,0,0,0.013020833333333334,88.17708333333334,0)" xlink:href="#ay"/></g><path d="M1096 418H916v-591h-14C865-111 790 24 577 24c-279 0-473-224-473-580 0-354 195-576 474-576 218 0 287 134 324 193h20v-179h174V418zM604-137c203 0 314-172 314-421 0-247-108-413-314-413-212 0-317 181-317 413 0 235 108 421 317 421" id="aC"/><path d="M537 14c-226 0-379-139-379-422v-710h180v695c0 172 97 275 253 275 160 0 281-109 281-300v-670h181V0H879v-209C806-46 684 14 537 14" id="aD"/><path d="M598-1118v154H368v674c0 100 37 144 132 144 23 0 62-6 92-12L629-6c-37 13-88 20-134 20-193 0-307-107-307-290v-688H20v-154h168v-266h180v266h230" id="aE"/><g id="f"><use transform="matrix(0.013020833333333334,0,0,0.013020833333333334,0,0)" xlink:href="#aw"/><use transform="matrix(0.013020833333333334,0,0,0.013020833333333334,16.770833333333336,0)" xlink:href="#am"/><use transform="matrix(0.013020833333333334,0,0,0.013020833333333334,32.317708333333336,0)" xlink:href="#aC"/><use transform="matrix(0.013020833333333334,0,0,0.013020833333333334,48.645833333333336,0)" xlink:href="#aD"/><use transform="matrix(0.013020833333333334,0,0,0.013020833333333334,64.4140625,0)" xlink:href="#am"/><use transform="matrix(0.013020833333333334,0,0,0.013020833333333334,79.9609375,0)" xlink:href="#av"/><use transform="matrix(0.013020833333333334,0,0,0.013020833333333334,94.03645833333333,0)" xlink:href="#aE"/></g><path d="M471 26C259 26 90-98 90-318c0-256 228-303 435-329 202-27 287-16 287-108 0-139-79-219-234-219-161 0-248 86-283 164l-173-57c86-203 278-265 451-265 150 0 419 46 419 395V0H815v-152h-12C765-73 660 26 471 26zm31-159c199 0 310-134 310-271v-155c-30 35-226 55-295 64-131 17-246 59-246 186 0 116 97 176 231 176" id="aF"/><g id="g"><use transform="matrix(0.010091145833333334,0,0,0.010091145833333334,0,0)" xlink:href="#al"/><use transform="matrix(0.010091145833333334,0,0,0.010091145833333334,13.259765625,0)" xlink:href="#aF"/><use transform="matrix(0.010091145833333334,0,0,0.010091145833333334,24.561848958333336,0)" xlink:href="#ao"/><use transform="matrix(0.010091145833333334,0,0,0.010091145833333334,35.77311197916667,0)" xlink:href="#am"/></g><g id="h"><use transform="matrix(0.010091145833333334,0,0,0.010091145833333334,0,0)" xlink:href="#aA"/><use transform="matrix(0.010091145833333334,0,0,0.010091145833333334,14.914713541666668,0)" xlink:href="#am"/><use transform="matrix(0.010091145833333334,0,0,0.010091145833333334,26.963541666666668,0)" xlink:href="#aB"/><use transform="matrix(0.010091145833333334,0,0,0.010091145833333334,31.968750000000004,0)" xlink:href="#ap"/><use transform="matrix(0.010091145833333334,0,0,0.010091145833333334,36.973958333333336,0)" xlink:href="#ao"/><use transform="matrix(0.010091145833333334,0,0,0.010091145833333334,48.18522135416667,0)" xlink:href="#am"/><use transform="matrix(0.010091145833333334,0,0,0.010091145833333334,60.23404947916667,0)" xlink:href="#an"/><use transform="matrix(0.010091145833333334,0,0,0.010091145833333334,68.33723958333334,0)" xlink:href="#ay"/></g><g id="i"><use transform="matrix(0.010091145833333334,0,0,0.010091145833333334,0,0)" xlink:href="#aw"/><use transform="matrix(0.010091145833333334,0,0,0.010091145833333334,12.997395833333334,0)" xlink:href="#am"/><use transform="matrix(0.010091145833333334,0,0,0.010091145833333334,25.046223958333336,0)" xlink:href="#aC"/><use transform="matrix(0.010091145833333334,0,0,0.010091145833333334,37.700520833333336,0)" xlink:href="#aD"/><use transform="matrix(0.010091145833333334,0,0,0.010091145833333334,49.9208984375,0)" xlink:href="#am"/><use transform="matrix(0.010091145833333334,0,0,0.010091145833333334,61.9697265625,0)" xlink:href="#av"/><use transform="matrix(0.010091145833333334,0,0,0.010091145833333334,72.87825520833333,0)" xlink:href="#aE"/></g><g id="j"><use transform="matrix(0.010091145833333334,0,0,0.010091145833333334,0,0)" xlink:href="#al"/><use transform="matrix(0.010091145833333334,0,0,0.010091145833333334,13.259765625,0)" xlink:href="#am"/><use transform="matrix(0.010091145833333334,0,0,0.010091145833333334,25.30859375,0)" xlink:href="#az"/><use transform="matrix(0.010091145833333334,0,0,0.010091145833333334,37.518880208333336,0)" xlink:href="#at"/></g><path d="M409 0L70-1118h191c89 329 165 560 243 925 75-353 154-601 240-925h192c85 325 161 564 235 922 77-354 157-598 244-922h191L1267 0h-179c-86-307-176-590-250-913C763-588 675-308 588 0H409" id="aG"/><g id="k"><use transform="matrix(0.010091145833333334,0,0,0.010091145833333334,0,0)" xlink:href="#az"/><use transform="matrix(0.010091145833333334,0,0,0.010091145833333334,12.210286458333334,0)" xlink:href="#am"/><use transform="matrix(0.010091145833333334,0,0,0.010091145833333334,23.8857421875,0)" xlink:href="#aG"/></g><path fill="#333" d="M659 0H135v-1490h529c448 0 721 280 721 744 0 466-273 746-726 746zM440-263h204c287 0 437-148 437-483 0-333-150-481-435-481H440v964" id="aH"/><path fill="#333" d="M135 0v-1490h997v253H440v360h640v249H440v375h694V0H135" id="aI"/><path fill="#333" d="M135 0v-1490h305v1237h643V0H135" id="aJ"/><path fill="#333" d="M440-1490V0H135v-1490h305" id="aK"/><path fill="#333" d="M571 0L49-1490h339c138 427 271 775 384 1244 111-471 237-815 371-1244h337L970 0H571" id="aL"/><path fill="#333" d="M135 0v-1490h581c339 0 533 192 533 485 0 204-94 351-264 424L1302 0H964L680-532H440V0H135zm305-779h220c186 0 274-77 274-226 0-150-88-233-275-233H440v459" id="aM"/><path fill="#333" d="M601 0v-560L49-1490h357l252 464c38 68 67 130 97 208 96-243 225-446 337-672h356L905-560V0H601" id="aN"/><path fill="#333" d="M975 0v231H0V0h975" id="aO"/><path fill="#333" d="M789 20C394 20 94-260 94-744c0-487 300-766 695-766s695 279 695 766c0 264-89 467-233 597l215 271h-285L1058-29C976 3 886 20 789 20zm-94-532h261l108 139c70-83 110-208 110-371 0-321-154-495-385-495s-385 175-385 495c0 356 184 537 481 482" id="aP"/><path fill="#333" d="M750 21c-371 0-615-218-615-544v-967h305v942c0 174 123 299 310 299s309-125 309-299v-942h306v967c0 326-247 544-615 544" id="aQ"/><path fill="#333" d="M681 22C323 22 94-145 85-462h297c10 151 131 226 296 226 163 0 271-77 271-190 0-102-95-149-257-189l-164-41c-252-61-403-188-403-405 0-269 236-449 560-449 330 0 546 183 551 445H941c-11-119-106-188-259-188-156 0-244 72-244 172-3 156 226 185 373 221 250 61 445 186 445 436 0 271-213 446-575 446" id="aR"/><path fill="#333" d="M75-1237v-253h1217v253H837V0H531v-1237H75" id="aS"/><path fill="#333" d="M135 0v-1490h340l471 754c59 97 122 210 187 365-32-387-14-721-19-1119h312V0h-341C855-382 627-689 427-1113c32 420 16 695 20 1113H135" id="aT"/><g id="l"><use transform="matrix(0.008680555555555556,0,0,0.008680555555555556,0,0)" xlink:href="#aH"/><use transform="matrix(0.008680555555555556,0,0,0.008680555555555556,12.838541666666668,0)" xlink:href="#aI"/><use transform="matrix(0.008680555555555556,0,0,0.008680555555555556,23.63715277777778,0)" xlink:href="#aJ"/><use transform="matrix(0.008680555555555556,0,0,0.008680555555555556,33.689236111111114,0)" xlink:href="#aK"/><use transform="matrix(0.008680555555555556,0,0,0.008680555555555556,38.68055555555556,0)" xlink:href="#aL"/><use transform="matrix(0.008680555555555556,0,0,0.008680555555555556,51.953125,0)" xlink:href="#aI"/><use transform="matrix(0.008680555555555556,0,0,0.008680555555555556,62.751736111111114,0)" xlink:href="#aM"/><use transform="matrix(0.008680555555555556,0,0,0.008680555555555556,73.90625,0)" xlink:href="#aN"/><use transform="matrix(0.008680555555555556,0,0,0.008680555555555556,86.90104166666667,0)" xlink:href="#aO"/><use transform="matrix(0.008680555555555556,0,0,0.008680555555555556,95.96354166666667,0)" xlink:href="#aM"/><use transform="matrix(0.008680555555555556,0,0,0.008680555555555556,107.6388888888889,0)" xlink:href="#aI"/><use transform="matrix(0.008680555555555556,0,0,0.008680555555555556,118.43750000000001,0)" xlink:href="#aP"/><use transform="matrix(0.008680555555555556,0,0,0.008680555555555556,132.2482638888889,0)" xlink:href="#aQ"/><use transform="matrix(0.008680555555555556,0,0,0.008680555555555556,145.26041666666669,0)" xlink:href="#aI"/><use transform="matrix(0.008680555555555556,0,0,0.008680555555555556,156.05902777777777,0)" xlink:href="#aR"/><use transform="matrix(0.008680555555555556,0,0,0.008680555555555556,167.69965277777777,0)" xlink:href="#aS"/><use transform="matrix(0.008680555555555556,0,0,0.008680555555555556,178.5590277777778,0)" xlink:href="#aO"/><use transform="matrix(0.008680555555555556,0,0,0.008680555555555556,187.02256944444446,0)" xlink:href="#aR"/><use transform="matrix(0.008680555555555556,0,0,0.008680555555555556,198.66319444444446,0)" xlink:href="#aI"/><use transform="matrix(0.008680555555555556,0,0,0.008680555555555556,209.46180555555557,0)" xlink:href="#aT"/><use transform="matrix(0.008680555555555556,0,0,0.008680555555555556,223.0121527777778,0)" xlink:href="#aS"/></g><path fill="#333" d="M443 0L31-1118h319c90 293 199 572 268 885 66-313 175-593 264-885h315L784 0H443" id="aU"/><path fill="#333" d="M633 22C291 22 81-200 81-553c0-345 210-579 537-579 292 0 525 185 525 567v84H378c7 183 109 277 260 277 105 0 184-46 216-132l272 51C1071-99 893 22 633 22zM380-669h474c-15-146-94-237-233-237-143 0-229 99-241 237" id="aV"/><path fill="#333" d="M428-647V0H128v-1118h283l4 231c63-156 176-245 348-245 232 0 384 159 384 421V0H847v-659c0-139-76-222-202-222-128 0-217 86-217 234" id="aW"/><path fill="#333" d="M683-1118v229H474v562c0 71 29 104 102 104 23 0 73-7 95-13l43 225C647 9 580 16 520 16 296 16 174-96 174-301v-588H20v-229h154v-266h300v266h209" id="aX"/><g id="m"><use transform="matrix(0.008680555555555556,0,0,0.008680555555555556,0,0)" xlink:href="#aI"/><use transform="matrix(0.008680555555555556,0,0,0.008680555555555556,10.79861111111111,0)" xlink:href="#aU"/><use transform="matrix(0.008680555555555556,0,0,0.008680555555555556,21.13715277777778,0)" xlink:href="#aV"/><use transform="matrix(0.008680555555555556,0,0,0.008680555555555556,31.727430555555557,0)" xlink:href="#aW"/><use transform="matrix(0.008680555555555556,0,0,0.008680555555555556,42.79513888888889,0)" xlink:href="#aX"/></g><path fill="#333" d="M124 0v-220l528-495c135-132 210-216 210-336 0-133-98-215-231-215-139 0-229 88-229 233H110c0-290 214-477 523-477 315 0 525 182 525 440 0 167-80 305-385 586L548-262v11h630V0H124" id="aY"/><path fill="#333" d="M690 20C314 20 94-261 94-744c0-482 221-766 596-766 376 0 597 284 597 766 0 483-219 764-597 764zm0-253c184 0 286-184 286-511 0-328-102-514-286-514-183 0-285 187-285 514s101 511 285 511" id="aZ"/><g id="n"><use transform="matrix(0.008680555555555556,0,0,0.008680555555555556,0,0)" xlink:href="#aY"/><use transform="matrix(0.008680555555555556,0,0,0.008680555555555556,11.197916666666668,0)" xlink:href="#aZ"/><use transform="matrix(0.008680555555555556,0,0,0.008680555555555556,23.185763888888893,0)" xlink:href="#aZ"/></g><g id="o"><use transform="matrix(0.010091145833333334,0,0,0.010091145833333334,0,0)" xlink:href="#aw"/><use transform="matrix(0.010091145833333334,0,0,0.010091145833333334,12.997395833333334,0)" xlink:href="#am"/><use transform="matrix(0.010091145833333334,0,0,0.010091145833333334,25.046223958333336,0)" xlink:href="#aC"/><use transform="matrix(0.010091145833333334,0,0,0.010091145833333334,37.700520833333336,0)" xlink:href="#aD"/><use transform="matrix(0.010091145833333334,0,0,0.010091145833333334,49.9208984375,0)" xlink:href="#am"/><use transform="matrix(0.010091145833333334,0,0,0.010091145833333334,61.9697265625,0)" xlink:href="#av"/><use transform="matrix(0.010091145833333334,0,0,0.010091145833333334,72.87825520833333,0)" xlink:href="#aE"/></g><g id="p"><use transform="matrix(0.010091145833333334,0,0,0.010091145833333334,0,0)" xlink:href="#aF"/><use transform="matrix(0.010091145833333334,0,0,0.010091145833333334,11.604817708333334,0)" xlink:href="#az"/><use transform="matrix(0.010091145833333334,0,0,0.010091145833333334,23.815104166666668,0)" xlink:href="#at"/></g><path d="M600 0L52-1490h200c166 485 304 806 458 1336 156-533 285-846 449-1336h202L819 0H600" id="ba"/><g id="q"><use transform="matrix(0.010091145833333334,0,0,0.010091145833333334,0,0)" xlink:href="#ba"/><use transform="matrix(0.010091145833333334,0,0,0.010091145833333334,13.209309895833334,0)" xlink:href="#aF"/><use transform="matrix(0.010091145833333334,0,0,0.010091145833333334,24.814127604166668,0)" xlink:href="#aB"/><use transform="matrix(0.010091145833333334,0,0,0.010091145833333334,29.8193359375,0)" xlink:href="#ap"/><use transform="matrix(0.010091145833333334,0,0,0.010091145833333334,34.824544270833336,0)" xlink:href="#at"/><use transform="matrix(0.010091145833333334,0,0,0.010091145833333334,47.478841145833336,0)" xlink:href="#aF"/><use transform="matrix(0.010091145833333334,0,0,0.010091145833333334,59.08365885416667,0)" xlink:href="#aE"/><use transform="matrix(0.010091145833333334,0,0,0.010091145833333334,65.64290364583334,0)" xlink:href="#am"/></g><g id="r"><use transform="matrix(0.010091145833333334,0,0,0.010091145833333334,0,0)" xlink:href="#aA"/><use transform="matrix(0.010091145833333334,0,0,0.010091145833333334,14.914713541666668,0)" xlink:href="#am"/><use transform="matrix(0.010091145833333334,0,0,0.010091145833333334,26.963541666666668,0)" xlink:href="#aB"/><use transform="matrix(0.010091145833333334,0,0,0.010091145833333334,31.968750000000004,0)" xlink:href="#ap"/><use transform="matrix(0.010091145833333334,0,0,0.010091145833333334,36.973958333333336,0)" xlink:href="#ao"/><use transform="matrix(0.010091145833333334,0,0,0.010091145833333334,48.18522135416667,0)" xlink:href="#am"/><use transform="matrix(0.010091145833333334,0,0,0.010091145833333334,60.23404947916667,0)" xlink:href="#an"/><use transform="matrix(0.010091145833333334,0,0,0.010091145833333334,68.33723958333334,0)" xlink:href="#ap"/><use transform="matrix(0.010091145833333334,0,0,0.010091145833333334,73.34244791666667,0)" xlink:href="#am"/><use transform="matrix(0.010091145833333334,0,0,0.010091145833333334,85.39127604166667,0)" xlink:href="#av"/></g><path d="M370-1490V0H180v-1490h190" id="bb"/><g id="s"><use transform="matrix(0.010091145833333334,0,0,0.010091145833333334,0,0)" xlink:href="#bb"/><use transform="matrix(0.010091145833333334,0,0,0.010091145833333334,5.550130208333334,0)" xlink:href="#av"/></g><g id="t"><use transform="matrix(0.010091145833333334,0,0,0.010091145833333334,0,0)" xlink:href="#aw"/><use transform="matrix(0.010091145833333334,0,0,0.010091145833333334,12.997395833333334,0)" xlink:href="#am"/><use transform="matrix(0.010091145833333334,0,0,0.010091145833333334,25.046223958333336,0)" xlink:href="#aC"/><use transform="matrix(0.010091145833333334,0,0,0.010091145833333334,37.700520833333336,0)" xlink:href="#aD"/><use transform="matrix(0.010091145833333334,0,0,0.010091145833333334,49.9208984375,0)" xlink:href="#am"/><use transform="matrix(0.010091145833333334,0,0,0.010091145833333334,61.9697265625,0)" xlink:href="#av"/><use transform="matrix(0.010091145833333334,0,0,0.010091145833333334,72.87825520833333,0)" xlink:href="#aE"/></g><g id="u"><use transform="matrix(0.010091145833333334,0,0,0.010091145833333334,0,0)" xlink:href="#ba"/><use transform="matrix(0.010091145833333334,0,0,0.010091145833333334,13.209309895833334,0)" xlink:href="#aF"/><use transform="matrix(0.010091145833333334,0,0,0.010091145833333334,24.814127604166668,0)" xlink:href="#aB"/><use transform="matrix(0.010091145833333334,0,0,0.010091145833333334,29.8193359375,0)" xlink:href="#ap"/><use transform="matrix(0.010091145833333334,0,0,0.010091145833333334,34.824544270833336,0)" xlink:href="#at"/></g><g id="v"><use transform="matrix(0.010091145833333334,0,0,0.010091145833333334,0,0)" xlink:href="#al"/><use transform="matrix(0.010091145833333334,0,0,0.010091145833333334,13.259765625,0)" xlink:href="#am"/><use transform="matrix(0.010091145833333334,0,0,0.010091145833333334,25.30859375,0)" xlink:href="#aE"/></g><path d="M128 359l88-567h206L266 359H128" id="bc"/><g id="w"><use transform="matrix(0.010091145833333334,0,0,0.010091145833333334,0,0)" xlink:href="#al"/><use transform="matrix(0.010091145833333334,0,0,0.010091145833333334,13.259765625,0)" xlink:href="#aE"/><use transform="matrix(0.010091145833333334,0,0,0.010091145833333334,20.121744791666668,0)" xlink:href="#aF"/><use transform="matrix(0.010091145833333334,0,0,0.010091145833333334,31.726562500000004,0)" xlink:href="#aE"/><use transform="matrix(0.010091145833333334,0,0,0.010091145833333334,38.487630208333336,0)" xlink:href="#aD"/><use transform="matrix(0.010091145833333334,0,0,0.010091145833333334,50.7080078125,0)" xlink:href="#av"/><use transform="matrix(0.010091145833333334,0,0,0.010091145833333334,61.616536458333336,0)" xlink:href="#bc"/></g><g id="x"><use transform="matrix(0.010091145833333334,0,0,0.010091145833333334,0,0)" xlink:href="#an"/><use transform="matrix(0.010091145833333334,0,0,0.010091145833333334,7.437174479166668,0)" xlink:href="#am"/><use transform="matrix(0.010091145833333334,0,0,0.010091145833333334,19.687825520833336,0)" xlink:href="#aF"/><use transform="matrix(0.010091145833333334,0,0,0.010091145833333334,31.29264322916667,0)" xlink:href="#av"/><use transform="matrix(0.010091145833333334,0,0,0.010091145833333334,42.201171875000014,0)" xlink:href="#as"/><use transform="matrix(0.010091145833333334,0,0,0.010091145833333334,54.59309895833334,0)" xlink:href="#az"/></g><path d="M678-1118v154H420V0H240v-964H20v-154h220v-149c0-194 155-293 318-293 85 0 141 18 168 30l-50 154c-19-6-47-17-97-17-111 0-159 58-159 166v109h258" id="bd"/><g id="y"><use transform="matrix(0.010091145833333334,0,0,0.010091145833333334,0,0)" xlink:href="#bd"/><use transform="matrix(0.010091145833333334,0,0,0.010091145833333334,7.043619791666667,0)" xlink:href="#as"/><use transform="matrix(0.010091145833333334,0,0,0.010091145833333334,19.435546875,0)" xlink:href="#an"/></g><path d="M157-1118h181V80c1 225-123 350-364 338V252c126 9 184-48 183-172v-1198zm91-183c-68 0-125-53-125-119s57-119 125-119c69 0 126 53 126 119s-57 119-126 119" id="be"/><g id="z"><use transform="matrix(0.010091145833333334,0,0,0.010091145833333334,0,0)" xlink:href="#an"/><use transform="matrix(0.010091145833333334,0,0,0.010091145833333334,7.437174479166668,0)" xlink:href="#am"/><use transform="matrix(0.010091145833333334,0,0,0.010091145833333334,19.486002604166668,0)" xlink:href="#be"/><use transform="matrix(0.010091145833333334,0,0,0.010091145833333334,24.4912109375,0)" xlink:href="#am"/><use transform="matrix(0.010091145833333334,0,0,0.010091145833333334,36.5400390625,0)" xlink:href="#aq"/><use transform="matrix(0.010091145833333334,0,0,0.010091145833333334,48.3466796875,0)" xlink:href="#aE"/><use transform="matrix(0.010091145833333334,0,0,0.010091145833333334,55.107747395833336,0)" xlink:href="#ap"/><use transform="matrix(0.010091145833333334,0,0,0.010091145833333334,60.11295572916667,0)" xlink:href="#as"/><use transform="matrix(0.010091145833333334,0,0,0.010091145833333334,72.5048828125,0)" xlink:href="#az"/></g><path fill="#333" d="M628 22C291 22 81-210 81-554c0-346 210-578 547-578 336 0 547 232 547 578 0 344-211 576-547 576zm0-236c160 0 242-146 242-341 0-197-82-341-242-341S387-753 387-555c0 195 81 341 241 341" id="bf"/><g id="A"><use transform="matrix(0.008680555555555556,0,0,0.008680555555555556,0,0)" xlink:href="#aT"/><use transform="matrix(0.008680555555555556,0,0,0.008680555555555556,13.550347222222223,0)" xlink:href="#bf"/></g><path fill="#333" d="M768-1560L288 224H28l480-1784h260" id="bg"/><path fill="#333" d="M440 22C227 22 68-92 68-313c0-250 202-322 422-343 195-21 271-24 271-105 0-95-63-149-175-149-116 0-187 57-211 129l-275-46c57-194 237-305 487-305 240 0 474 108 474 379V0H777v-155h-10C713-51 605 22 440 22zm85-211c140 0 238-93 238-211v-121c-37 26-156 42-222 51-111 16-185 59-185 149 0 87 70 132 169 132" id="bh"/><path fill="#333" d="M128 418v-1536h295v188h14c41-89 129-202 319-202 248 0 453 193 453 575 0 372-197 576-455 576-183 0-275-108-317-198h-9v597H128zm534-640c156 0 240-139 240-336 0-196-83-334-240-334-154 0-241 131-241 334 0 202 88 336 241 336" id="bi"/><path fill="#333" d="M128 0v-1118h300V0H128zm150-1264c-91 0-165-68-165-154 0-85 74-154 165-154 90 0 165 69 165 154 0 86-75 154-165 154" id="bj"/><path fill="#333" d="M428-1490V0H128v-1490h300" id="bk"/><path fill="#333" d="M128 0v-1118h290v195h12c54-169 184-238 367-200v268c-27-8-86-15-130-15-138 0-239 95-239 234V0H128" id="bl"/><path fill="#333" d="M120 396l69-226c123 42 245 23 254-107l8-60L31-1118h319c87 288 199 559 259 872 72-308 185-583 277-872h315L726 132c-68 181-186 294-410 294-79 0-153-13-196-30" id="bm"/><path fill="#333" d="M1163 418H863v-597h-10C812-89 719 19 537 19 279 19 81-185 81-557c0-382 206-575 454-575 190 0 278 113 318 202h15v-188h295V418zM629-222c153 0 240-134 240-336 0-203-86-334-240-334-158 0-240 138-240 334 0 197 84 336 240 336" id="bn"/><path fill="#333" d="M513 14c-232 0-385-159-385-421v-711h300v659c0 139 76 222 202 222 127 0 217-86 217-234v-647h301V0H864l-4-232C797-74 683 14 513 14" id="bo"/><path fill="#333" d="M572 22C302 22 117-98 78-306l279-48c29 105 101 156 224 156 114 0 185-48 185-115 0-118-228-130-337-155-215-49-322-150-322-317 0-215 187-347 470-347 265 0 424 116 466 298l-266 47c-24-76-87-130-196-130-98 0-174 46-174 113 0 56 38 95 144 117l201 40c216 44 320 143 320 302 0 220-207 367-500 367" id="bp"/><path fill="#333" d="M628 22C291 22 81-210 81-554c0-346 210-578 547-578 265 0 455 142 497 372l-279 52c-25-116-99-188-215-188-160 0-244 139-244 341 0 200 84 341 244 341 116 0 193-74 217-195l279 51C1085-123 896 22 628 22" id="bq"/><g id="B"><use transform="matrix(0.008680555555555556,0,0,0.008680555555555556,0,0)" xlink:href="#bg"/><use transform="matrix(0.008680555555555556,0,0,0.008680555555555556,6.901041666666667,0)" xlink:href="#bh"/><use transform="matrix(0.008680555555555556,0,0,0.008680555555555556,17.22222222222222,0)" xlink:href="#bi"/><use transform="matrix(0.008680555555555556,0,0,0.008680555555555556,28.428819444444443,0)" xlink:href="#bj"/><use transform="matrix(0.008680555555555556,0,0,0.008680555555555556,33.24652777777778,0)" xlink:href="#bg"/><use transform="matrix(0.008680555555555556,0,0,0.008680555555555556,40.14756944444444,0)" xlink:href="#aH"/><use transform="matrix(0.008680555555555556,0,0,0.008680555555555556,52.986111111111114,0)" xlink:href="#aV"/><use transform="matrix(0.008680555555555556,0,0,0.008680555555555556,63.57638888888889,0)" xlink:href="#bk"/><use transform="matrix(0.008680555555555556,0,0,0.008680555555555556,68.39409722222223,0)" xlink:href="#bj"/><use transform="matrix(0.008680555555555556,0,0,0.008680555555555556,73.21180555555556,0)" xlink:href="#aU"/><use transform="matrix(0.008680555555555556,0,0,0.008680555555555556,83.55034722222223,0)" xlink:href="#aV"/><use transform="matrix(0.008680555555555556,0,0,0.008680555555555556,94.140625,0)" xlink:href="#bl"/><use transform="matrix(0.008680555555555556,0,0,0.008680555555555556,101.6579861111111,0)" xlink:href="#bm"/><use transform="matrix(0.008680555555555556,0,0,0.008680555555555556,112.40451388888887,0)" xlink:href="#aM"/><use transform="matrix(0.008680555555555556,0,0,0.008680555555555556,123.86284722222221,0)" xlink:href="#aV"/><use transform="matrix(0.008680555555555556,0,0,0.008680555555555556,134.453125,0)" xlink:href="#bn"/><use transform="matrix(0.008680555555555556,0,0,0.008680555555555556,145.65972222222223,0)" xlink:href="#bo"/><use transform="matrix(0.008680555555555556,0,0,0.008680555555555556,156.72743055555557,0)" xlink:href="#aV"/><use transform="matrix(0.008680555555555556,0,0,0.008680555555555556,167.31770833333334,0)" xlink:href="#bp"/><use transform="matrix(0.008680555555555556,0,0,0.008680555555555556,177.27430555555557,0)" xlink:href="#aX"/><use transform="matrix(0.008680555555555556,0,0,0.008680555555555556,183.78472222222223,0)" xlink:href="#bg"/><use transform="matrix(0.008680555555555556,0,0,0.008680555555555556,190.68576388888889,0)" xlink:href="#aR"/><use transform="matrix(0.008680555555555556,0,0,0.008680555555555556,202.32638888888889,0)" xlink:href="#bm"/><use transform="matrix(0.008680555555555556,0,0,0.008680555555555556,213.02951388888889,0)" xlink:href="#aW"/><use transform="matrix(0.008680555555555556,0,0,0.008680555555555556,224.09722222222223,0)" xlink:href="#bq"/></g><path fill="#333" d="M567 20C257 20 68-148 68-448v-87h305v92c0 143 75 217 194 217s193-74 193-218v-1046h302v1041c0 301-188 469-495 469" id="br"/><path fill="#333" d="M786 20C389 20 94-260 94-744c0-487 299-766 692-766 339 0 597 194 641 529h-309c-28-162-156-258-326-258-233 0-388 179-388 495 0 323 157 493 387 493 170 0 298-97 328-259h309c-34 277-266 530-642 530" id="bs"/><g id="C"><use transform="matrix(0.008680555555555556,0,0,0.008680555555555556,0,0)" xlink:href="#aM"/><use transform="matrix(0.008680555555555556,0,0,0.008680555555555556,11.675347222222223,0)" xlink:href="#aI"/><use transform="matrix(0.008680555555555556,0,0,0.008680555555555556,22.473958333333336,0)" xlink:href="#br"/><use transform="matrix(0.008680555555555556,0,0,0.008680555555555556,32.864583333333336,0)" xlink:href="#aI"/><use transform="matrix(0.008680555555555556,0,0,0.008680555555555556,43.66319444444444,0)" xlink:href="#bs"/><use transform="matrix(0.008680555555555556,0,0,0.008680555555555556,56.814236111111114,0)" xlink:href="#aS"/><use transform="matrix(0.008680555555555556,0,0,0.008680555555555556,68.68055555555556,0)" xlink:href="#aI"/><use transform="matrix(0.008680555555555556,0,0,0.008680555555555556,79.47916666666667,0)" xlink:href="#aH"/></g><g id="D"><use transform="matrix(0.010091145833333334,0,0,0.010091145833333334,0,0)" xlink:href="#ax"/><use transform="matrix(0.010091145833333334,0,0,0.010091145833333334,15.096354166666668,0)" xlink:href="#an"/><use transform="matrix(0.010091145833333334,0,0,0.010091145833333334,22.533528645833336,0)" xlink:href="#am"/><use transform="matrix(0.010091145833333334,0,0,0.010091145833333334,34.7841796875,0)" xlink:href="#aF"/><use transform="matrix(0.010091145833333334,0,0,0.010091145833333334,46.388997395833336,0)" xlink:href="#aE"/><use transform="matrix(0.010091145833333334,0,0,0.010091145833333334,52.9482421875,0)" xlink:href="#am"/></g><path d="M158 418v-1536h174v179h20c37-59 106-193 324-193 279 0 474 222 474 576 0 356-194 580-473 580-213 0-288-135-325-197h-14v591H158zm492-555c209 0 317-186 317-421 0-232-105-413-317-413-206 0-314 166-314 413 0 249 111 421 314 421" id="bt"/><path d="M611 442c-248 0-391-105-460-228l146-94c47 65 117 165 314 165 178 0 307-82 307-266v-224h-17C863-141 792-18 576-18c-268 0-472-195-472-546 0-346 197-568 476-568 216 0 288 133 326 193h17v-179h175V29c0 289-215 413-487 413zm-5-620c203 0 314-146 314-390 0-237-108-403-314-403-213 0-319 180-319 403 0 230 109 390 319 390" id="bu"/><g id="E"><use transform="matrix(0.010091145833333334,0,0,0.010091145833333334,0,0)" xlink:href="#ax"/><use transform="matrix(0.010091145833333334,0,0,0.010091145833333334,15.096354166666668,0)" xlink:href="#as"/><use transform="matrix(0.010091145833333334,0,0,0.010091145833333334,27.48828125,0)" xlink:href="#an"/><use transform="matrix(0.010091145833333334,0,0,0.010091145833333334,35.59147135416667,0)" xlink:href="#an"/><use transform="matrix(0.010091145833333334,0,0,0.010091145833333334,43.028645833333336,0)" xlink:href="#am"/><use transform="matrix(0.010091145833333334,0,0,0.010091145833333334,55.077473958333336,0)" xlink:href="#av"/><use transform="matrix(0.010091145833333334,0,0,0.010091145833333334,65.98600260416667,0)" xlink:href="#bt"/><use transform="matrix(0.010091145833333334,0,0,0.010091145833333334,78.64029947916667,0)" xlink:href="#as"/><use transform="matrix(0.010091145833333334,0,0,0.010091145833333334,91.0322265625,0)" xlink:href="#az"/><use transform="matrix(0.010091145833333334,0,0,0.010091145833333334,103.24251302083331,0)" xlink:href="#at"/><use transform="matrix(0.010091145833333334,0,0,0.010091145833333334,115.89680989583333,0)" xlink:href="#ap"/><use transform="matrix(0.010091145833333334,0,0,0.010091145833333334,120.90201822916666,0)" xlink:href="#az"/><use transform="matrix(0.010091145833333334,0,0,0.010091145833333334,133.1123046875,0)" xlink:href="#bu"/></g><g id="F"><use transform="matrix(0.010091145833333334,0,0,0.010091145833333334,0,0)" xlink:href="#aA"/><use transform="matrix(0.010091145833333334,0,0,0.010091145833333334,14.914713541666668,0)" xlink:href="#am"/><use transform="matrix(0.010091145833333334,0,0,0.010091145833333334,26.963541666666668,0)" xlink:href="#aB"/><use transform="matrix(0.010091145833333334,0,0,0.010091145833333334,31.968750000000004,0)" xlink:href="#ap"/><use transform="matrix(0.010091145833333334,0,0,0.010091145833333334,36.973958333333336,0)" xlink:href="#ao"/><use transform="matrix(0.010091145833333334,0,0,0.010091145833333334,48.18522135416667,0)" xlink:href="#am"/><use transform="matrix(0.010091145833333334,0,0,0.010091145833333334,60.23404947916667,0)" xlink:href="#an"/><use transform="matrix(0.010091145833333334,0,0,0.010091145833333334,68.33723958333334,0)" xlink:href="#ap"/><use transform="matrix(0.010091145833333334,0,0,0.010091145833333334,73.34244791666667,0)" xlink:href="#am"/><use transform="matrix(0.010091145833333334,0,0,0.010091145833333334,85.39127604166667,0)" xlink:href="#av"/></g><path d="M580 20c-295 0-476-179-476-409 0-189 123-290 294-416-104-125-173-226-173-362 0-197 144-337 365-337 224 0 362 144 362 321 0 185-174 312-306 405l319 387c38-75 61-165 61-267h173c0 208-62 332-120 406L1287 0h-217L967-124C868-27 716 20 580 20zm279-273L507-675l-51 38c-123 91-167 162-167 254 0 147 113 246 278 246 107 0 210-41 292-116zM538-908l97-72c54-40 136-101 136-206 0-95-68-163-176-163-113 0-189 74-189 181 0 90 53 164 132 260" id="bv"/><use transform="matrix(0.010091145833333334,0,0,0.010091145833333334,0,0)" xlink:href="#bv" id="G"/><g id="H"><use transform="matrix(0.010091145833333334,0,0,0.010091145833333334,0,0)" xlink:href="#al"/><use transform="matrix(0.010091145833333334,0,0,0.010091145833333334,13.259765625,0)" xlink:href="#ay"/><use transform="matrix(0.010091145833333334,0,0,0.010091145833333334,24.874674479166668,0)" xlink:href="#az"/><use transform="matrix(0.010091145833333334,0,0,0.010091145833333334,37.0849609375,0)" xlink:href="#aq"/></g><g id="I"><use transform="matrix(0.008680555555555556,0,0,0.008680555555555556,0,0)" xlink:href="#aN"/><use transform="matrix(0.008680555555555556,0,0,0.008680555555555556,11.050347222222223,0)" xlink:href="#aV"/><use transform="matrix(0.008680555555555556,0,0,0.008680555555555556,21.640625,0)" xlink:href="#bp"/></g><g id="J"><use transform="matrix(0.010091145833333334,0,0,0.010091145833333334,0,0)" xlink:href="#al"/><use transform="matrix(0.010091145833333334,0,0,0.010091145833333334,13.259765625,0)" xlink:href="#aE"/><use transform="matrix(0.010091145833333334,0,0,0.010091145833333334,20.121744791666668,0)" xlink:href="#aF"/><use transform="matrix(0.010091145833333334,0,0,0.010091145833333334,31.726562500000004,0)" xlink:href="#aE"/><use transform="matrix(0.010091145833333334,0,0,0.010091145833333334,38.487630208333336,0)" xlink:href="#aD"/><use transform="matrix(0.010091145833333334,0,0,0.010091145833333334,50.7080078125,0)" xlink:href="#av"/></g><path fill="#333" d="M135 0v-1490h581c339 0 533 210 533 503 0 295-197 500-540 500H440V0H135zm305-733h220c186 0 274-104 274-254s-88-251-275-251H440v505" id="bw"/><path fill="#333" d="M795 20C377 20 94-272 94-743c0-483 302-767 694-767 335 0 593 206 635 500h-310c-42-142-154-229-320-229-230 0-389 177-389 493s154 495 393 495c212 0 340-120 345-311H818v-232h620v186c0 391-269 628-643 628" id="bx"/><path fill="#333" d="M49 0l509-1490h400L1480 0h-339l-115-346H497L386 0H49zm524-585h374c-75-213-124-402-192-666-66 268-110 453-182 666" id="by"/><path fill="#333" d="M789 20C394 20 94-260 94-744c0-487 300-766 695-766s695 279 695 766c0 485-300 764-695 764zm0-271c231 0 385-174 385-493 0-321-154-495-385-495s-385 175-385 495c0 319 154 493 385 493" id="bz"/><g id="K"><use transform="matrix(0.008680555555555556,0,0,0.008680555555555556,0,0)" xlink:href="#bw"/><use transform="matrix(0.008680555555555556,0,0,0.008680555555555556,11.519097222222223,0)" xlink:href="#aI"/><use transform="matrix(0.008680555555555556,0,0,0.008680555555555556,22.317708333333336,0)" xlink:href="#aT"/><use transform="matrix(0.008680555555555556,0,0,0.008680555555555556,35.86805555555556,0)" xlink:href="#aH"/><use transform="matrix(0.008680555555555556,0,0,0.008680555555555556,48.706597222222236,0)" xlink:href="#aK"/><use transform="matrix(0.008680555555555556,0,0,0.008680555555555556,53.69791666666667,0)" xlink:href="#aT"/><use transform="matrix(0.008680555555555556,0,0,0.008680555555555556,67.2482638888889,0)" xlink:href="#bx"/><use transform="matrix(0.008680555555555556,0,0,0.008680555555555556,80.59027777777779,0)" xlink:href="#aO"/><use transform="matrix(0.008680555555555556,0,0,0.008680555555555556,89.05381944444447,0)" xlink:href="#by"/><use transform="matrix(0.008680555555555556,0,0,0.008680555555555556,102.3263888888889,0)" xlink:href="#bw"/><use transform="matrix(0.008680555555555556,0,0,0.008680555555555556,113.84548611111113,0)" xlink:href="#bw"/><use transform="matrix(0.008680555555555556,0,0,0.008680555555555556,125.36458333333336,0)" xlink:href="#aM"/><use transform="matrix(0.008680555555555556,0,0,0.008680555555555556,137.03993055555557,0)" xlink:href="#bz"/><use transform="matrix(0.008680555555555556,0,0,0.008680555555555556,150.02604166666669,0)" xlink:href="#aL"/><use transform="matrix(0.008680555555555556,0,0,0.008680555555555556,161.89236111111114,0)" xlink:href="#by"/><use transform="matrix(0.008680555555555556,0,0,0.008680555555555556,175.1649305555556,0)" xlink:href="#aJ"/></g><path d="M98-1322v-168h1126v168H757V0H567v-1322H98" id="bA"/><path d="M338-670V0H158v-1490h180v566c73-149 190-208 336-208 226 0 379 139 379 422V0H872v-695c0-172-96-275-252-275-161 0-282 109-282 300" id="bB"/><g id="L"><use transform="matrix(0.010091145833333334,0,0,0.010091145833333334,0,0)" xlink:href="#bA"/><use transform="matrix(0.010091145833333334,0,0,0.010091145833333334,13.340494791666668,0)" xlink:href="#bB"/><use transform="matrix(0.010091145833333334,0,0,0.010091145833333334,25.560872395833336,0)" xlink:href="#am"/><use transform="matrix(0.010091145833333334,0,0,0.010091145833333334,37.609700520833336,0)" xlink:href="#an"/><use transform="matrix(0.010091145833333334,0,0,0.010091145833333334,45.046875,0)" xlink:href="#am"/></g><g id="M"><use transform="matrix(0.010091145833333334,0,0,0.010091145833333334,0,0)" xlink:href="#aF"/><use transform="matrix(0.010091145833333334,0,0,0.010091145833333334,11.604817708333334,0)" xlink:href="#az"/><use transform="matrix(0.010091145833333334,0,0,0.010091145833333334,23.512369791666668,0)" xlink:href="#ay"/></g><path d="M158 0v-1118h175l1 205c55-151 181-225 313-225 147 0 245 90 285 228 53-141 190-228 352-228 194 0 352 125 352 384V0h-181v-749c0-161-105-225-225-225-151 0-243 103-243 244V0H807v-767c0-124-93-207-219-207-131 0-250 92-250 270V0H158" id="bC"/><g id="N"><use transform="matrix(0.010091145833333334,0,0,0.010091145833333334,0,0)" xlink:href="#ap"/><use transform="matrix(0.010091145833333334,0,0,0.010091145833333334,5.005208333333334,0)" xlink:href="#az"/><use transform="matrix(0.010091145833333334,0,0,0.010091145833333334,17.215494791666668,0)" xlink:href="#aE"/><use transform="matrix(0.010091145833333334,0,0,0.010091145833333334,23.774739583333336,0)" xlink:href="#am"/><use transform="matrix(0.010091145833333334,0,0,0.010091145833333334,35.823567708333336,0)" xlink:href="#an"/><use transform="matrix(0.010091145833333334,0,0,0.010091145833333334,43.9267578125,0)" xlink:href="#ap"/><use transform="matrix(0.010091145833333334,0,0,0.010091145833333334,48.931966145833336,0)" xlink:href="#bC"/></g><g id="O"><use transform="matrix(0.010091145833333334,0,0,0.010091145833333334,0,0)" xlink:href="#aF"/><use transform="matrix(0.010091145833333334,0,0,0.010091145833333334,11.604817708333334,0)" xlink:href="#bt"/><use transform="matrix(0.010091145833333334,0,0,0.010091145833333334,24.259114583333336,0)" xlink:href="#bt"/><use transform="matrix(0.010091145833333334,0,0,0.010091145833333334,36.913411458333336,0)" xlink:href="#an"/><use transform="matrix(0.010091145833333334,0,0,0.010091145833333334,44.3505859375,0)" xlink:href="#as"/><use transform="matrix(0.010091145833333334,0,0,0.010091145833333334,56.3388671875,0)" xlink:href="#ao"/><use transform="matrix(0.010091145833333334,0,0,0.010091145833333334,67.85286458333333,0)" xlink:href="#aF"/><use transform="matrix(0.010091145833333334,0,0,0.010091145833333334,79.45768229166666,0)" xlink:href="#aB"/></g><g id="P"><use transform="matrix(0.010091145833333334,0,0,0.010091145833333334,0,0)" xlink:href="#av"/><use transform="matrix(0.010091145833333334,0,0,0.010091145833333334,10.908528645833334,0)" xlink:href="#aE"/><use transform="matrix(0.010091145833333334,0,0,0.010091145833333334,17.4677734375,0)" xlink:href="#am"/><use transform="matrix(0.010091145833333334,0,0,0.010091145833333334,29.5166015625,0)" xlink:href="#bt"/><use transform="matrix(0.010091145833333334,0,0,0.010091145833333334,42.1708984375,0)" xlink:href="#av"/></g><g id="Q"><use transform="matrix(0.010091145833333334,0,0,0.010091145833333334,0,0)" xlink:href="#bb"/><use transform="matrix(0.010091145833333334,0,0,0.010091145833333334,5.550130208333334,0)" xlink:href="#az"/><use transform="matrix(0.010091145833333334,0,0,0.010091145833333334,17.760416666666668,0)" xlink:href="#aE"/><use transform="matrix(0.010091145833333334,0,0,0.010091145833333334,24.319661458333336,0)" xlink:href="#am"/><use transform="matrix(0.010091145833333334,0,0,0.010091145833333334,36.368489583333336,0)" xlink:href="#an"/><use transform="matrix(0.010091145833333334,0,0,0.010091145833333334,44.4716796875,0)" xlink:href="#ap"/><use transform="matrix(0.010091145833333334,0,0,0.010091145833333334,49.476888020833336,0)" xlink:href="#bC"/></g><g id="R"><use transform="matrix(0.010091145833333334,0,0,0.010091145833333334,0,0)" xlink:href="#ar"/><use transform="matrix(0.010091145833333334,0,0,0.010091145833333334,13.19921875,0)" xlink:href="#aF"/><use transform="matrix(0.010091145833333334,0,0,0.010091145833333334,24.501302083333336,0)" xlink:href="#ay"/><use transform="matrix(0.010091145833333334,0,0,0.010091145833333334,36.1162109375,0)" xlink:href="#bC"/><use transform="matrix(0.010091145833333334,0,0,0.010091145833333334,54.2197265625,0)" xlink:href="#am"/><use transform="matrix(0.010091145833333334,0,0,0.010091145833333334,66.2685546875,0)" xlink:href="#az"/><use transform="matrix(0.010091145833333334,0,0,0.010091145833333334,78.47884114583333,0)" xlink:href="#aE"/></g><g id="S"><use transform="matrix(0.010091145833333334,0,0,0.010091145833333334,0,0)" xlink:href="#au"/><use transform="matrix(0.010091145833333334,0,0,0.010091145833333334,14.2587890625,0)" xlink:href="#bt"/><use transform="matrix(0.010091145833333334,0,0,0.010091145833333334,26.9130859375,0)" xlink:href="#bt"/><use transform="matrix(0.010091145833333334,0,0,0.010091145833333334,39.5673828125,0)" xlink:href="#an"/><use transform="matrix(0.010091145833333334,0,0,0.010091145833333334,47.00455729166666,0)" xlink:href="#as"/><use transform="matrix(0.010091145833333334,0,0,0.010091145833333334,58.992838541666664,0)" xlink:href="#ao"/><use transform="matrix(0.010091145833333334,0,0,0.010091145833333334,70.5068359375,0)" xlink:href="#aF"/><use transform="matrix(0.010091145833333334,0,0,0.010091145833333334,82.11165364583333,0)" xlink:href="#aB"/></g><g id="T"><use transform="matrix(0.010091145833333334,0,0,0.010091145833333334,0,0)" xlink:href="#al"/><use transform="matrix(0.010091145833333334,0,0,0.010091145833333334,13.259765625,0)" xlink:href="#aE"/><use transform="matrix(0.010091145833333334,0,0,0.010091145833333334,19.819010416666668,0)" xlink:href="#am"/><use transform="matrix(0.010091145833333334,0,0,0.010091145833333334,31.867838541666668,0)" xlink:href="#bt"/></g><g id="U"><use transform="matrix(0.008680555555555556,0,0,0.008680555555555556,0,0)" xlink:href="#bw"/><use transform="matrix(0.008680555555555556,0,0,0.008680555555555556,11.519097222222223,0)" xlink:href="#aI"/><use transform="matrix(0.008680555555555556,0,0,0.008680555555555556,22.317708333333336,0)" xlink:href="#aT"/><use transform="matrix(0.008680555555555556,0,0,0.008680555555555556,35.86805555555556,0)" xlink:href="#aH"/><use transform="matrix(0.008680555555555556,0,0,0.008680555555555556,48.706597222222236,0)" xlink:href="#aK"/><use transform="matrix(0.008680555555555556,0,0,0.008680555555555556,53.69791666666667,0)" xlink:href="#aT"/><use transform="matrix(0.008680555555555556,0,0,0.008680555555555556,67.2482638888889,0)" xlink:href="#bx"/><use transform="matrix(0.008680555555555556,0,0,0.008680555555555556,80.59027777777779,0)" xlink:href="#aO"/><use transform="matrix(0.008680555555555556,0,0,0.008680555555555556,89.05381944444447,0)" xlink:href="#by"/><use transform="matrix(0.008680555555555556,0,0,0.008680555555555556,102.3263888888889,0)" xlink:href="#bw"/><use transform="matrix(0.008680555555555556,0,0,0.008680555555555556,113.84548611111113,0)" xlink:href="#bw"/><use transform="matrix(0.008680555555555556,0,0,0.008680555555555556,125.36458333333336,0)" xlink:href="#aM"/><use transform="matrix(0.008680555555555556,0,0,0.008680555555555556,137.03993055555557,0)" xlink:href="#bz"/><use transform="matrix(0.008680555555555556,0,0,0.008680555555555556,150.02604166666669,0)" xlink:href="#aL"/><use transform="matrix(0.008680555555555556,0,0,0.008680555555555556,161.89236111111114,0)" xlink:href="#by"/><use transform="matrix(0.008680555555555556,0,0,0.008680555555555556,175.1649305555556,0)" xlink:href="#aJ"/></g><path fill="#0a3069" d="M1094-1034c0 310-213 470-541 465H362V0H176v-1462h404c343 0 514 143 514 428zM532-727c244-1 369-71 369-297 0-186-113-279-338-279H362v576h170" id="bD"/><path fill="#0a3069" d="M442-897c93-139 173-221 377-221 79 0 159 15 240 45l-49 166c-82-30-157-45-224-45-221 0-340 134-340 360V0H264v-1098h148l22 201h8" id="bE"/><path fill="#0a3069" d="M1112-551c0 331-186 571-502 571-301 0-495-251-495-571 0-330 184-567 501-567 302 0 496 249 496 567zM614-131c207 0 310-140 310-420 0-277-104-416-312-416-206 0-309 139-309 416 0 280 104 420 311 420" id="bF"/><path fill="#0a3069" d="M498 0L82-1098h188l240 652c57 154 90 262 100 325h6c67-256 244-708 340-977h189L729 0H498" id="bG"/><path fill="#0a3069" d="M739-1436c0 71-43 115-106 115-71 0-107-38-107-115 0-76 36-114 107-114s106 38 106 114zM541-954l-269-21v-123h451v955l352 20V0H197v-123l344-20v-811" id="bH"/><path fill="#0a3069" d="M137-547c0-322 136-571 430-571 137 0 245 53 322 160h12c-24-215-7-376-12-598h182V0H924l-27-147h-8C814-36 706 20 567 20c-294 0-430-246-430-567zm463 416c241 0 288-157 289-416 0-151-23-259-69-323s-121-97-222-97c-181 0-272 141-272 422 0 276 91 414 274 414" id="bI"/><path fill="#0a3069" d="M631-1118c283 0 470 204 465 491v113H322c5 250 120 375 344 375 130 0 253-25 370-76v160C925-5 804 20 672 20c-329 0-539-224-539-561 0-331 182-577 498-577zM326-662h573c0-203-91-305-272-305-183 0-284 102-301 305" id="bJ"/><g id="V"><use transform="matrix(0.0078125,0,0,0.0078125,0,0)" xlink:href="#bD"/><use transform="matrix(0.0078125,0,0,0.0078125,9.6015625,0)" xlink:href="#bE"/><use transform="matrix(0.0078125,0,0,0.0078125,19.203125,0)" xlink:href="#bF"/><use transform="matrix(0.0078125,0,0,0.0078125,28.8046875,0)" xlink:href="#bG"/><use transform="matrix(0.0078125,0,0,0.0078125,38.40625,0)" xlink:href="#bH"/><use transform="matrix(0.0078125,0,0,0.0078125,48.0078125,0)" xlink:href="#bI"/><use transform="matrix(0.0078125,0,0,0.0078125,57.609375,0)" xlink:href="#bJ"/><use transform="matrix(0.0078125,0,0,0.0078125,67.2109375,0)" xlink:href="#bE"/></g><path fill="#0a3069" d="M1087-391c0 281-226 411-532 411-177 0-315-23-414-69v-178c141 57 279 86 414 86 233 0 350-80 350-240 0-69-24-123-71-160s-142-82-285-133c-139-49-239-106-299-174s-90-156-90-264c2-252 211-371 481-371 153 0 291 26 416 78l-64 164c-129-52-249-78-360-78-195 0-293 70-293 209 0 68 22 123 66 164s134 85 270 133c164 58 273 119 328 181s83 143 83 241" id="bK"/><path fill="#0a3069" d="M1020-150v138C933 9 849 20 768 20 527 20 406-95 406-324v-637H139v-94l267-49 77-287h105v293h438v137H588v637c0 130 64 195 192 195 62 0 142-7 240-21" id="bL"/><path fill="#0a3069" d="M1092-551c0 322-136 571-430 571-138 0-245-53-322-159h-12c24 220 7 402 12 631H158v-1590h147l27 148h8c73-112 181-168 322-168 294 0 430 246 430 567zM629-967c-241 0-288 156-289 416 0 151 24 259 70 323s120 97 221 97c181 0 272-141 272-422 0-276-91-414-274-414" id="bM"/><path fill="#0a3069" d="M614-1126c85 0 127 46 127 139s-42 139-127 139-127-46-127-139 42-139 127-139zm0 876c85 0 127 46 127 139S699 29 614 29 487-18 487-111s42-139 127-139" id="bN"/><g id="W"><use transform="matrix(0.0078125,0,0,0.0078125,0,0)" xlink:href="#bK"/><use transform="matrix(0.0078125,0,0,0.0078125,9.6015625,0)" xlink:href="#bL"/><use transform="matrix(0.0078125,0,0,0.0078125,19.203125,0)" xlink:href="#bJ"/><use transform="matrix(0.0078125,0,0,0.0078125,28.8046875,0)" xlink:href="#bM"/><use transform="matrix(0.0078125,0,0,0.0078125,38.40625,0)" xlink:href="#bN"/></g><path fill="#0a3069" d="M528-1008h177c63 241 176 595 217 828 10-131 108-1012 135-1282h170L1040 0H850c-78-286-175-558-234-862C553-542 470-299 395 0H205L2-1462h170c52 408 123 848 145 1282 49-284 143-558 211-828" id="bO"/><path fill="#0a3069" d="M596-1118c288 2 430 92 430 366V0H895l-37-152h-8C752-34 680 17 483 20 272 23 135-98 135-307c0-221 170-337 510-348l203-7c15-197-55-305-244-305-98 0-207 27-328 82l-63-137c131-64 258-96 383-96zm-72 991c194 0 325-116 322-311v-99c-251 15-522-6-522 232 0 119 67 178 200 178" id="bP"/><path fill="#0a3069" d="M887 0v-707c0-173-79-260-238-260-205 0-307 133-307 398V0H160v-1098h147l27 148h10c69-112 181-168 336-168 259 0 389 134 389 401V0H887" id="bQ"/><path fill="#0a3069" d="M188-739c-1-248 156-381 410-379 57 0 107 7 150 20h378v113l-196 27c43 57 65 128 65 213 2 253-212 385-489 346-67 37-100 82-100 133 0 56 54 84 161 84h187c216-2 358 93 358 297 0 251-188 377-565 377-145 0-255-26-331-80S102 283 102 186c0-141 80-231 240-270-64-31-96-83-96-154 0-75 44-139 133-192-109-41-191-166-191-309zm406 221c149 0 223-77 223-230 0-159-75-239-225-239s-225 81-225 242c0 151 76 227 227 227zm346 649c0-146-78-149-248-149H504c-153 0-230 66-230 198 0 116 90 174 271 174 263 0 395-74 395-223" id="bR"/><path fill="#0a3069" d="M172-543c0-365 197-575 553-575 119 0 231 20 336 59l-62 158c-100-38-189-57-268-57-247 0-371 138-371 413 0 271 120 406 361 406 105 0 212-21 321-62v160C953 0 843 20 713 20c-347 1-541-210-541-563" id="bS"/><path fill="#0a3069" d="M82-1098h188l262 654c55 137 84 233 89 290h6c15-75 45-172 90-292l239-652h189L670 143c-45 116-99 201-156 261-87 92-259 104-414 71V330c92 17 226 18 286-29 67-53 115-195 153-291" id="bT"/><path fill="#0a3069" d="M233 0v-1462h187v1296h635V0H233" id="bU"/><path fill="#0a3069" d="M532-1413l-268-21v-122h451v1413l352 20V0H188v-123l344-20v-1270" id="bV"/><path fill="#0a3069" d="M707 0H520v-1298H102v-164h1022v164H707V0" id="bW"/><path fill="#0a3069" d="M1104-516c1 337-164 537-496 536-322 0-483-180-483-540v-942h186v932c0 258 102 387 307 387 197 0 300-130 300-389v-932h186v948" id="bX"/><path fill="#0a3069" d="M1004 0L860-453H369L223 0H33l483-1468h195L1196 0h-192zM807-618c-63-210-144-435-195-650-51 232-127 431-190 650h385" id="bY"/><g id="X"><use transform="matrix(0.0078125,0,0,0.0078125,0,0)" xlink:href="#bO"/><use transform="matrix(0.0078125,0,0,0.0078125,9.6015625,0)" xlink:href="#bP"/><use transform="matrix(0.0078125,0,0,0.0078125,19.203125,0)" xlink:href="#bH"/><use transform="matrix(0.0078125,0,0,0.0078125,28.8046875,0)" xlink:href="#bL"/><use transform="matrix(0.0078125,0,0,0.0078125,38.40625,0)" xlink:href="#bH"/><use transform="matrix(0.0078125,0,0,0.0078125,48.0078125,0)" xlink:href="#bQ"/><use transform="matrix(0.0078125,0,0,0.0078125,57.609375,0)" xlink:href="#bR"/><use transform="matrix(0.0078125,0,0,0.0078125,67.2109375,0)" xlink:href="#bK"/><use transform="matrix(0.0078125,0,0,0.0078125,76.8125,0)" xlink:href="#bJ"/><use transform="matrix(0.0078125,0,0,0.0078125,86.4140625,0)" xlink:href="#bS"/><use transform="matrix(0.0078125,0,0,0.0078125,96.015625,0)" xlink:href="#bF"/><use transform="matrix(0.0078125,0,0,0.0078125,105.6171875,0)" xlink:href="#bQ"/><use transform="matrix(0.0078125,0,0,0.0078125,115.21875,0)" xlink:href="#bI"/><use transform="matrix(0.0078125,0,0,0.0078125,124.8203125,0)" xlink:href="#bP"/><use transform="matrix(0.0078125,0,0,0.0078125,134.421875,0)" xlink:href="#bE"/><use transform="matrix(0.0078125,0,0,0.0078125,144.0234375,0)" xlink:href="#bT"/><use transform="matrix(0.0078125,0,0,0.0078125,153.625,0)" xlink:href="#bU"/><use transform="matrix(0.0078125,0,0,0.0078125,163.2265625,0)" xlink:href="#bJ"/><use transform="matrix(0.0078125,0,0,0.0078125,172.828125,0)" xlink:href="#bG"/><use transform="matrix(0.0078125,0,0,0.0078125,182.4296875,0)" xlink:href="#bJ"/><use transform="matrix(0.0078125,0,0,0.0078125,192.03125,0)" xlink:href="#bV"/><use transform="matrix(0.0078125,0,0,0.0078125,201.6328125,0)" xlink:href="#bW"/><use transform="matrix(0.0078125,0,0,0.0078125,211.234375,0)" xlink:href="#bF"/><use transform="matrix(0.0078125,0,0,0.0078125,220.8359375,0)" xlink:href="#bM"/><use transform="matrix(0.0078125,0,0,0.0078125,230.4375,0)" xlink:href="#bX"/><use transform="matrix(0.0078125,0,0,0.0078125,240.0390625,0)" xlink:href="#bM"/><use transform="matrix(0.0078125,0,0,0.0078125,249.640625,0)" xlink:href="#bY"/><use transform="matrix(0.0078125,0,0,0.0078125,259.2421875,0)" xlink:href="#bM"/><use transform="matrix(0.0078125,0,0,0.0078125,268.84375,0)" xlink:href="#bM"/><use transform="matrix(0.0078125,0,0,0.0078125,278.4453125,0)" xlink:href="#bE"/><use transform="matrix(0.0078125,0,0,0.0078125,288.046875,0)" xlink:href="#bF"/><use transform="matrix(0.0078125,0,0,0.0078125,297.6484375,0)" xlink:href="#bG"/><use transform="matrix(0.0078125,0,0,0.0078125,307.25,0)" xlink:href="#bP"/><use transform="matrix(0.0078125,0,0,0.0078125,316.8515625,0)" xlink:href="#bV"/></g><g id="Y"><use transform="matrix(0.010091145833333334,0,0,0.010091145833333334,0,0)" xlink:href="#au"/><use transform="matrix(0.010091145833333334,0,0,0.010091145833333334,14.2587890625,0)" xlink:href="#aB"/><use transform="matrix(0.010091145833333334,0,0,0.010091145833333334,19.263997395833336,0)" xlink:href="#aB"/></g><g id="Z"><use transform="matrix(0.010091145833333334,0,0,0.010091145833333334,0,0)" xlink:href="#bb"/><use transform="matrix(0.010091145833333334,0,0,0.010091145833333334,5.550130208333334,0)" xlink:href="#az"/><use transform="matrix(0.010091145833333334,0,0,0.010091145833333334,17.760416666666668,0)" xlink:href="#aE"/><use transform="matrix(0.010091145833333334,0,0,0.010091145833333334,24.319661458333336,0)" xlink:href="#am"/><use transform="matrix(0.010091145833333334,0,0,0.010091145833333334,36.368489583333336,0)" xlink:href="#an"/><use transform="matrix(0.010091145833333334,0,0,0.010091145833333334,44.4716796875,0)" xlink:href="#ap"/><use transform="matrix(0.010091145833333334,0,0,0.010091145833333334,49.476888020833336,0)" xlink:href="#bC"/></g><g id="aa"><use transform="matrix(0.010091145833333334,0,0,0.010091145833333334,0,0)" xlink:href="#av"/><use transform="matrix(0.010091145833333334,0,0,0.010091145833333334,10.908528645833334,0)" xlink:href="#aE"/><use transform="matrix(0.010091145833333334,0,0,0.010091145833333334,17.4677734375,0)" xlink:href="#am"/><use transform="matrix(0.010091145833333334,0,0,0.010091145833333334,29.5166015625,0)" xlink:href="#bt"/><use transform="matrix(0.010091145833333334,0,0,0.010091145833333334,42.1708984375,0)" xlink:href="#av"/></g><g id="ab"><use transform="matrix(0.010091145833333334,0,0,0.010091145833333334,0,0)" xlink:href="#aF"/><use transform="matrix(0.010091145833333334,0,0,0.010091145833333334,11.604817708333334,0)" xlink:href="#an"/><use transform="matrix(0.010091145833333334,0,0,0.010091145833333334,19.0419921875,0)" xlink:href="#am"/></g><g id="ac"><use transform="matrix(0.010091145833333334,0,0,0.010091145833333334,0,0)" xlink:href="#aF"/><use transform="matrix(0.010091145833333334,0,0,0.010091145833333334,11.604817708333334,0)" xlink:href="#bt"/><use transform="matrix(0.010091145833333334,0,0,0.010091145833333334,24.259114583333336,0)" xlink:href="#bt"/><use transform="matrix(0.010091145833333334,0,0,0.010091145833333334,36.913411458333336,0)" xlink:href="#an"/><use transform="matrix(0.010091145833333334,0,0,0.010091145833333334,44.3505859375,0)" xlink:href="#as"/><use transform="matrix(0.010091145833333334,0,0,0.010091145833333334,56.3388671875,0)" xlink:href="#ao"/><use transform="matrix(0.010091145833333334,0,0,0.010091145833333334,67.55013020833333,0)" xlink:href="#am"/><use transform="matrix(0.010091145833333334,0,0,0.010091145833333334,79.59895833333333,0)" xlink:href="#at"/></g><path d="M180 0v-1490h901v168H370v510h643v168H370V0H180" id="bZ"/><g id="ad"><use transform="matrix(0.010091145833333334,0,0,0.010091145833333334,0,0)" xlink:href="#bZ"/><use transform="matrix(0.010091145833333334,0,0,0.010091145833333334,12.2001953125,0)" xlink:href="#ap"/><use transform="matrix(0.010091145833333334,0,0,0.010091145833333334,17.205403645833336,0)" xlink:href="#az"/><use transform="matrix(0.010091145833333334,0,0,0.010091145833333334,29.41569010416667,0)" xlink:href="#aF"/><use transform="matrix(0.010091145833333334,0,0,0.010091145833333334,41.02050781250001,0)" xlink:href="#aB"/></g><path d="M768-1560L288 224H28l480-1784h260" id="ca"/><path d="M440 22C227 22 68-92 68-313c0-250 202-322 422-343 195-21 271-24 271-105 0-95-63-149-175-149-116 0-187 57-211 129l-275-46c57-194 237-305 487-305 240 0 474 108 474 379V0H777v-155h-10C713-51 605 22 440 22zm85-211c140 0 238-93 238-211v-121c-37 26-156 42-222 51-111 16-185 59-185 149 0 87 70 132 169 132" id="cb"/><path d="M128 418v-1536h295v188h14c41-89 129-202 319-202 248 0 453 193 453 575 0 372-197 576-455 576-183 0-275-108-317-198h-9v597H128zm534-640c156 0 240-139 240-336 0-196-83-334-240-334-154 0-241 131-241 334 0 202 88 336 241 336" id="cc"/><path d="M128 0v-1118h300V0H128zm150-1264c-91 0-165-68-165-154 0-85 74-154 165-154 90 0 165 69 165 154 0 86-75 154-165 154" id="cd"/><path d="M659 0H135v-1490h529c448 0 721 280 721 744 0 466-273 746-726 746zM440-263h204c287 0 437-148 437-483 0-333-150-481-435-481H440v964" id="ce"/><path d="M633 22C291 22 81-200 81-553c0-345 210-579 537-579 292 0 525 185 525 567v84H378c7 183 109 277 260 277 105 0 184-46 216-132l272 51C1071-99 893 22 633 22zM380-669h474c-15-146-94-237-233-237-143 0-229 99-241 237" id="cf"/><path d="M428-1490V0H128v-1490h300" id="cg"/><path d="M443 0L31-1118h319c90 293 199 572 268 885 66-313 175-593 264-885h315L784 0H443" id="ch"/><path d="M128 0v-1118h290v195h12c54-169 184-238 367-200v268c-27-8-86-15-130-15-138 0-239 95-239 234V0H128" id="ci"/><path d="M120 396l69-226c123 42 245 23 254-107l8-60L31-1118h319c87 288 199 559 259 872 72-308 185-583 277-872h315L726 132c-68 181-186 294-410 294-79 0-153-13-196-30" id="cj"/><path d="M135 0v-1490h581c339 0 533 192 533 485 0 204-94 351-264 424L1302 0H964L680-532H440V0H135zm305-779h220c186 0 274-77 274-226 0-150-88-233-275-233H440v459" id="ck"/><path d="M1163 418H863v-597h-10C812-89 719 19 537 19 279 19 81-185 81-557c0-382 206-575 454-575 190 0 278 113 318 202h15v-188h295V418zM629-222c153 0 240-134 240-336 0-203-86-334-240-334-158 0-240 138-240 334 0 197 84 336 240 336" id="cl"/><path d="M513 14c-232 0-385-159-385-421v-711h300v659c0 139 76 222 202 222 127 0 217-86 217-234v-647h301V0H864l-4-232C797-74 683 14 513 14" id="cm"/><path d="M572 22C302 22 117-98 78-306l279-48c29 105 101 156 224 156 114 0 185-48 185-115 0-118-228-130-337-155-215-49-322-150-322-317 0-215 187-347 470-347 265 0 424 116 466 298l-266 47c-24-76-87-130-196-130-98 0-174 46-174 113 0 56 38 95 144 117l201 40c216 44 320 143 320 302 0 220-207 367-500 367" id="cn"/><path d="M683-1118v229H474v562c0 71 29 104 102 104 23 0 73-7 95-13l43 225C647 9 580 16 520 16 296 16 174-96 174-301v-588H20v-229h154v-266h300v266h209" id="co"/><path d="M681 22C323 22 94-145 85-462h297c10 151 131 226 296 226 163 0 271-77 271-190 0-102-95-149-257-189l-164-41c-252-61-403-188-403-405 0-269 236-449 560-449 330 0 546 183 551 445H941c-11-119-106-188-259-188-156 0-244 72-244 172-3 156 226 185 373 221 250 61 445 186 445 436 0 271-213 446-575 446" id="cp"/><path d="M428-647V0H128v-1118h283l4 231c63-156 176-245 348-245 232 0 384 159 384 421V0H847v-659c0-139-76-222-202-222-128 0-217 86-217 234" id="cq"/><path d="M628 22C291 22 81-210 81-554c0-346 210-578 547-578 265 0 455 142 497 372l-279 52c-25-116-99-188-215-188-160 0-244 139-244 341 0 200 84 341 244 341 116 0 193-74 217-195l279 51C1085-123 896 22 628 22" id="cr"/><g id="ae"><use transform="matrix(0.008173828125000001,0,0,0.008173828125000001,0,0)" xlink:href="#ca"/><use transform="matrix(0.008173828125000001,0,0,0.008173828125000001,6.4981933593750005,0)" xlink:href="#cb"/><use transform="matrix(0.008173828125000001,0,0,0.008173828125000001,16.216875,0)" xlink:href="#cc"/><use transform="matrix(0.008173828125000001,0,0,0.008173828125000001,26.769287109375004,0)" xlink:href="#cd"/><use transform="matrix(0.008173828125000001,0,0,0.008173828125000001,31.305761718750006,0)" xlink:href="#ca"/><use transform="matrix(0.008173828125000001,0,0,0.008173828125000001,37.80395507812501,0)" xlink:href="#ce"/><use transform="matrix(0.008173828125000001,0,0,0.008173828125000001,49.89304687500001,0)" xlink:href="#cf"/><use transform="matrix(0.008173828125000001,0,0,0.008173828125000001,59.86511718750001,0)" xlink:href="#cg"/><use transform="matrix(0.008173828125000001,0,0,0.008173828125000001,64.40159179687501,0)" xlink:href="#cd"/><use transform="matrix(0.008173828125000001,0,0,0.008173828125000001,68.93806640625003,0)" xlink:href="#ch"/><use transform="matrix(0.008173828125000001,0,0,0.008173828125000001,78.67309570312501,0)" xlink:href="#cf"/><use transform="matrix(0.008173828125000001,0,0,0.008173828125000001,88.64516601562502,0)" xlink:href="#ci"/><use transform="matrix(0.008173828125000001,0,0,0.008173828125000001,95.72370117187502,0)" xlink:href="#cj"/><use transform="matrix(0.008173828125000001,0,0,0.008173828125000001,105.84290039062503,0)" xlink:href="#ck"/><use transform="matrix(0.008173828125000001,0,0,0.008173828125000001,116.63235351562503,0)" xlink:href="#cf"/><use transform="matrix(0.008173828125000001,0,0,0.008173828125000001,126.60442382812502,0)" xlink:href="#cl"/><use transform="matrix(0.008173828125000001,0,0,0.008173828125000001,137.15683593750003,0)" xlink:href="#cm"/><use transform="matrix(0.008173828125000001,0,0,0.008173828125000001,147.57846679687503,0)" xlink:href="#cf"/><use transform="matrix(0.008173828125000001,0,0,0.008173828125000001,157.55053710937503,0)" xlink:href="#cn"/><use transform="matrix(0.008173828125000001,0,0,0.008173828125000001,166.92591796875004,0)" xlink:href="#co"/><use transform="matrix(0.008173828125000001,0,0,0.008173828125000001,173.05628906250004,0)" xlink:href="#ca"/><use transform="matrix(0.008173828125000001,0,0,0.008173828125000001,179.55448242187506,0)" xlink:href="#cp"/><use transform="matrix(0.008173828125000001,0,0,0.008173828125000001,190.51558593750005,0)" xlink:href="#cj"/><use transform="matrix(0.008173828125000001,0,0,0.008173828125000001,200.59391601562504,0)" xlink:href="#cq"/><use transform="matrix(0.008173828125000001,0,0,0.008173828125000001,211.01554687500004,0)" xlink:href="#cr"/></g><path d="M49 0l509-1490h400L1480 0h-339l-115-346H497L386 0H49zm524-585h374c-75-213-124-402-192-666-66 268-110 453-182 666" id="cs"/><path d="M135 0v-1490h581c339 0 533 210 533 503 0 295-197 500-540 500H440V0H135zm305-733h220c186 0 274-104 274-254s-88-251-275-251H440v505" id="ct"/><path d="M789 20C394 20 94-260 94-744c0-487 300-766 695-766s695 279 695 766c0 485-300 764-695 764zm0-271c231 0 385-174 385-493 0-321-154-495-385-495s-385 175-385 495c0 319 154 493 385 493" id="cu"/><path d="M571 0L49-1490h339c138 427 271 775 384 1244 111-471 237-815 371-1244h337L970 0H571" id="cv"/><path d="M135 0v-1490h997v253H440v360h640v249H440v375h694V0H135" id="cw"/><g id="af"><use transform="matrix(0.008173828125000001,0,0,0.008173828125000001,0,0)" xlink:href="#cs"/><use transform="matrix(0.008173828125000001,0,0,0.008173828125000001,12.497783203125001,0)" xlink:href="#ct"/><use transform="matrix(0.008173828125000001,0,0,0.008173828125000001,23.344453125,0)" xlink:href="#ct"/><use transform="matrix(0.008173828125000001,0,0,0.008173828125000001,34.191123046875006,0)" xlink:href="#ck"/><use transform="matrix(0.008173828125000001,0,0,0.008173828125000001,45.18492187500001,0)" xlink:href="#cu"/><use transform="matrix(0.008173828125000001,0,0,0.008173828125000001,57.41296875000001,0)" xlink:href="#cv"/><use transform="matrix(0.008173828125000001,0,0,0.008173828125000001,69.91075195312501,0)" xlink:href="#cw"/><use transform="matrix(0.008173828125000001,0,0,0.008173828125000001,80.07899414062501,0)" xlink:href="#ce"/></g><path fill="#0a3069" d="M326-731c0 353 139 584 471 588 87 0 196-19 327-58v162c-97 39-217 59-358 59-433-1-637-301-637-753 0-438 243-750 668-750 147 0 274 29 383 86l-78 156c-103-52-204-78-305-78-307 1-471 259-471 588" id="cx"/><path fill="#0a3069" d="M977 0v-707c0-97-9-165-27-203s-47-57-88-57c-58 0-100 28-126 83s-40 148-40 278V0H535v-707c0-173-42-260-125-260-56 0-96 26-120 79s-36 160-36 319V0H92v-1098h127l27 148h10c45-112 112-168 201-168 109 0 180 61 213 182h6c51-121 124-182 219-182 85 0 147 30 186 92s58 165 58 309V0H977" id="cy"/><g id="ag"><use transform="matrix(0.0078125,0,0,0.0078125,0,0)" xlink:href="#cx"/><use transform="matrix(0.0078125,0,0,0.0078125,9.6015625,0)" xlink:href="#bF"/><use transform="matrix(0.0078125,0,0,0.0078125,19.203125,0)" xlink:href="#cy"/><use transform="matrix(0.0078125,0,0,0.0078125,28.8046875,0)" xlink:href="#bM"/><use transform="matrix(0.0078125,0,0,0.0078125,38.40625,0)" xlink:href="#bV"/><use transform="matrix(0.0078125,0,0,0.0078125,48.0078125,0)" xlink:href="#bJ"/><use transform="matrix(0.0078125,0,0,0.0078125,57.609375,0)" xlink:href="#bL"/><use transform="matrix(0.0078125,0,0,0.0078125,67.2109375,0)" xlink:href="#bJ"/><use transform="matrix(0.0078125,0,0,0.0078125,76.8125,0)" xlink:href="#bI"/></g><g id="ah"><use transform="matrix(0.010091145833333334,0,0,0.010091145833333334,0,0)" xlink:href="#al"/><use transform="matrix(0.010091145833333334,0,0,0.010091145833333334,13.259765625,0)" xlink:href="#am"/><use transform="matrix(0.010091145833333334,0,0,0.010091145833333334,25.30859375,0)" xlink:href="#az"/><use transform="matrix(0.010091145833333334,0,0,0.010091145833333334,37.518880208333336,0)" xlink:href="#at"/></g><g id="ai"><use transform="matrix(0.010091145833333334,0,0,0.010091145833333334,0,0)" xlink:href="#ar"/><use transform="matrix(0.010091145833333334,0,0,0.010091145833333334,13.19921875,0)" xlink:href="#aF"/><use transform="matrix(0.010091145833333334,0,0,0.010091145833333334,24.501302083333336,0)" xlink:href="#ay"/><use transform="matrix(0.010091145833333334,0,0,0.010091145833333334,36.1162109375,0)" xlink:href="#bC"/><use transform="matrix(0.010091145833333334,0,0,0.010091145833333334,54.2197265625,0)" xlink:href="#am"/><use transform="matrix(0.010091145833333334,0,0,0.010091145833333334,66.2685546875,0)" xlink:href="#az"/><use transform="matrix(0.010091145833333334,0,0,0.010091145833333334,78.47884114583333,0)" xlink:href="#aE"/></g><g id="aj"><use transform="matrix(0.010091145833333334,0,0,0.010091145833333334,0,0)" xlink:href="#aE"/><use transform="matrix(0.010091145833333334,0,0,0.010091145833333334,6.559244791666667,0)" xlink:href="#as"/></g><path d="M180 0v-1490h528c311 0 458 177 458 395 0 191-114 278-244 313v14c139 9 302 137 302 371 0 225-148 397-499 397H180zm190-168h350c232 0 321-102 321-231 0-149-120-277-311-277H370v508zm0-668h328c160 0 286-101 286-255 0-129-87-231-280-231H370v486" id="cz"/><g id="ak"><use transform="matrix(0.010091145833333334,0,0,0.010091145833333334,0,0)" xlink:href="#cz"/><use transform="matrix(0.010091145833333334,0,0,0.010091145833333334,13.522135416666668,0)" xlink:href="#am"/><use transform="matrix(0.010091145833333334,0,0,0.010091145833333334,25.570963541666668,0)" xlink:href="#az"/><use transform="matrix(0.010091145833333334,0,0,0.010091145833333334,37.78125,0)" xlink:href="#am"/><use transform="matrix(0.010091145833333334,0,0,0.010091145833333334,49.830078125,0)" xlink:href="#bd"/><use transform="matrix(0.010091145833333334,0,0,0.010091145833333334,57.479166666666664,0)" xlink:href="#ap"/><use transform="matrix(0.010091145833333334,0,0,0.010091145833333334,62.48437500000001,0)" xlink:href="#aq"/><use transform="matrix(0.010091145833333334,0,0,0.010091145833333334,74.291015625,0)" xlink:href="#ap"/><use transform="matrix(0.010091145833333334,0,0,0.010091145833333334,79.29622395833333,0)" xlink:href="#aF"/><use transform="matrix(0.010091145833333334,0,0,0.010091145833333334,90.90104166666666,0)" xlink:href="#an"/><use transform="matrix(0.010091145833333334,0,0,0.010091145833333334,99.00423177083331,0)" xlink:href="#ap"/><use transform="matrix(0.010091145833333334,0,0,0.010091145833333334,104.00944010416666,0)" xlink:href="#am"/><use transform="matrix(0.010091145833333334,0,0,0.010091145833333334,116.05826822916666,0)" xlink:href="#av"/></g></defs></g></svg>