<svg xmlns="http://www.w3.org/2000/svg" xmlns:xlink="http://www.w3.org/1999/xlink" xmlns:lucid="lucid" width="1242" height="2150"><g transform="translate(-479 1760)" lucid:page-tab-id="oNXjoL1S0rNY"><path d="M0-2000h2000V500H0z" fill="#fff"/><path d="M480-674a6 6 0 0 1 6-6h1228a6 6 0 0 1 6 6V374a6 6 0 0 1-6 6H486a6 6 0 0 1-6-6z" stroke="#282c33" stroke-width="2" fill="#cfe4ff"/><path d="M480-994a6 6 0 0 1 6-6h1228a6 6 0 0 1 6 6v248a6 6 0 0 1-6 6H486a6 6 0 0 1-6-6z" stroke="#282c33" stroke-width="2" fill="#d7faf5"/><path d="M480-1654a6 6 0 0 1 6-6h1228a6 6 0 0 1 6 6v608a6 6 0 0 1-6 6H486a6 6 0 0 1-6-6z" stroke="#282c33" stroke-width="2" fill="#dfe3e8"/><path d="M1018.7-1759V389" fill="none"/><path d="M1018.7-1758c-.54 0-1-.45-1-1s.46-1 1-1c.57 0 1 .45 1 1s-.43 1-1 1zm0 7.98c-.54 0-1-.44-1-1 0-.55.46-1 1-1 .57 0 1 .45 1 1 0 .56-.43 1-1 1zm0 8c-.54 0-1-.46-1-1 0-.56.46-1 1-1 .57 0 1 .44 1 1 0 .54-.43 1-1 1zm0 7.98c-.54 0-1-.45-1-1 0-.56.46-1 1-1 .57 0 1 .44 1 1 0 .55-.43 1-1 1zm0 7.98c-.54 0-1-.45-1-1s.46-1 1-1c.57 0 1 .45 1 1s-.43 1-1 1zm0 8c-.54 0-1-.46-1-1 0-.57.46-1 1-1 .57 0 1 .43 1 1 0 .54-.43 1-1 1zm0 7.97c-.54 0-1-.44-1-1 0-.54.46-1 1-1 .57 0 1 .46 1 1 0 .56-.43 1-1 1zm0 8c-.54 0-1-.45-1-1 0-.56.46-1 1-1 .57 0 1 .44 1 1 0 .55-.43 1-1 1zm0 7.98c-.54 0-1-.45-1-1s.46-1 1-1c.57 0 1 .45 1 1s-.43 1-1 1zm0 8c-.54 0-1-.46-1-1 0-.57.46-1 1-1 .57 0 1 .43 1 1 0 .54-.43 1-1 1zm0 7.97c-.54 0-1-.45-1-1s.46-1 1-1c.57 0 1 .45 1 1s-.43 1-1 1zm0 8c-.54 0-1-.46-1-1 0-.57.46-1 1-1 .57 0 1 .43 1 1 0 .54-.43 1-1 1zm0 7.97c-.54 0-1-.45-1-1s.46-1 1-1c.57 0 1 .45 1 1s-.43 1-1 1zm0 8c-.54 0-1-.46-1-1 0-.57.46-1 1-1 .57 0 1 .43 1 1 0 .54-.43 1-1 1zm0 7.97c-.54 0-1-.46-1-1 0-.56.46-1 1-1 .57 0 1 .44 1 1 0 .54-.43 1-1 1zm0 7.98c-.54 0-1-.45-1-1 0-.56.46-1 1-1 .57 0 1 .44 1 1 0 .55-.43 1-1 1zm0 7.98c-.54 0-1-.45-1-1s.46-1 1-1c.57 0 1 .45 1 1s-.43 1-1 1zm0 8c-.54 0-1-.46-1-1 0-.57.46-1 1-1 .57 0 1 .43 1 1 0 .54-.43 1-1 1zm0 7.97c-.54 0-1-.45-1-1s.46-1 1-1c.57 0 1 .45 1 1s-.43 1-1 1zm0 8c-.54 0-1-.46-1-1 0-.57.46-1 1-1 .57 0 1 .43 1 1 0 .54-.43 1-1 1zm0 7.97c-.54 0-1-.45-1-1s.46-1 1-1c.57 0 1 .45 1 1s-.43 1-1 1zm0 8c-.54 0-1-.46-1-1 0-.56.46-1 1-1 .57 0 1 .44 1 1 0 .54-.43 1-1 1zm0 7.97c-.54 0-1-.45-1-1s.46-1 1-1c.57 0 1 .45 1 1s-.43 1-1 1zm0 8c-.54 0-1-.46-1-1 0-.56.46-1 1-1 .57 0 1 .44 1 1 0 .54-.43 1-1 1zm0 7.97c-.54 0-1-.44-1-1 0-.55.46-1 1-1 .57 0 1 .45 1 1 0 .56-.43 1-1 1zm0 8c-.54 0-1-.46-1-1 0-.56.46-1 1-1 .57 0 1 .44 1 1 0 .54-.43 1-1 1zm0 7.97c-.54 0-1-.43-1-1 0-.54.46-1 1-1 .57 0 1 .46 1 1 0 .57-.43 1-1 1zm0 8c-.54 0-1-.45-1-1s.46-1 1-1c.57 0 1 .45 1 1s-.43 1-1 1zm0 7.98c-.54 0-1-.44-1-1 0-.55.46-1 1-1 .57 0 1 .45 1 1 0 .56-.43 1-1 1zm0 8c-.54 0-1-.46-1-1 0-.56.46-1 1-1 .57 0 1 .44 1 1 0 .54-.43 1-1 1zm0 7.97c-.54 0-1-.44-1-1 0-.55.46-1 1-1 .57 0 1 .45 1 1 0 .56-.43 1-1 1zm0 8c-.54 0-1-.46-1-1 0-.56.46-1 1-1 .57 0 1 .44 1 1 0 .54-.43 1-1 1zm0 7.97c-.54 0-1-.44-1-1 0-.55.46-1 1-1 .57 0 1 .45 1 1 0 .56-.43 1-1 1zm0 8c-.54 0-1-.46-1-1 0-.56.46-1 1-1 .57 0 1 .44 1 1 0 .54-.43 1-1 1zm0 7.97c-.54 0-1-.45-1-1 0-.56.46-1 1-1 .57 0 1 .44 1 1 0 .55-.43 1-1 1zm0 7.98c-.54 0-1-.45-1-1s.46-1 1-1c.57 0 1 .45 1 1s-.43 1-1 1zm0 7.98c-.54 0-1-.44-1-1 0-.55.46-1 1-1 .57 0 1 .45 1 1 0 .56-.43 1-1 1zm0 8c-.54 0-1-.46-1-1 0-.56.46-1 1-1 .57 0 1 .44 1 1 0 .54-.43 1-1 1zm0 7.97c-.54 0-1-.44-1-1 0-.55.46-1 1-1 .57 0 1 .45 1 1 0 .56-.43 1-1 1zm0 8c-.54 0-1-.46-1-1 0-.56.46-1 1-1 .57 0 1 .44 1 1 0 .54-.43 1-1 1zm0 7.97c-.54 0-1-.44-1-1 0-.55.46-1 1-1 .57 0 1 .45 1 1 0 .56-.43 1-1 1zm0 8c-.54 0-1-.46-1-1 0-.56.46-1 1-1 .57 0 1 .44 1 1 0 .54-.43 1-1 1zm0 7.98c-.54 0-1-.45-1-1 0-.56.46-1 1-1 .57 0 1 .44 1 1 0 .55-.43 1-1 1zm0 7.98c-.54 0-1-.45-1-1s.46-1 1-1c.57 0 1 .45 1 1s-.43 1-1 1zm0 8c-.54 0-1-.46-1-1 0-.57.46-1 1-1 .57 0 1 .43 1 1 0 .54-.43 1-1 1zm0 7.97c-.54 0-1-.45-1-1s.46-1 1-1c.57 0 1 .45 1 1s-.43 1-1 1zm0 8c-.54 0-1-.46-1-1 0-.57.46-1 1-1 .57 0 1 .43 1 1 0 .54-.43 1-1 1zm0 7.97c-.54 0-1-.45-1-1s.46-1 1-1c.57 0 1 .45 1 1s-.43 1-1 1zm0 8c-.54 0-1-.46-1-1 0-.57.46-1 1-1 .57 0 1 .43 1 1 0 .54-.43 1-1 1zm0 7.97c-.54 0-1-.45-1-1s.46-1 1-1c.57 0 1 .45 1 1s-.43 1-1 1zm0 8c-.54 0-1-.46-1-1 0-.57.46-1 1-1 .57 0 1 .43 1 1 0 .54-.43 1-1 1zm0 7.97c-.54 0-1-.45-1-1s.46-1 1-1c.57 0 1 .45 1 1s-.43 1-1 1zm0 8c-.54 0-1-.46-1-1 0-.57.46-1 1-1 .57 0 1 .43 1 1 0 .54-.43 1-1 1zm0 7.97c-.54 0-1-.44-1-1 0-.54.46-1 1-1 .57 0 1 .46 1 1 0 .56-.43 1-1 1zm0 8c-.54 0-1-.45-1-1 0-.56.46-1 1-1 .57 0 1 .44 1 1 0 .55-.43 1-1 1zm0 7.98c-.54 0-1-.45-1-1s.46-1 1-1c.57 0 1 .45 1 1s-.43 1-1 1zm0 8c-.54 0-1-.46-1-1 0-.57.46-1 1-1 .57 0 1 .43 1 1 0 .54-.43 1-1 1zm0 7.97c-.54 0-1-.45-1-1s.46-1 1-1c.57 0 1 .45 1 1s-.43 1-1 1zm0 8c-.54 0-1-.46-1-1 0-.57.46-1 1-1 .57 0 1 .43 1 1 0 .54-.43 1-1 1zm0 7.97c-.54 0-1-.45-1-1s.46-1 1-1c.57 0 1 .45 1 1s-.43 1-1 1zm0 8c-.54 0-1-.46-1-1 0-.56.46-1 1-1 .57 0 1 .44 1 1 0 .54-.43 1-1 1zm0 7.97c-.54 0-1-.46-1-1 0-.56.46-1 1-1 .57 0 1 .44 1 1 0 .54-.43 1-1 1zm0 7.98c-.54 0-1-.45-1-1s.46-1 1-1c.57 0 1 .45 1 1s-.43 1-1 1zm0 7.98c-.54 0-1-.44-1-1 0-.55.46-1 1-1 .57 0 1 .45 1 1 0 .56-.43 1-1 1zm0 8c-.54 0-1-.46-1-1 0-.56.46-1 1-1 .57 0 1 .44 1 1 0 .54-.43 1-1 1zm0 7.97c-.54 0-1-.44-1-1 0-.55.46-1 1-1 .57 0 1 .45 1 1 0 .56-.43 1-1 1zm0 8c-.54 0-1-.46-1-1 0-.56.46-1 1-1 .57 0 1 .44 1 1 0 .54-.43 1-1 1zm0 7.97c-.54 0-1-.44-1-1 0-.55.46-1 1-1 .57 0 1 .45 1 1 0 .56-.43 1-1 1zm0 8c-.54 0-1-.46-1-1 0-.56.46-1 1-1 .57 0 1 .44 1 1 0 .54-.43 1-1 1zm0 7.97c-.54 0-1-.44-1-1 0-.55.46-1 1-1 .57 0 1 .45 1 1 0 .56-.43 1-1 1zm0 8c-.54 0-1-.46-1-1 0-.56.46-1 1-1 .57 0 1 .44 1 1 0 .54-.43 1-1 1zm0 7.97c-.54 0-1-.44-1-1 0-.55.46-1 1-1 .57 0 1 .45 1 1 0 .56-.43 1-1 1zm0 8c-.54 0-1-.46-1-1 0-.56.46-1 1-1 .57 0 1 .44 1 1 0 .54-.43 1-1 1zm0 7.97c-.54 0-1-.43-1-1 0-.54.46-1 1-1 .57 0 1 .46 1 1 0 .57-.43 1-1 1zm0 8c-.54 0-1-.45-1-1s.46-1 1-1c.57 0 1 .45 1 1s-.43 1-1 1zm0 7.98c-.54 0-1-.44-1-1 0-.55.46-1 1-1 .57 0 1 .45 1 1 0 .56-.43 1-1 1zm0 8c-.54 0-1-.46-1-1 0-.56.46-1 1-1 .57 0 1 .44 1 1 0 .54-.43 1-1 1zm0 7.97c-.54 0-1-.44-1-1 0-.55.46-1 1-1 .57 0 1 .45 1 1 0 .56-.43 1-1 1zm0 8c-.54 0-1-.46-1-1 0-.56.46-1 1-1 .57 0 1 .44 1 1 0 .54-.43 1-1 1zm0 7.97c-.54 0-1-.44-1-1 0-.55.46-1 1-1 .57 0 1 .45 1 1 0 .56-.43 1-1 1zm0 8c-.54 0-1-.46-1-1 0-.56.46-1 1-1 .57 0 1 .44 1 1 0 .54-.43 1-1 1zm0 7.98c-.54 0-1-.45-1-1 0-.56.46-1 1-1 .57 0 1 .44 1 1 0 .55-.43 1-1 1zm0 7.98c-.54 0-1-.45-1-1s.46-1 1-1c.57 0 1 .45 1 1s-.43 1-1 1zm0 8c-.54 0-1-.46-1-1 0-.57.46-1 1-1 .57 0 1 .43 1 1 0 .54-.43 1-1 1zm0 7.97c-.54 0-1-.45-1-1s.46-1 1-1c.57 0 1 .45 1 1s-.43 1-1 1zm0 8c-.54 0-1-.46-1-1 0-.57.46-1 1-1 .57 0 1 .43 1 1 0 .54-.43 1-1 1zm0 7.97c-.54 0-1-.45-1-1s.46-1 1-1c.57 0 1 .45 1 1s-.43 1-1 1zm0 8c-.54 0-1-.46-1-1 0-.57.46-1 1-1 .57 0 1 .43 1 1 0 .54-.43 1-1 1zm0 7.97c-.54 0-1-.46-1-1 0-.56.46-1 1-1 .57 0 1 .44 1 1 0 .54-.43 1-1 1zm0 7.98c-.54 0-1-.45-1-1 0-.56.46-1 1-1 .57 0 1 .44 1 1 0 .55-.43 1-1 1zm0 7.98c-.54 0-1-.45-1-1s.46-1 1-1c.57 0 1 .45 1 1s-.43 1-1 1zm0 8c-.54 0-1-.46-1-1 0-.57.46-1 1-1 .57 0 1 .43 1 1 0 .54-.43 1-1 1zm0 7.97c-.54 0-1-.45-1-1s.46-1 1-1c.57 0 1 .45 1 1s-.43 1-1 1zm0 8c-.54 0-1-.46-1-1 0-.57.46-1 1-1 .57 0 1 .43 1 1 0 .54-.43 1-1 1zm0 7.97c-.54 0-1-.45-1-1s.46-1 1-1c.57 0 1 .45 1 1s-.43 1-1 1zm0 8c-.54 0-1-.46-1-1 0-.57.46-1 1-1 .57 0 1 .43 1 1 0 .54-.43 1-1 1zm0 7.97c-.54 0-1-.45-1-1s.46-1 1-1c.57 0 1 .45 1 1s-.43 1-1 1zm0 8c-.54 0-1-.46-1-1 0-.57.46-1 1-1 .57 0 1 .43 1 1 0 .54-.43 1-1 1zm0 7.97c-.54 0-1-.45-1-1s.46-1 1-1c.57 0 1 .45 1 1s-.43 1-1 1zm0 8c-.54 0-1-.46-1-1 0-.56.46-1 1-1 .57 0 1 .44 1 1 0 .54-.43 1-1 1zm0 7.97c-.54 0-1-.44-1-1 0-.54.46-1 1-1 .57 0 1 .46 1 1 0 .56-.43 1-1 1zm0 8c-.54 0-1-.45-1-1s.46-1 1-1c.57 0 1 .45 1 1s-.43 1-1 1zm0 7.98c-.54 0-1-.44-1-1 0-.55.46-1 1-1 .57 0 1 .45 1 1 0 .56-.43 1-1 1zm0 8c-.54 0-1-.46-1-1 0-.56.46-1 1-1 .57 0 1 .44 1 1 0 .54-.43 1-1 1zm0 7.97c-.54 0-1-.44-1-1 0-.55.46-1 1-1 .57 0 1 .45 1 1 0 .56-.43 1-1 1zm0 8c-.54 0-1-.46-1-1 0-.56.46-1 1-1 .57 0 1 .44 1 1 0 .54-.43 1-1 1zm0 7.97c-.54 0-1-.44-1-1 0-.55.46-1 1-1 .57 0 1 .45 1 1 0 .56-.43 1-1 1zm0 8c-.54 0-1-.46-1-1 0-.56.46-1 1-1 .57 0 1 .44 1 1 0 .54-.43 1-1 1zm0 7.97c-.54 0-1-.45-1-1 0-.56.46-1 1-1 .57 0 1 .44 1 1 0 .55-.43 1-1 1zm0 7.98c-.54 0-1-.45-1-1s.46-1 1-1c.57 0 1 .45 1 1s-.43 1-1 1zm0 7.98c-.54 0-1-.44-1-1 0-.55.46-1 1-1 .57 0 1 .45 1 1 0 .56-.43 1-1 1zm0 8c-.54 0-1-.46-1-1 0-.56.46-1 1-1 .57 0 1 .44 1 1 0 .54-.43 1-1 1zm0 7.97c-.54 0-1-.44-1-1 0-.55.46-1 1-1 .57 0 1 .45 1 1 0 .56-.43 1-1 1zm0 8c-.54 0-1-.46-1-1 0-.56.46-1 1-1 .57 0 1 .44 1 1 0 .54-.43 1-1 1zm0 7.97c-.54 0-1-.44-1-1 0-.55.46-1 1-1 .57 0 1 .45 1 1 0 .56-.43 1-1 1zm0 8c-.54 0-1-.46-1-1 0-.56.46-1 1-1 .57 0 1 .44 1 1 0 .54-.43 1-1 1zm0 7.97c-.54 0-1-.44-1-1 0-.55.46-1 1-1 .57 0 1 .45 1 1 0 .56-.43 1-1 1zm0 8c-.54 0-1-.46-1-1 0-.56.46-1 1-1 .57 0 1 .44 1 1 0 .54-.43 1-1 1zm0 7.97c-.54 0-1-.44-1-1 0-.55.46-1 1-1 .57 0 1 .45 1 1 0 .56-.43 1-1 1zm0 8c-.54 0-1-.46-1-1 0-.56.46-1 1-1 .57 0 1 .44 1 1 0 .54-.43 1-1 1zm0 7.98c-.54 0-1-.45-1-1 0-.56.46-1 1-1 .57 0 1 .44 1 1 0 .55-.43 1-1 1zm0 7.98c-.54 0-1-.45-1-1s.46-1 1-1c.57 0 1 .45 1 1s-.43 1-1 1zm0 8c-.54 0-1-.46-1-1 0-.57.46-1 1-1 .57 0 1 .43 1 1 0 .54-.43 1-1 1zm0 7.97c-.54 0-1-.45-1-1s.46-1 1-1c.57 0 1 .45 1 1s-.43 1-1 1zm0 8c-.54 0-1-.46-1-1 0-.57.46-1 1-1 .57 0 1 .43 1 1 0 .54-.43 1-1 1zm0 7.97c-.54 0-1-.45-1-1s.46-1 1-1c.57 0 1 .45 1 1s-.43 1-1 1zm0 8c-.54 0-1-.46-1-1 0-.57.46-1 1-1 .57 0 1 .43 1 1 0 .54-.43 1-1 1zm0 7.97c-.54 0-1-.44-1-1 0-.54.46-1 1-1 .57 0 1 .46 1 1 0 .56-.43 1-1 1zm0 8c-.54 0-1-.45-1-1 0-.56.46-1 1-1 .57 0 1 .44 1 1 0 .55-.43 1-1 1zm0 7.98c-.54 0-1-.45-1-1s.46-1 1-1c.57 0 1 .45 1 1s-.43 1-1 1zm0 8c-.54 0-1-.46-1-1 0-.57.46-1 1-1 .57 0 1 .43 1 1 0 .54-.43 1-1 1zm0 7.97c-.54 0-1-.45-1-1s.46-1 1-1c.57 0 1 .45 1 1s-.43 1-1 1zm0 8c-.54 0-1-.46-1-1 0-.57.46-1 1-1 .57 0 1 .43 1 1 0 .54-.43 1-1 1zm0 7.97c-.54 0-1-.45-1-1s.46-1 1-1c.57 0 1 .45 1 1s-.43 1-1 1zm0 8c-.54 0-1-.46-1-1 0-.57.46-1 1-1 .57 0 1 .43 1 1 0 .54-.43 1-1 1zm0 7.97c-.54 0-1-.46-1-1 0-.56.46-1 1-1 .57 0 1 .44 1 1 0 .54-.43 1-1 1zm0 7.98c-.54 0-1-.45-1-1s.46-1 1-1c.57 0 1 .45 1 1s-.43 1-1 1zm0 7.98c-.54 0-1-.45-1-1s.46-1 1-1c.57 0 1 .45 1 1s-.43 1-1 1zm0 8c-.54 0-1-.46-1-1 0-.56.46-1 1-1 .57 0 1 .44 1 1 0 .54-.43 1-1 1zm0 7.97c-.54 0-1-.45-1-1s.46-1 1-1c.57 0 1 .45 1 1s-.43 1-1 1zm0 8c-.54 0-1-.46-1-1 0-.56.46-1 1-1 .57 0 1 .44 1 1 0 .54-.43 1-1 1zm0 7.97c-.54 0-1-.44-1-1 0-.55.46-1 1-1 .57 0 1 .45 1 1 0 .56-.43 1-1 1zm0 8c-.54 0-1-.46-1-1 0-.56.46-1 1-1 .57 0 1 .44 1 1 0 .54-.43 1-1 1zm0 7.97c-.54 0-1-.44-1-1 0-.55.46-1 1-1 .57 0 1 .45 1 1 0 .56-.43 1-1 1zm0 8c-.54 0-1-.46-1-1 0-.56.46-1 1-1 .57 0 1 .44 1 1 0 .54-.43 1-1 1zm0 7.97c-.54 0-1-.44-1-1 0-.55.46-1 1-1 .57 0 1 .45 1 1 0 .56-.43 1-1 1zm0 8c-.54 0-1-.46-1-1 0-.56.46-1 1-1 .57 0 1 .44 1 1 0 .54-.43 1-1 1zm0 7.97c-.54 0-1-.43-1-1 0-.54.46-1 1-1 .57 0 1 .46 1 1 0 .57-.43 1-1 1zm0 8c-.54 0-1-.45-1-1s.46-1 1-1c.57 0 1 .45 1 1s-.43 1-1 1zm0 7.98c-.54 0-1-.44-1-1 0-.55.46-1 1-1 .57 0 1 .45 1 1 0 .56-.43 1-1 1zm0 8c-.54 0-1-.46-1-1 0-.56.46-1 1-1 .57 0 1 .44 1 1 0 .54-.43 1-1 1zm0 7.97c-.54 0-1-.44-1-1 0-.55.46-1 1-1 .57 0 1 .45 1 1 0 .56-.43 1-1 1zm0 8c-.54 0-1-.46-1-1 0-.56.46-1 1-1 .57 0 1 .44 1 1 0 .54-.43 1-1 1zm0 7.97c-.54 0-1-.44-1-1 0-.55.46-1 1-1 .57 0 1 .45 1 1 0 .56-.43 1-1 1zm0 8c-.54 0-1-.46-1-1 0-.56.46-1 1-1 .57 0 1 .44 1 1 0 .54-.43 1-1 1zm0 7.97c-.54 0-1-.45-1-1 0-.56.46-1 1-1 .57 0 1 .44 1 1 0 .55-.43 1-1 1zm0 7.98c-.54 0-1-.45-1-1s.46-1 1-1c.57 0 1 .45 1 1s-.43 1-1 1zm0 8c-.54 0-1-.46-1-1 0-.57.46-1 1-1 .57 0 1 .43 1 1 0 .54-.43 1-1 1zm0 7.97c-.54 0-1-.45-1-1s.46-1 1-1c.57 0 1 .45 1 1s-.43 1-1 1zm0 8c-.54 0-1-.46-1-1 0-.57.46-1 1-1 .57 0 1 .43 1 1 0 .54-.43 1-1 1zm0 7.97c-.54 0-1-.45-1-1s.46-1 1-1c.57 0 1 .45 1 1s-.43 1-1 1zm0 8c-.54 0-1-.46-1-1 0-.57.46-1 1-1 .57 0 1 .43 1 1 0 .54-.43 1-1 1zm0 7.97c-.54 0-1-.46-1-1 0-.56.46-1 1-1 .57 0 1 .44 1 1 0 .54-.43 1-1 1zm0 7.98c-.54 0-1-.45-1-1 0-.56.46-1 1-1 .57 0 1 .44 1 1 0 .55-.43 1-1 1zm0 7.98c-.54 0-1-.45-1-1s.46-1 1-1c.57 0 1 .45 1 1s-.43 1-1 1zm0 8c-.54 0-1-.46-1-1 0-.57.46-1 1-1 .57 0 1 .43 1 1 0 .54-.43 1-1 1zm0 7.97c-.54 0-1-.45-1-1s.46-1 1-1c.57 0 1 .45 1 1s-.43 1-1 1zm0 8c-.54 0-1-.46-1-1 0-.57.46-1 1-1 .57 0 1 .43 1 1 0 .54-.43 1-1 1zm0 7.97c-.54 0-1-.45-1-1s.46-1 1-1c.57 0 1 .45 1 1s-.43 1-1 1zm0 8c-.54 0-1-.46-1-1 0-.57.46-1 1-1 .57 0 1 .43 1 1 0 .54-.43 1-1 1zm0 7.97c-.54 0-1-.45-1-1s.46-1 1-1c.57 0 1 .45 1 1s-.43 1-1 1zm0 8c-.54 0-1-.46-1-1 0-.57.46-1 1-1 .57 0 1 .43 1 1 0 .54-.43 1-1 1zm0 7.97c-.54 0-1-.45-1-1s.46-1 1-1c.57 0 1 .45 1 1s-.43 1-1 1zm0 8c-.54 0-1-.46-1-1 0-.57.46-1 1-1 .57 0 1 .43 1 1 0 .54-.43 1-1 1zm0 7.97c-.54 0-1-.44-1-1 0-.54.46-1 1-1 .57 0 1 .46 1 1 0 .56-.43 1-1 1zm0 8c-.54 0-1-.45-1-1s.46-1 1-1c.57 0 1 .45 1 1s-.43 1-1 1zm0 7.98c-.54 0-1-.45-1-1s.46-1 1-1c.57 0 1 .45 1 1s-.43 1-1 1zm0 8c-.54 0-1-.46-1-1 0-.56.46-1 1-1 .57 0 1 .44 1 1 0 .54-.43 1-1 1zm0 7.97c-.54 0-1-.44-1-1 0-.55.46-1 1-1 .57 0 1 .45 1 1 0 .56-.43 1-1 1zm0 8c-.54 0-1-.46-1-1 0-.56.46-1 1-1 .57 0 1 .44 1 1 0 .54-.43 1-1 1zm0 7.97c-.54 0-1-.44-1-1 0-.55.46-1 1-1 .57 0 1 .45 1 1 0 .56-.43 1-1 1zm0 8c-.54 0-1-.46-1-1 0-.56.46-1 1-1 .57 0 1 .44 1 1 0 .54-.43 1-1 1zm0 7.97c-.54 0-1-.45-1-1 0-.56.46-1 1-1 .57 0 1 .44 1 1 0 .55-.43 1-1 1zm0 7.98c-.54 0-1-.45-1-1s.46-1 1-1c.57 0 1 .45 1 1s-.43 1-1 1zm0 7.98c-.54 0-1-.44-1-1 0-.55.46-1 1-1 .57 0 1 .45 1 1 0 .56-.43 1-1 1zm0 8c-.54 0-1-.46-1-1 0-.56.46-1 1-1 .57 0 1 .44 1 1 0 .54-.43 1-1 1zm0 7.97c-.54 0-1-.44-1-1 0-.55.46-1 1-1 .57 0 1 .45 1 1 0 .56-.43 1-1 1zm0 8c-.54 0-1-.46-1-1 0-.56.46-1 1-1 .57 0 1 .44 1 1 0 .54-.43 1-1 1zm0 7.97c-.54 0-1-.44-1-1 0-.55.46-1 1-1 .57 0 1 .45 1 1 0 .56-.43 1-1 1zm0 8c-.54 0-1-.46-1-1 0-.56.46-1 1-1 .57 0 1 .44 1 1 0 .54-.43 1-1 1zm0 7.97c-.54 0-1-.44-1-1 0-.55.46-1 1-1 .57 0 1 .45 1 1 0 .56-.43 1-1 1zm0 8c-.54 0-1-.46-1-1 0-.56.46-1 1-1 .57 0 1 .44 1 1 0 .54-.43 1-1 1zm0 7.97c-.54 0-1-.44-1-1 0-.55.46-1 1-1 .57 0 1 .45 1 1 0 .56-.43 1-1 1zm0 8c-.54 0-1-.46-1-1 0-.56.46-1 1-1 .57 0 1 .44 1 1 0 .54-.43 1-1 1zm0 7.97c-.54 0-1-.43-1-1 0-.54.46-1 1-1 .57 0 1 .46 1 1 0 .57-.43 1-1 1zm0 8c-.54 0-1-.45-1-1s.46-1 1-1c.57 0 1 .45 1 1s-.43 1-1 1zm0 8c-.54 0-1-.46-1-1 0-.57.46-1 1-1 .57 0 1 .43 1 1 0 .54-.43 1-1 1zm0 7.97c-.54 0-1-.45-1-1s.46-1 1-1c.57 0 1 .45 1 1s-.43 1-1 1zm0 8c-.54 0-1-.46-1-1 0-.57.46-1 1-1 .57 0 1 .43 1 1 0 .54-.43 1-1 1zm0 7.97c-.54 0-1-.45-1-1s.46-1 1-1c.57 0 1 .45 1 1s-.43 1-1 1zm0 8c-.54 0-1-.46-1-1 0-.57.46-1 1-1 .57 0 1 .43 1 1 0 .54-.43 1-1 1zm0 7.97c-.54 0-1-.44-1-1 0-.54.46-1 1-1 .57 0 1 .46 1 1 0 .56-.43 1-1 1zm0 8c-.54 0-1-.45-1-1 0-.56.46-1 1-1 .57 0 1 .44 1 1 0 .55-.43 1-1 1zm0 7.98c-.54 0-1-.45-1-1s.46-1 1-1c.57 0 1 .45 1 1s-.43 1-1 1zm0 8c-.54 0-1-.46-1-1 0-.57.46-1 1-1 .57 0 1 .43 1 1 0 .54-.43 1-1 1zm0 7.97c-.54 0-1-.45-1-1s.46-1 1-1c.57 0 1 .45 1 1s-.43 1-1 1zm0 8c-.54 0-1-.46-1-1 0-.57.46-1 1-1 .57 0 1 .43 1 1 0 .54-.43 1-1 1zm0 7.97c-.54 0-1-.45-1-1s.46-1 1-1c.57 0 1 .45 1 1s-.43 1-1 1zm0 8c-.54 0-1-.46-1-1 0-.57.46-1 1-1 .57 0 1 .43 1 1 0 .54-.43 1-1 1zm0 7.97c-.54 0-1-.46-1-1 0-.56.46-1 1-1 .57 0 1 .44 1 1 0 .54-.43 1-1 1zm0 7.98c-.54 0-1-.45-1-1 0-.56.46-1 1-1 .57 0 1 .44 1 1 0 .55-.43 1-1 1zm0 7.98c-.54 0-1-.45-1-1s.46-1 1-1c.57 0 1 .45 1 1s-.43 1-1 1zm0 8c-.54 0-1-.46-1-1 0-.57.46-1 1-1 .57 0 1 .43 1 1 0 .54-.43 1-1 1zm0 7.97c-.54 0-1-.45-1-1s.46-1 1-1c.57 0 1 .45 1 1s-.43 1-1 1zm0 8c-.54 0-1-.46-1-1 0-.56.46-1 1-1 .57 0 1 .44 1 1 0 .54-.43 1-1 1zm0 7.97c-.54 0-1-.45-1-1s.46-1 1-1c.57 0 1 .45 1 1s-.43 1-1 1zm0 8c-.54 0-1-.46-1-1 0-.56.46-1 1-1 .57 0 1 .44 1 1 0 .54-.43 1-1 1zm0 7.97c-.54 0-1-.44-1-1 0-.55.46-1 1-1 .57 0 1 .45 1 1 0 .56-.43 1-1 1zm0 8c-.54 0-1-.46-1-1 0-.56.46-1 1-1 .57 0 1 .44 1 1 0 .54-.43 1-1 1zm0 7.97c-.54 0-1-.44-1-1 0-.55.46-1 1-1 .57 0 1 .45 1 1 0 .56-.43 1-1 1zm0 8c-.54 0-1-.46-1-1 0-.56.46-1 1-1 .57 0 1 .44 1 1 0 .54-.43 1-1 1zm0 7.97c-.54 0-1-.43-1-1 0-.54.46-1 1-1 .57 0 1 .46 1 1 0 .57-.43 1-1 1zm0 8c-.54 0-1-.45-1-1s.46-1 1-1c.57 0 1 .45 1 1s-.43 1-1 1zm0 7.98c-.54 0-1-.44-1-1 0-.55.46-1 1-1 .57 0 1 .45 1 1 0 .56-.43 1-1 1zm0 8c-.54 0-1-.46-1-1 0-.56.46-1 1-1 .57 0 1 .44 1 1 0 .54-.43 1-1 1zm0 7.97c-.54 0-1-.44-1-1 0-.55.46-1 1-1 .57 0 1 .45 1 1 0 .56-.43 1-1 1zm0 8c-.54 0-1-.46-1-1 0-.56.46-1 1-1 .57 0 1 .44 1 1 0 .54-.43 1-1 1zm0 7.97c-.54 0-1-.44-1-1 0-.55.46-1 1-1 .57 0 1 .45 1 1 0 .56-.43 1-1 1zm0 8c-.54 0-1-.46-1-1 0-.56.46-1 1-1 .57 0 1 .44 1 1 0 .54-.43 1-1 1zm0 7.97c-.54 0-1-.45-1-1 0-.56.46-1 1-1 .57 0 1 .44 1 1 0 .55-.43 1-1 1zm0 7.98c-.54 0-1-.45-1-1s.46-1 1-1c.57 0 1 .45 1 1s-.43 1-1 1zm0 7.98c-.54 0-1-.44-1-1 0-.55.46-1 1-1 .57 0 1 .45 1 1 0 .56-.43 1-1 1zm0 8c-.54 0-1-.46-1-1 0-.56.46-1 1-1 .57 0 1 .44 1 1 0 .54-.43 1-1 1zm0 7.97c-.54 0-1-.44-1-1 0-.55.46-1 1-1 .57 0 1 .45 1 1 0 .56-.43 1-1 1zm0 8c-.54 0-1-.46-1-1 0-.56.46-1 1-1 .57 0 1 .44 1 1 0 .54-.43 1-1 1zm0 7.98c-.54 0-1-.44-1-1 0-.55.46-1 1-1 .57 0 1 .45 1 1 0 .56-.43 1-1 1zm0 8c-.54 0-1-.46-1-1 0-.56.46-1 1-1 .57 0 1 .44 1 1 0 .54-.43 1-1 1zm0 7.98c-.54 0-1-.45-1-1 0-.56.46-1 1-1 .57 0 1 .44 1 1 0 .55-.43 1-1 1zm0 7.98c-.54 0-1-.45-1-1s.46-1 1-1c.57 0 1 .45 1 1s-.43 1-1 1zm0 8c-.54 0-1-.46-1-1 0-.57.46-1 1-1 .57 0 1 .43 1 1 0 .54-.43 1-1 1zm0 7.97c-.54 0-1-.45-1-1s.46-1 1-1c.57 0 1 .45 1 1s-.43 1-1 1zm0 8c-.54 0-1-.46-1-1 0-.57.46-1 1-1 .57 0 1 .43 1 1 0 .54-.43 1-1 1zm0 7.97c-.54 0-1-.45-1-1s.46-1 1-1c.57 0 1 .45 1 1s-.43 1-1 1zm0 8c-.54 0-1-.46-1-1 0-.57.46-1 1-1 .57 0 1 .43 1 1 0 .54-.43 1-1 1zm0 7.97c-.54 0-1-.45-1-1s.46-1 1-1c.57 0 1 .45 1 1s-.43 1-1 1zm0 8c-.54 0-1-.46-1-1 0-.57.46-1 1-1 .57 0 1 .43 1 1 0 .54-.43 1-1 1zm0 7.97c-.54 0-1-.45-1-1s.46-1 1-1c.57 0 1 .45 1 1s-.43 1-1 1zm0 8c-.54 0-1-.46-1-1 0-.57.46-1 1-1 .57 0 1 .43 1 1 0 .54-.43 1-1 1zm0 7.97c-.54 0-1-.44-1-1 0-.54.46-1 1-1 .57 0 1 .46 1 1 0 .56-.43 1-1 1zm0 8c-.54 0-1-.45-1-1 0-.56.46-1 1-1 .57 0 1 .44 1 1 0 .55-.43 1-1 1zm0 7.98c-.54 0-1-.45-1-1s.46-1 1-1c.57 0 1 .45 1 1s-.43 1-1 1zm0 8c-.54 0-1-.46-1-1 0-.57.46-1 1-1 .57 0 1 .43 1 1 0 .54-.43 1-1 1zm0 7.97c-.54 0-1-.45-1-1s.46-1 1-1c.57 0 1 .45 1 1s-.43 1-1 1zm0 8c-.54 0-1-.46-1-1 0-.56.46-1 1-1 .57 0 1 .44 1 1 0 .54-.43 1-1 1zm0 7.97c-.54 0-1-.45-1-1s.46-1 1-1c.57 0 1 .45 1 1s-.43 1-1 1zm0 8c-.54 0-1-.46-1-1 0-.56.46-1 1-1 .57 0 1 .44 1 1 0 .54-.43 1-1 1zm0 7.97c-.54 0-1-.45-1-1 0-.56.46-1 1-1 .57 0 1 .44 1 1 0 .55-.43 1-1 1zm0 7.98c-.54 0-1-.45-1-1s.46-1 1-1c.57 0 1 .45 1 1s-.43 1-1 1zm0 7.98c-.54 0-1-.44-1-1 0-.55.46-1 1-1 .57 0 1 .45 1 1 0 .56-.43 1-1 1zm0 8c-.54 0-1-.46-1-1 0-.56.46-1 1-1 .57 0 1 .44 1 1 0 .54-.43 1-1 1zm0 7.97c-.54 0-1-.44-1-1 0-.55.46-1 1-1 .57 0 1 .45 1 1 0 .56-.43 1-1 1zm0 8c-.54 0-1-.46-1-1 0-.56.46-1 1-1 .57 0 1 .44 1 1 0 .54-.43 1-1 1zm0 7.97c-.54 0-1-.44-1-1 0-.55.46-1 1-1 .57 0 1 .45 1 1 0 .56-.43 1-1 1zm0 8c-.54 0-1-.46-1-1 0-.56.46-1 1-1 .57 0 1 .44 1 1 0 .54-.43 1-1 1zm0 7.97c-.54 0-1-.44-1-1 0-.55.46-1 1-1 .57 0 1 .45 1 1 0 .56-.43 1-1 1zm0 8c-.54 0-1-.46-1-1 0-.56.46-1 1-1 .57 0 1 .44 1 1 0 .54-.43 1-1 1zm0 7.97c-.54 0-1-.44-1-1 0-.55.46-1 1-1 .57 0 1 .45 1 1 0 .56-.43 1-1 1zm0 8c-.54 0-1-.46-1-1 0-.56.46-1 1-1 .57 0 1 .44 1 1 0 .54-.43 1-1 1zm0 7.97c-.54 0-1-.43-1-1 0-.54.46-1 1-1 .57 0 1 .46 1 1 0 .57-.43 1-1 1zm0 8c-.54 0-1-.45-1-1s.46-1 1-1c.57 0 1 .45 1 1s-.43 1-1 1z" fill="#282c33"/><path d="M640-1734a6 6 0 0 1 6-6h348a6 6 0 0 1 6 6v28a6 6 0 0 1-6 6H646a6 6 0 0 1-6-6z" stroke="#000" stroke-opacity="0" fill="#fff" fill-opacity="0"/><use xlink:href="#a" transform="matrix(1,0,0,1,645,-1735) translate(0 26.826388888888886)"/><path d="M1220-1734a6 6 0 0 1 6-6h348a6 6 0 0 1 6 6v28a6 6 0 0 1-6 6h-348a6 6 0 0 1-6-6z" stroke="#000" stroke-opacity="0" fill="#fff" fill-opacity="0"/><use xlink:href="#b" transform="matrix(1,0,0,1,1225,-1735) translate(0 26.826388888888886)"/><use xlink:href="#c" transform="matrix(1,0,0,1,1225,-1735) translate(119.25925925925924 26.826388888888886)"/><path d="M1037.43-1594a6 6 0 0 1 6-6h268a6 6 0 0 1 6 6v108a6 6 0 0 1-6 6h-268a6 6 0 0 1-6-6z" stroke="#4c535d" stroke-width="2" fill="#fff2cc"/><use xlink:href="#d" transform="matrix(1,0,0,1,1049.4262410175188,-1588) translate(0 54.2890625)"/><use xlink:href="#e" transform="matrix(1,0,0,1,1049.4262410175188,-1588) translate(62.306640625 54.2890625)"/><use xlink:href="#f" transform="matrix(1,0,0,1,1049.4262410175188,-1588) translate(102.4404296875 54.2890625)"/><use xlink:href="#g" transform="matrix(1,0,0,1,1049.4262410175188,-1588) translate(176.34375 54.2890625)"/><path d="M1359-1594a6 6 0 0 1 6-6h268a6 6 0 0 1 6 6v108a6 6 0 0 1-6 6h-268a6 6 0 0 1-6-6z" stroke="#4c535d" stroke-width="2" fill="#fff2cc"/><use xlink:href="#h" transform="matrix(1,0,0,1,1371.0000499999992,-1588) translate(0 45.2890625)"/><use xlink:href="#f" transform="matrix(1,0,0,1,1371.0000499999992,-1588) translate(49.65234375 45.2890625)"/><use xlink:href="#i" transform="matrix(1,0,0,1,1371.0000499999992,-1588) translate(123.5556640625 45.2890625)"/><use xlink:href="#j" transform="matrix(1,0,0,1,1371.0000499999992,-1588) translate(199.611328125 45.2890625)"/><use xlink:href="#k" transform="matrix(1,0,0,1,1371.0000499999992,-1588) translate(0 66.3857421875)"/><path d="M560-1405.75a6 6 0 0 1 6-6h268a6 6 0 0 1 6 6v108a6 6 0 0 1-6 6H566a6 6 0 0 1-6-6z" stroke="#4c535d" stroke-width="2" fill="#fff2cc"/><use xlink:href="#l" transform="matrix(1,0,0,1,572.0000000000002,-1399.7500001655408) translate(0 43.09375)"/><use xlink:href="#m" transform="matrix(1,0,0,1,572.0000000000002,-1399.7500001655408) translate(51.142578125 43.09375)"/><use xlink:href="#n" transform="matrix(1,0,0,1,572.0000000000002,-1399.7500001655408) translate(128.935546875 43.09375)"/><use xlink:href="#o" transform="matrix(1,0,0,1,572.0000000000002,-1399.7500001655408) translate(0 65.30078125)"/><path d="M1318.93-1540h22.7" stroke="#3a414a" fill="none"/><path d="M1318.94-1539.53h-.5v-.94h.5z" stroke="#3a414a" stroke-width=".05" fill="#3a414a"/><path d="M1356.38-1540l-14.26 4.63v-9.27z" stroke="#3a414a" fill="#3a414a"/><path d="M893.54-1351.28H857.4v-.94h36.16zM1675-1540.4l1 .24.94.4.87.52.78.66.66.77.53.86.4.94.23 1 .07.98v176.3l-.07.98-.24 1-.4.93-.52.86-.66.77-.77.66-.86.52-.94.4-1 .23-.98.07h-601.17v-.94h601.13l.88-.07.85-.2.8-.33.75-.45.66-.56.57-.66.45-.74.33-.8.2-.85.08-.87v-176.2l-.07-.9-.2-.84-.34-.8-.45-.75-.56-.66-.65-.57-.74-.45-.8-.33-.84-.2-.88-.08h-33.48v-.94h33.52z" stroke="#3a414a" stroke-width=".05" fill="#3a414a"/><path d="M1640.5-1539.53h-.5v-.94h.5z" fill="#3a414a"/><path stroke="#3a414a" stroke-width=".05" fill="#3a414a"/><path d="M856.88-1347.12l-14.26-4.63 14.26-4.63z" fill="#3a414a"/><path d="M857.36-1346.46l-16.28-5.3 16.28-5.28zm-13.2-5.3l12.25 4v-7.97z" stroke="#3a414a" stroke-width=".05" fill="#3a414a"/><use xlink:href="#p" transform="matrix(1,0,0,1,893.5445927818364,-1362.4166668322075) translate(0 14.222222222222223)"/><use xlink:href="#q" transform="matrix(1,0,0,1,893.5445927818364,-1362.4166668322075) translate(92.69135802469137 14.222222222222223)"/><path d="M1339-574a6 6 0 0 1 6-6h268a6 6 0 0 1 6 6v108a6 6 0 0 1-6 6h-268a6 6 0 0 1-6-6z" stroke="#4c535d" stroke-width="2" fill="#fff2cc"/><use xlink:href="#r" transform="matrix(1,0,0,1,1351.0000499999992,-568) translate(0 54.2890625)"/><use xlink:href="#f" transform="matrix(1,0,0,1,1351.0000499999992,-568) translate(48.58544921875 54.2890625)"/><use xlink:href="#s" transform="matrix(1,0,0,1,1351.0000499999992,-568) translate(122.48876953125 54.2890625)"/><path d="M540-574a6 6 0 0 1 6-6h268a6 6 0 0 1 6 6v108a6 6 0 0 1-6 6H546a6 6 0 0 1-6-6z" stroke="#4c535d" stroke-width="2" fill="#fff2cc"/><use xlink:href="#t" transform="matrix(1,0,0,1,552,-568) translate(0 43.09375)"/><use xlink:href="#u" transform="matrix(1,0,0,1,552,-568) translate(52.265625 43.09375)"/><use xlink:href="#v" transform="matrix(1,0,0,1,552,-568) translate(68.9453125 43.09375)"/><use xlink:href="#w" transform="matrix(1,0,0,1,552,-568) translate(111.19140625 43.09375)"/><use xlink:href="#o" transform="matrix(1,0,0,1,552,-568) translate(0 65.30078125)"/><path d="M985.18-519.52H821.5v-.96h163.68zm336.44 0h-26.8v-.96h26.8z" stroke="#3a414a" stroke-width=".05" fill="#3a414a"/><path d="M821.5-519.52h-.5v-.96h.5z" fill="#3a414a"/><path stroke="#3a414a" stroke-width=".05" fill="#3a414a"/><path d="M1336.38-520l-14.26 4.63v-9.26z" fill="#3a414a"/><path d="M1337.92-520l-16.28 5.3v-10.6zm-15.33 3.98l12.25-3.98-12.26-3.98z" stroke="#3a414a" stroke-width=".05" fill="#3a414a"/><use xlink:href="#x" transform="matrix(1,0,0,1,985.1851851851852,-530.6666666666666) translate(0 14.222222222222223)"/><use xlink:href="#y" transform="matrix(1,0,0,1,985.1851851851852,-530.6666666666666) translate(68.14814814814815 14.222222222222223)"/><use xlink:href="#z" transform="matrix(1,0,0,1,985.1851851851852,-530.6666666666666) translate(145.08641975308643 14.222222222222223)"/><use xlink:href="#A" transform="matrix(1,0,0,1,985.1851851851852,-530.6666666666666) translate(223.01234567901238 14.222222222222223)"/><path d="M1339-334a6 6 0 0 1 6-6h268a6 6 0 0 1 6 6v108a6 6 0 0 1-6 6h-268a6 6 0 0 1-6-6z" stroke="#4c535d" stroke-width="2" fill="#fff2cc"/><use xlink:href="#h" transform="matrix(1,0,0,1,1351.0000499999992,-328) translate(0 45.2890625)"/><use xlink:href="#f" transform="matrix(1,0,0,1,1351.0000499999992,-328) translate(49.65234375 45.2890625)"/><use xlink:href="#B" transform="matrix(1,0,0,1,1351.0000499999992,-328) translate(123.5556640625 45.2890625)"/><use xlink:href="#C" transform="matrix(1,0,0,1,1351.0000499999992,-328) translate(0 66.3857421875)"/><path d="M540-334a6 6 0 0 1 6-6h268a6 6 0 0 1 6 6v108a6 6 0 0 1-6 6H546a6 6 0 0 1-6-6z" stroke="#4c535d" stroke-width="2" fill="#fff2cc"/><use xlink:href="#r" transform="matrix(1,0,0,1,552,-328) translate(0 45.2890625)"/><use xlink:href="#f" transform="matrix(1,0,0,1,552,-328) translate(48.58544921875 45.2890625)"/><use xlink:href="#B" transform="matrix(1,0,0,1,552,-328) translate(122.48876953125 45.2890625)"/><use xlink:href="#D" transform="matrix(1,0,0,1,552,-328) translate(0 66.3857421875)"/><path d="M876.35-279.52h-38.97v-.96h38.97zm461.15 0h-281.85v-.96h281.85z" stroke="#3a414a" stroke-width=".05" fill="#3a414a"/><path d="M836.88-275.37L822.62-280l14.26-4.63z" fill="#3a414a"/><path d="M837.36-274.7l-16.28-5.3 16.28-5.3zm-13.2-5.3l12.25 3.98v-7.96z" stroke="#3a414a" stroke-width=".05" fill="#3a414a"/><path d="M1338-279.52h-.5v-.96h.5z" fill="#3a414a"/><path stroke="#3a414a" stroke-width=".05" fill="#3a414a"/><use xlink:href="#p" transform="matrix(1,0,0,1,876.3456790123457,-290.6666666666667) translate(0 14.222222222222223)"/><use xlink:href="#q" transform="matrix(1,0,0,1,876.3456790123457,-290.6666666666667) translate(92.69135802469137 14.222222222222223)"/><path d="M1339-74a6 6 0 0 1 6-6h268a6 6 0 0 1 6 6V34a6 6 0 0 1-6 6h-268a6 6 0 0 1-6-6z" stroke="#4c535d" stroke-width="2" fill="#fff2cc"/><use xlink:href="#h" transform="matrix(1,0,0,1,1351.0000499999992,-68) translate(0 54.2890625)"/><use xlink:href="#f" transform="matrix(1,0,0,1,1351.0000499999992,-68) translate(49.65234375 54.2890625)"/><use xlink:href="#C" transform="matrix(1,0,0,1,1351.0000499999992,-68) translate(123.5556640625 54.2890625)"/><path d="M540-74a6 6 0 0 1 6-6h268a6 6 0 0 1 6 6V34a6 6 0 0 1-6 6H546a6 6 0 0 1-6-6z" stroke="#4c535d" stroke-width="2" fill="#fff2cc"/><use xlink:href="#r" transform="matrix(1,0,0,1,552,-68) translate(0 54.2890625)"/><use xlink:href="#f" transform="matrix(1,0,0,1,552,-68) translate(48.58544921875 54.2890625)"/><use xlink:href="#D" transform="matrix(1,0,0,1,552,-68) translate(122.48876953125 54.2890625)"/><path d="M868.35-19.52h-30.97v-.96h30.97zm469.15 0h-289.85v-.96h289.85z" stroke="#3a414a" stroke-width=".05" fill="#3a414a"/><path d="M836.88-15.37L822.62-20l14.26-4.64z" fill="#3a414a"/><path d="M837.36-14.7L821.08-20l16.28-5.3zm-13.2-5.3l12.25 3.98v-7.96z" stroke="#3a414a" stroke-width=".05" fill="#3a414a"/><path d="M1338-19.52h-.5v-.96h.5z" fill="#3a414a"/><path stroke="#3a414a" stroke-width=".05" fill="#3a414a"/><use xlink:href="#p" transform="matrix(1,0,0,1,868.3456790123457,-30.666666666666668) translate(0 14.222222222222223)"/><use xlink:href="#q" transform="matrix(1,0,0,1,868.3456790123457,-30.666666666666668) translate(92.69135802469137 14.222222222222223)"/><path d="M1339 186a6 6 0 0 1 6-6h268a6 6 0 0 1 6 6v108a6 6 0 0 1-6 6h-268a6 6 0 0 1-6-6z" stroke="#4c535d" stroke-width="2" fill="#fff2cc"/><use xlink:href="#r" transform="matrix(1,0,0,1,1351.0000499999992,192) translate(0 45.2890625)"/><use xlink:href="#E" transform="matrix(1,0,0,1,1351.0000499999992,192) translate(48.58544921875 45.2890625)"/><use xlink:href="#F" transform="matrix(1,0,0,1,1351.0000499999992,192) translate(115.1318359375 45.2890625)"/><use xlink:href="#G" transform="matrix(1,0,0,1,1351.0000499999992,192) translate(183.7841796875 45.2890625)"/><use xlink:href="#H" transform="matrix(1,0,0,1,1351.0000499999992,192) translate(0 66.3857421875)"/><path d="M540 186a6 6 0 0 1 6-6h268a6 6 0 0 1 6 6v108a6 6 0 0 1-6 6H546a6 6 0 0 1-6-6z" stroke="#4c535d" stroke-width="2" fill="#fff2cc"/><g><use xlink:href="#I" transform="matrix(1,0,0,1,552,192) translate(0 55.09375)"/><use xlink:href="#J" transform="matrix(1,0,0,1,552,192) translate(52.265625 55.09375)"/><use xlink:href="#K" transform="matrix(1,0,0,1,552,192) translate(122.314453125 55.09375)"/></g><path d="M997.18 240.47H821.5v-.94h175.68zm324.44 0h-14.8v-.94h14.8z" stroke="#3a414a" stroke-width=".05" fill="#3a414a"/><path d="M821.5 240.47h-.5v-.94h.5z" fill="#3a414a"/><path stroke="#3a414a" stroke-width=".05" fill="#3a414a"/><path d="M1336.38 240l-14.26 4.63v-9.26z" fill="#3a414a"/><path d="M1337.92 240l-16.28 5.3v-10.6zm-15.33 3.98l12.25-3.98-12.26-3.98z" stroke="#3a414a" stroke-width=".05" fill="#3a414a"/><g><use xlink:href="#x" transform="matrix(1,0,0,1,997.1851851851852,229.33333333333334) translate(0 14.222222222222223)"/><use xlink:href="#y" transform="matrix(1,0,0,1,997.1851851851852,229.33333333333334) translate(68.14814814814815 14.222222222222223)"/><use xlink:href="#z" transform="matrix(1,0,0,1,997.1851851851852,229.33333333333334) translate(145.08641975308643 14.222222222222223)"/><use xlink:href="#A" transform="matrix(1,0,0,1,997.1851851851852,229.33333333333334) translate(223.01234567901238 14.222222222222223)"/></g><path d="M560-1214a6 6 0 0 1 6-6h268a6 6 0 0 1 6 6v108a6 6 0 0 1-6 6H566a6 6 0 0 1-6-6z" stroke="#4c535d" stroke-width="2" fill="#fff2cc"/><g><use xlink:href="#L" transform="matrix(1,0,0,1,572.0000000000002,-1208) translate(0 43.09375)"/><use xlink:href="#M" transform="matrix(1,0,0,1,572.0000000000002,-1208) translate(80.048828125 43.09375)"/><use xlink:href="#N" transform="matrix(1,0,0,1,572.0000000000002,-1208) translate(103.388671875 43.09375)"/><use xlink:href="#w" transform="matrix(1,0,0,1,572.0000000000002,-1208) translate(165.634765625 43.09375)"/><use xlink:href="#O" transform="matrix(1,0,0,1,572.0000000000002,-1208) translate(0 65.30078125)"/><use xlink:href="#o" transform="matrix(1,0,0,1,572.0000000000002,-1208) translate(80.05859375 65.30078125)"/></g><path d="M980.33-1159.53H841.5v-.94h138.83zm361.3 0h-51.67v-.94h51.66z" stroke="#3a414a" stroke-width=".05" fill="#3a414a"/><path d="M841.5-1159.53h-.5v-.94h.5z" fill="#3a414a"/><path stroke="#3a414a" stroke-width=".05" fill="#3a414a"/><path d="M1356.38-1160l-14.26 4.63v-9.27z" fill="#3a414a"/><path d="M1357.92-1160l-16.28 5.3v-10.6zm-15.33 3.98l12.25-3.98-12.26-3.98z" stroke="#3a414a" stroke-width=".05" fill="#3a414a"/><g><use xlink:href="#P" transform="matrix(1,0,0,1,980.3330219917789,-1170.6666666666667) translate(0 14.222222222222223)"/><use xlink:href="#Q" transform="matrix(1,0,0,1,980.3330219917789,-1170.6666666666667) translate(68.14814814814815 14.222222222222223)"/><use xlink:href="#R" transform="matrix(1,0,0,1,980.3330219917789,-1170.6666666666667) translate(145.08641975308643 14.222222222222223)"/><use xlink:href="#S" transform="matrix(1,0,0,1,980.3330219917789,-1170.6666666666667) translate(223.01234567901238 14.222222222222223)"/></g><path d="M1359-1214a6 6 0 0 1 6-6h268a6 6 0 0 1 6 6v108a6 6 0 0 1-6 6h-268a6 6 0 0 1-6-6z" stroke="#4c535d" stroke-width="2" fill="#fff2cc"/><g><use xlink:href="#T" transform="matrix(1,0,0,1,1371.0000499999994,-1208) translate(0 43.09375)"/><use xlink:href="#m" transform="matrix(1,0,0,1,1371.0000499999994,-1208) translate(50.01953125 43.09375)"/><use xlink:href="#n" transform="matrix(1,0,0,1,1371.0000499999994,-1208) translate(127.8125 43.09375)"/><use xlink:href="#U" transform="matrix(1,0,0,1,1371.0000499999994,-1208) translate(0 65.30078125)"/></g><path d="M700-1290.25v52.86" stroke="#3a414a" fill="none"/><path d="M700.48-1290.24h-.96v-.5h.96z" stroke="#3a414a" stroke-width=".05" fill="#3a414a"/><path d="M700-1222.62l-4.63-14.27 9.26.02z" stroke="#3a414a" fill="#3a414a"/><path d="M1359-894a6 6 0 0 1 6-6h268a6 6 0 0 1 6 6v108a6 6 0 0 1-6 6h-268a6 6 0 0 1-6-6z" stroke="#4c535d" stroke-width="2" fill="#fff2cc"/><g><use xlink:href="#V" transform="matrix(1,0,0,1,1371.0000500000315,-888) translate(0 54.2890625)"/><use xlink:href="#W" transform="matrix(1,0,0,1,1371.0000500000315,-888) translate(99.267578125 54.2890625)"/><use xlink:href="#X" transform="matrix(1,0,0,1,1371.0000500000315,-888) translate(120.39208984375 54.2890625)"/><use xlink:href="#Y" transform="matrix(1,0,0,1,1371.0000500000315,-888) translate(146.8046875 54.2890625)"/></g><path d="M560-894a6 6 0 0 1 6-6h268a6 6 0 0 1 6 6v108a6 6 0 0 1-6 6H566a6 6 0 0 1-6-6z" stroke="#4c535d" stroke-width="2" fill="#fff2cc"/><g><use xlink:href="#Z" transform="matrix(1,0,0,1,572,-888) translate(0 54.2890625)"/><use xlink:href="#aa" transform="matrix(1,0,0,1,572,-888) translate(48.58544921875 54.2890625)"/><use xlink:href="#ab" transform="matrix(1,0,0,1,572,-888) translate(102.44970703125 54.2890625)"/></g><path d="M898.35-839.52h-40.97v-.96h40.97zm459.15 0h-279.85v-.96h279.85z" stroke="#3a414a" stroke-width=".05" fill="#3a414a"/><path d="M856.88-835.37L842.62-840l14.26-4.63z" fill="#3a414a"/><path d="M857.36-834.7l-16.28-5.3 16.28-5.3zm-13.2-5.3l12.25 3.98v-7.96z" stroke="#3a414a" stroke-width=".05" fill="#3a414a"/><path d="M1358-839.52h-.5v-.96h.5z" fill="#3a414a"/><path stroke="#3a414a" stroke-width=".05" fill="#3a414a"/><g><use xlink:href="#p" transform="matrix(1,0,0,1,898.3456790123457,-850.6666666666666) translate(0 14.222222222222223)"/><use xlink:href="#q" transform="matrix(1,0,0,1,898.3456790123457,-850.6666666666666) translate(92.69135802469137 14.222222222222223)"/></g><path d="M500-1634a6 6 0 0 1 6-6h228a6 6 0 0 1 6 6v48a6 6 0 0 1-6 6H506a6 6 0 0 1-6-6z" fill="none"/><g><use xlink:href="#ac" transform="matrix(1,0,0,1,500,-1640) translate(0 34.44444444444444)"/><use xlink:href="#ad" transform="matrix(1,0,0,1,500,-1640) translate(115.86419753086419 34.44444444444444)"/></g><path d="M500-974a6 6 0 0 1 6-6h268a6 6 0 0 1 6 6v48a6 6 0 0 1-6 6H506a6 6 0 0 1-6-6z" fill="none"/><g><use xlink:href="#ae" transform="matrix(1,0,0,1,500,-980) translate(0 34.44444444444444)"/><use xlink:href="#af" transform="matrix(1,0,0,1,500,-980) translate(80.12345679012344 34.44444444444444)"/></g><path d="M500-654a6 6 0 0 1 6-6h428a6 6 0 0 1 6 6v48a6 6 0 0 1-6 6H506a6 6 0 0 1-6-6z" fill="none"/><g><use xlink:href="#ac" transform="matrix(1,0,0,1,500,-660) translate(0 34.44444444444444)"/><use xlink:href="#ag" transform="matrix(1,0,0,1,500,-660) translate(115.86419753086419 34.44444444444444)"/><use xlink:href="#ah" transform="matrix(1,0,0,1,500,-660) translate(229.25925925925924 34.44444444444444)"/><use xlink:href="#ai" transform="matrix(1,0,0,1,500,-660) translate(251.41975308641975 34.44444444444444)"/></g><defs><path fill="#3a414a" d="M199 0l-22-63H83L61 0H9l90-248h61L250 0h-51zm-33-102l-36-108c-10 38-24 72-36 108h72" id="aj"/><path fill="#3a414a" d="M190-63c-7 42-38 67-86 67-59 0-84-38-90-98-12-110 154-137 174-36l-49 2c-2-19-15-32-35-32-30 0-35 28-38 64-6 74 65 87 74 30" id="ak"/><path fill="#3a414a" d="M185-48c-13 30-37 53-82 52C43 2 14-33 14-96s30-98 90-98c62 0 83 45 84 108H66c0 31 8 55 39 56 18 0 30-7 34-22zm-45-69c5-46-57-63-70-21-2 6-4 13-4 21h74" id="al"/><path fill="#3a414a" d="M137-138c1-29-70-34-71-4 15 46 118 7 119 86 1 83-164 76-172 9l43-7c4 19 20 25 44 25 33 8 57-30 24-41C81-84 22-81 20-136c-2-80 154-74 161-7" id="am"/><path fill="#3a414a" d="M240-174c0 40-23 61-54 70L253 0h-59l-57-94H76V0H24v-248c93 4 217-23 216 74zM76-134c48-2 112 12 112-38 0-48-66-32-112-35v73" id="an"/><path fill="#3a414a" d="M67-125c0 53 21 87 73 88 37 1 54-22 65-47l45 17C233-25 199 4 140 4 58 4 20-42 15-125 8-235 124-281 211-232c18 10 29 29 36 50l-46 12c-8-25-30-41-62-41-52 0-71 34-72 86" id="ao"/><g id="a"><use transform="matrix(0.08641975308641973,0,0,0.08641975308641973,0,0)" xlink:href="#aj"/><use transform="matrix(0.08641975308641973,0,0,0.08641975308641973,22.38271604938271,0)" xlink:href="#ak"/><use transform="matrix(0.08641975308641973,0,0,0.08641975308641973,39.66666666666666,0)" xlink:href="#ak"/><use transform="matrix(0.08641975308641973,0,0,0.08641975308641973,56.950617283950606,0)" xlink:href="#al"/><use transform="matrix(0.08641975308641973,0,0,0.08641975308641973,74.23456790123456,0)" xlink:href="#am"/><use transform="matrix(0.08641975308641973,0,0,0.08641975308641973,91.5185185185185,0)" xlink:href="#am"/><use transform="matrix(0.08641975308641973,0,0,0.08641975308641973,108.80246913580244,0)" xlink:href="#an"/><use transform="matrix(0.08641975308641973,0,0,0.08641975308641973,131.18518518518516,0)" xlink:href="#ao"/></g><path fill="#3a414a" d="M169-182c-1-43-94-46-97-3 18 66 151 10 154 114 3 95-165 93-204 36-6-8-10-19-12-30l50-8c3 46 112 56 116 5-17-69-150-10-154-114-4-87 153-88 188-35 5 8 8 18 10 28" id="ap"/><path fill="#3a414a" d="M135-150c-39-12-60 13-60 57V0H25l-1-190h47c2 13-1 29 3 40 6-28 27-53 61-41v41" id="aq"/><path fill="#3a414a" d="M128 0H69L1-190h53L99-40l48-150h52" id="ar"/><path fill="#3a414a" d="M25-224v-37h50v37H25zM25 0v-190h50V0H25" id="as"/><g id="b"><use transform="matrix(0.08641975308641973,0,0,0.08641975308641973,0,0)" xlink:href="#ap"/><use transform="matrix(0.08641975308641973,0,0,0.08641975308641973,20.740740740740737,0)" xlink:href="#al"/><use transform="matrix(0.08641975308641973,0,0,0.08641975308641973,38.02469135802468,0)" xlink:href="#aq"/><use transform="matrix(0.08641975308641973,0,0,0.08641975308641973,50.12345679012345,0)" xlink:href="#ar"/><use transform="matrix(0.08641975308641973,0,0,0.08641975308641973,67.40740740740739,0)" xlink:href="#as"/><use transform="matrix(0.08641975308641973,0,0,0.08641975308641973,76.04938271604937,0)" xlink:href="#ak"/><use transform="matrix(0.08641975308641973,0,0,0.08641975308641973,93.33333333333331,0)" xlink:href="#al"/></g><path fill="#3a414a" d="M24-248c93 1 206-16 204 79-1 75-69 88-152 82V0H24v-248zm52 121c47 0 100 7 100-41 0-47-54-39-100-39v80" id="at"/><path fill="#3a414a" d="M110-194c64 0 96 36 96 99 0 64-35 99-97 99-61 0-95-36-95-99 0-62 34-99 96-99zm-1 164c35 0 45-28 45-65 0-40-10-65-43-65-34 0-45 26-45 65 0 36 10 65 43 65" id="au"/><path fill="#3a414a" d="M88-194c31-1 46 15 58 34l-1-101h50l1 261h-48c-2-10 0-23-3-31C134-8 116 4 84 4 32 4 16-41 15-95c0-56 19-97 73-99zm17 164c33 0 40-30 41-66 1-37-9-64-41-64s-38 30-39 65c0 43 13 65 39 65" id="av"/><g id="c"><use transform="matrix(0.08641975308641973,0,0,0.08641975308641973,0,0)" xlink:href="#at"/><use transform="matrix(0.08641975308641973,0,0,0.08641975308641973,20.740740740740737,0)" xlink:href="#aq"/><use transform="matrix(0.08641975308641973,0,0,0.08641975308641973,32.8395061728395,0)" xlink:href="#au"/><use transform="matrix(0.08641975308641973,0,0,0.08641975308641973,51.76543209876541,0)" xlink:href="#ar"/><use transform="matrix(0.08641975308641973,0,0,0.08641975308641973,69.04938271604937,0)" xlink:href="#as"/><use transform="matrix(0.08641975308641973,0,0,0.08641975308641973,77.69135802469134,0)" xlink:href="#av"/><use transform="matrix(0.08641975308641973,0,0,0.08641975308641973,96.61728395061726,0)" xlink:href="#al"/><use transform="matrix(0.08641975308641973,0,0,0.08641975308641973,113.90123456790121,0)" xlink:href="#aq"/></g><path d="M1207-1021c-59-155-207-253-415-253-322-2-494 232-494 563 0 326 186 574 502 574 197 0 346-98 445-293l156 78C1298-131 1096 20 791 20c-448 0-682-279-687-731-5-437 254-721 686-719 309 2 507 125 598 349" id="aw"/><path d="M318-861c55-157 83-241 257-241 24 0 48 3 73 10v165c-24-7-56-10-96-10-75 0-132 33-171 97s-59 156-59 276V0H142c-3-364 6-725-6-1082h170c5 123 8 196 8 221h4" id="ax"/><path d="M87-548c0-338 159-553 484-554 325-2 484 204 477 599H276c-1 227 88 385 302 388 146 2 246-65 283-166l158 45C954-65 807 20 578 20 240 20 87-193 87-548zm775-93c-19-206-90-328-294-328-185 0-285 140-290 328h584" id="ay"/><path d="M797-207C713-60 620 16 414 20 203 24 88-98 87-302c0-112 37-198 111-258s192-93 356-96l243-4c10-201-43-307-232-305-154 2-223 43-242 172l-188-17c31-195 175-292 434-292s410 116 410 364v466c3 95 12 159 101 161 17 0 37-2 59-7V-6c-45 11-92 16-139 16-143-2-188-76-197-217h-6zm-525-92c-1 116 66 187 183 184 230-7 361-164 342-419-124 5-305-2-389 30-83 32-136 92-136 205" id="az"/><path d="M336-268c2 98 22 139 114 141 24 0 59-5 104-14V-8C495 8 434 16 372 16c-144 0-216-82-216-245v-722H31v-131h132l53-242h120v242h200v131H336v683" id="aA"/><g id="d"><use transform="matrix(0.00927734375,0,0,0.00927734375,0,0)" xlink:href="#aw"/><use transform="matrix(0.00927734375,0,0,0.00927734375,13.72119140625,0)" xlink:href="#ax"/><use transform="matrix(0.00927734375,0,0,0.00927734375,20.04833984375,0)" xlink:href="#ay"/><use transform="matrix(0.00927734375,0,0,0.00927734375,30.615234375,0)" xlink:href="#az"/><use transform="matrix(0.00927734375,0,0,0.00927734375,41.18212890625,0)" xlink:href="#aA"/><use transform="matrix(0.00927734375,0,0,0.00927734375,46.4609375,0)" xlink:href="#ay"/></g><path d="M663-1102c251 0 343 119 343 381V0H825v-686c0-183-40-279-223-277-184 2-280 141-280 336V0H142c-3-345 6-754-6-1082h170c5 68 6 94 8 185h3c76-134 157-205 346-205" id="aB"/><path d="M740-934C689-691 665-619 508 0H300L-3-1082h178c78 327 154 591 226 933 77-315 163-621 243-933h193c78 311 160 619 235 933 72-318 158-621 236-933h176L1174 0H965c-74-312-158-615-225-934" id="aC"/><g id="e"><use transform="matrix(0.00927734375,0,0,0.00927734375,0,0)" xlink:href="#aB"/><use transform="matrix(0.00927734375,0,0,0.00927734375,10.56689453125,0)" xlink:href="#ay"/><use transform="matrix(0.00927734375,0,0,0.00927734375,21.1337890625,0)" xlink:href="#aC"/></g><path d="M634-1409c461-4 751 239 747 690-4 441-249 719-686 719H168v-1409h466zm39 1256c337-8 514-222 516-566 2-353-203-539-559-537H359v1103h314" id="aD"/><path d="M138 0v-1484h180V0H138" id="aE"/><path d="M137-1312v-172h180v172H137zM137 0v-1082h180V0H137" id="aF"/><path d="M613 0H400L7-1082h192c109 337 207 579 307 941 97-323 214-627 320-941h191" id="aG"/><path d="M350 384c-71 46-190 48-283 30V279c25 4 53 6 84 6 123 0 227-124 283-290L5-1082h192c109 293 229 581 326 886 105-293 205-591 307-886h190L604 0c-45 115-86 202-125 258s-83 96-129 126" id="aH"/><g id="f"><use transform="matrix(0.00927734375,0,0,0.00927734375,0,0)" xlink:href="#aD"/><use transform="matrix(0.00927734375,0,0,0.00927734375,13.72119140625,0)" xlink:href="#ay"/><use transform="matrix(0.00927734375,0,0,0.00927734375,24.2880859375,0)" xlink:href="#aE"/><use transform="matrix(0.00927734375,0,0,0.00927734375,28.50927734375,0)" xlink:href="#aF"/><use transform="matrix(0.00927734375,0,0,0.00927734375,32.73046875,0)" xlink:href="#aG"/><use transform="matrix(0.00927734375,0,0,0.00927734375,42.23046875,0)" xlink:href="#ay"/><use transform="matrix(0.00927734375,0,0,0.00927734375,52.79736328125,0)" xlink:href="#ax"/><use transform="matrix(0.00927734375,0,0,0.00927734375,59.12451171875,0)" xlink:href="#aH"/></g><path d="M322-1484c-2 195 6 405-8 587h3c73-129 159-205 346-205 250 0 342 118 343 381V0H825v-686c3-190-43-277-223-277-176-1-280 140-280 325V0H142v-1484h180" id="aI"/><g id="g"><use transform="matrix(0.00927734375,0,0,0.00927734375,0,0)" xlink:href="#aw"/><use transform="matrix(0.00927734375,0,0,0.00927734375,13.72119140625,0)" xlink:href="#aI"/><use transform="matrix(0.00927734375,0,0,0.00927734375,24.2880859375,0)" xlink:href="#az"/><use transform="matrix(0.00927734375,0,0,0.00927734375,34.85498046875,0)" xlink:href="#aB"/><use transform="matrix(0.00927734375,0,0,0.00927734375,45.421875,0)" xlink:href="#aB"/><use transform="matrix(0.00927734375,0,0,0.00927734375,55.98876953125,0)" xlink:href="#ay"/><use transform="matrix(0.00927734375,0,0,0.00927734375,66.5556640625,0)" xlink:href="#aE"/></g><path d="M692-1286c-195 0-347 51-347 223 0 101 58 144 134 179 135 62 487 105 623 191 97 62 170 147 170 304 0 130-50 231-152 302S875 20 690 20C347 20 148-99 93-338l185-37c46 178 190 245 419 246 213 0 386-61 386-250 0-223-244-222-431-271-182-48-288-69-390-156-64-54-103-133-103-247 0-121 47-214 139-279s224-98 396-98c318 0 471 80 545 324l-188 33c-44-155-158-213-359-213" id="aJ"/><path d="M835 0c-5-29-11-137-10-174h-4C759-45 663 20 484 20 177 20 86-201 86-536c0-377 133-566 398-566 178 1 273 67 339 188-4-187-1-380-2-570h180v1261c0 113 2 187 6 223H835zm-14-554c0-255-58-415-289-415-91 0-151 37-196 101-76 109-77 543-1 651 44 63 105 98 195 98 235 0 291-173 291-435" id="aK"/><g id="h"><use transform="matrix(0.00927734375,0,0,0.00927734375,0,0)" xlink:href="#aJ"/><use transform="matrix(0.00927734375,0,0,0.00927734375,12.6728515625,0)" xlink:href="#ay"/><use transform="matrix(0.00927734375,0,0,0.00927734375,23.23974609375,0)" xlink:href="#aB"/><use transform="matrix(0.00927734375,0,0,0.00927734375,33.806640625,0)" xlink:href="#aK"/></g><g id="i"><use transform="matrix(0.00927734375,0,0,0.00927734375,0,0)" xlink:href="#aw"/><use transform="matrix(0.00927734375,0,0,0.00927734375,13.72119140625,0)" xlink:href="#aI"/><use transform="matrix(0.00927734375,0,0,0.00927734375,24.2880859375,0)" xlink:href="#az"/><use transform="matrix(0.00927734375,0,0,0.00927734375,34.85498046875,0)" xlink:href="#aB"/><use transform="matrix(0.00927734375,0,0,0.00927734375,45.421875,0)" xlink:href="#aB"/><use transform="matrix(0.00927734375,0,0,0.00927734375,55.98876953125,0)" xlink:href="#ay"/><use transform="matrix(0.00927734375,0,0,0.00927734375,66.5556640625,0)" xlink:href="#aE"/></g><path d="M571-1102c350 0 480 196 482 560 2 357-151 562-488 562C233 20 86-198 86-542c0-373 162-560 485-560zm-8 989c244 0 301-164 301-429 0-266-49-427-290-427-239 0-299 165-299 427 0 252 61 429 288 429" id="aL"/><g id="j"><use transform="matrix(0.00927734375,0,0,0.00927734375,0,0)" xlink:href="#aA"/><use transform="matrix(0.00927734375,0,0,0.00927734375,5.27880859375,0)" xlink:href="#aL"/></g><path d="M1167 0l-161-412H364L202 0H4l575-1409h217L1362 0h-195zM685-1265c-69 226-179 482-263 704h527c-89-236-186-456-264-704" id="aM"/><path d="M779-765c-19-119-93-196-233-196-95 0-164 32-207 95s-64 170-64 320c0 144 23 251 68 320s114 104 205 104c139 0 224-79 240-212l182 12C946-119 781 22 553 20 230 17 87-201 87-542c0-338 145-557 464-560 225-1 380 129 413 323" id="aN"/><path d="M513-963c-139 1-238 29-238 149 0 72 41 100 95 127 55 27 348 94 404 125 101 56 176 118 176 263C950-73 758 21 511 20 254 19 107-55 57-254l159-31c34 123 133 168 295 168 156 0 264-34 264-168 0-156-183-165-315-204-171-51-245-68-323-172-26-35-37-82-37-135 0-220 172-304 413-303 232 1 379 74 418 265l-162 20c-23-104-122-150-256-149" id="aO"/><path d="M1328-1006c0 221-145 368-344 399L1384 0h-220L798-585H359V0H168v-1409h663c292-4 497 130 497 403zM820-736c188 2 316-89 316-268s-133-252-324-252H359v520h461" id="aP"/><g id="k"><use transform="matrix(0.00927734375,0,0,0.00927734375,0,0)" xlink:href="#aM"/><use transform="matrix(0.00927734375,0,0,0.00927734375,12.6728515625,0)" xlink:href="#aN"/><use transform="matrix(0.00927734375,0,0,0.00927734375,22.1728515625,0)" xlink:href="#aN"/><use transform="matrix(0.00927734375,0,0,0.00927734375,31.6728515625,0)" xlink:href="#ay"/><use transform="matrix(0.00927734375,0,0,0.00927734375,42.23974609375,0)" xlink:href="#aO"/><use transform="matrix(0.00927734375,0,0,0.00927734375,51.73974609375,0)" xlink:href="#aO"/><use transform="matrix(0.00927734375,0,0,0.00927734375,61.23974609375,0)" xlink:href="#aP"/><use transform="matrix(0.00927734375,0,0,0.00927734375,74.9609375,0)" xlink:href="#aw"/></g><path fill="#3a414a" d="M692-1286c-195 0-347 51-347 223 0 101 58 144 134 179 135 62 487 105 623 191 97 62 170 147 170 304 0 130-50 231-152 302S875 20 690 20C347 20 148-99 93-338l185-37c46 178 190 245 419 246 213 0 386-61 386-250 0-223-244-222-431-271-182-48-288-69-390-156-64-54-103-133-103-247 0-121 47-214 139-279s224-98 396-98c318 0 471 80 545 324l-188 33c-44-155-158-213-359-213" id="aQ"/><path fill="#3a414a" d="M797-207C713-60 620 16 414 20 203 24 88-98 87-302c0-112 37-198 111-258s192-93 356-96l243-4c10-201-43-307-232-305-154 2-223 43-242 172l-188-17c31-195 175-292 434-292s410 116 410 364v466c3 95 12 159 101 161 17 0 37-2 59-7V-6c-45 11-92 16-139 16-143-2-188-76-197-217h-6zm-525-92c-1 116 66 187 183 184 230-7 361-164 342-419-124 5-305-2-389 30-83 32-136 92-136 205" id="aR"/><path fill="#3a414a" d="M613 0H400L7-1082h192c109 337 207 579 307 941 97-323 214-627 320-941h191" id="aS"/><path fill="#3a414a" d="M87-548c0-338 159-553 484-554 325-2 484 204 477 599H276c-1 227 88 385 302 388 146 2 246-65 283-166l158 45C954-65 807 20 578 20 240 20 87-193 87-548zm775-93c-19-206-90-328-294-328-185 0-285 140-290 328h584" id="aT"/><g id="l"><use transform="matrix(0.009765625,0,0,0.009765625,0,0)" xlink:href="#aQ"/><use transform="matrix(0.009765625,0,0,0.009765625,13.33984375,0)" xlink:href="#aR"/><use transform="matrix(0.009765625,0,0,0.009765625,24.462890625,0)" xlink:href="#aS"/><use transform="matrix(0.009765625,0,0,0.009765625,34.462890625,0)" xlink:href="#aT"/></g><path fill="#3a414a" d="M634-1409c461-4 751 239 747 690-4 441-249 719-686 719H168v-1409h466zm39 1256c337-8 514-222 516-566 2-353-203-539-559-537H359v1103h314" id="aU"/><path fill="#3a414a" d="M138 0v-1484h180V0H138" id="aV"/><path fill="#3a414a" d="M137-1312v-172h180v172H137zM137 0v-1082h180V0H137" id="aW"/><path fill="#3a414a" d="M318-861c55-157 83-241 257-241 24 0 48 3 73 10v165c-24-7-56-10-96-10-75 0-132 33-171 97s-59 156-59 276V0H142c-3-364 6-725-6-1082h170c5 123 8 196 8 221h4" id="aX"/><path fill="#3a414a" d="M350 384c-71 46-190 48-283 30V279c25 4 53 6 84 6 123 0 227-124 283-290L5-1082h192c109 293 229 581 326 886 105-293 205-591 307-886h190L604 0c-45 115-86 202-125 258s-83 96-129 126" id="aY"/><g id="m"><use transform="matrix(0.009765625,0,0,0.009765625,0,0)" xlink:href="#aU"/><use transform="matrix(0.009765625,0,0,0.009765625,14.443359375,0)" xlink:href="#aT"/><use transform="matrix(0.009765625,0,0,0.009765625,25.56640625,0)" xlink:href="#aV"/><use transform="matrix(0.009765625,0,0,0.009765625,30.009765625,0)" xlink:href="#aW"/><use transform="matrix(0.009765625,0,0,0.009765625,34.453125,0)" xlink:href="#aS"/><use transform="matrix(0.009765625,0,0,0.009765625,44.453125,0)" xlink:href="#aT"/><use transform="matrix(0.009765625,0,0,0.009765625,55.576171875,0)" xlink:href="#aX"/><use transform="matrix(0.009765625,0,0,0.009765625,62.236328125,0)" xlink:href="#aY"/></g><path fill="#3a414a" d="M1207-1021c-59-155-207-253-415-253-322-2-494 232-494 563 0 326 186 574 502 574 197 0 346-98 445-293l156 78C1298-131 1096 20 791 20c-448 0-682-279-687-731-5-437 254-721 686-719 309 2 507 125 598 349" id="aZ"/><path fill="#3a414a" d="M322-1484c-2 195 6 405-8 587h3c73-129 159-205 346-205 250 0 342 118 343 381V0H825v-686c3-190-43-277-223-277-176-1-280 140-280 325V0H142v-1484h180" id="ba"/><path fill="#3a414a" d="M663-1102c251 0 343 119 343 381V0H825v-686c0-183-40-279-223-277-184 2-280 141-280 336V0H142c-3-345 6-754-6-1082h170c5 68 6 94 8 185h3c76-134 157-205 346-205" id="bb"/><g id="n"><use transform="matrix(0.009765625,0,0,0.009765625,0,0)" xlink:href="#aZ"/><use transform="matrix(0.009765625,0,0,0.009765625,14.443359375,0)" xlink:href="#ba"/><use transform="matrix(0.009765625,0,0,0.009765625,25.56640625,0)" xlink:href="#aR"/><use transform="matrix(0.009765625,0,0,0.009765625,36.689453125,0)" xlink:href="#bb"/><use transform="matrix(0.009765625,0,0,0.009765625,47.8125,0)" xlink:href="#bb"/><use transform="matrix(0.009765625,0,0,0.009765625,58.935546875,0)" xlink:href="#aT"/><use transform="matrix(0.009765625,0,0,0.009765625,70.05859375,0)" xlink:href="#aV"/></g><path fill="#3a414a" d="M1328-1006c0 221-145 368-344 399L1384 0h-220L798-585H359V0H168v-1409h663c292-4 497 130 497 403zM820-736c188 2 316-89 316-268s-133-252-324-252H359v520h461" id="bc"/><path fill="#3a414a" d="M823-178C754-45 672 20 484 20 177 20 86-203 86-536c0-377 133-566 398-566 183 0 268 65 339 188-1-16 6-173 12-182h173c-5 39-7 138-7 295V425H821c1-201-3-407 4-603h-2zm-293 59c233 0 291-179 291-435 0-251-60-415-289-415-91 0-153 37-197 102-76 111-76 542 1 650 44 63 105 98 194 98" id="bd"/><path fill="#3a414a" d="M476 20C225 20 133-99 133-361v-721h181v686c0 183 40 279 223 277 184-2 280-141 280-336v-627h180c3 345-6 754 6 1082H833c-5-68-6-94-8-185h-3C746-51 665 20 476 20" id="be"/><path fill="#3a414a" d="M513-963c-139 1-238 29-238 149 0 72 41 100 95 127 55 27 348 94 404 125 101 56 176 118 176 263C950-73 758 21 511 20 254 19 107-55 57-254l159-31c34 123 133 168 295 168 156 0 264-34 264-168 0-156-183-165-315-204-171-51-245-68-323-172-26-35-37-82-37-135 0-220 172-304 413-303 232 1 379 74 418 265l-162 20c-23-104-122-150-256-149" id="bf"/><path fill="#3a414a" d="M336-268c2 98 22 139 114 141 24 0 59-5 104-14V-8C495 8 434 16 372 16c-144 0-216-82-216-245v-722H31v-131h132l53-242h120v242h200v131H336v683" id="bg"/><g id="o"><use transform="matrix(0.009765625,0,0,0.009765625,0,0)" xlink:href="#bc"/><use transform="matrix(0.009765625,0,0,0.009765625,14.443359375,0)" xlink:href="#aT"/><use transform="matrix(0.009765625,0,0,0.009765625,25.56640625,0)" xlink:href="#bd"/><use transform="matrix(0.009765625,0,0,0.009765625,36.689453125,0)" xlink:href="#be"/><use transform="matrix(0.009765625,0,0,0.009765625,47.8125,0)" xlink:href="#aT"/><use transform="matrix(0.009765625,0,0,0.009765625,58.935546875,0)" xlink:href="#bf"/><use transform="matrix(0.009765625,0,0,0.009765625,68.935546875,0)" xlink:href="#bg"/></g><path fill="#404040" d="M199 0l-22-63H83L61 0H9l90-248h61L250 0h-51zm-33-102l-36-108c-10 38-24 72-36 108h72" id="bh"/><path fill="#404040" d="M190-63c-7 42-38 67-86 67-59 0-84-38-90-98-12-110 154-137 174-36l-49 2c-2-19-15-32-35-32-30 0-35 28-38 64-6 74 65 87 74 30" id="bi"/><path fill="#404040" d="M185-48c-13 30-37 53-82 52C43 2 14-33 14-96s30-98 90-98c62 0 83 45 84 108H66c0 31 8 55 39 56 18 0 30-7 34-22zm-45-69c5-46-57-63-70-21-2 6-4 13-4 21h74" id="bj"/><path fill="#404040" d="M137-138c1-29-70-34-71-4 15 46 118 7 119 86 1 83-164 76-172 9l43-7c4 19 20 25 44 25 33 8 57-30 24-41C81-84 22-81 20-136c-2-80 154-74 161-7" id="bk"/><path fill="#404040" d="M240-174c0 40-23 61-54 70L253 0h-59l-57-94H76V0H24v-248c93 4 217-23 216 74zM76-134c48-2 112 12 112-38 0-48-66-32-112-35v73" id="bl"/><path fill="#404040" d="M67-125c0 53 21 87 73 88 37 1 54-22 65-47l45 17C233-25 199 4 140 4 58 4 20-42 15-125 8-235 124-281 211-232c18 10 29 29 36 50l-46 12c-8-25-30-41-62-41-52 0-71 34-72 86" id="bm"/><g id="p"><use transform="matrix(0.04938271604938272,0,0,0.04938271604938272,0,0)" xlink:href="#bh"/><use transform="matrix(0.04938271604938272,0,0,0.04938271604938272,12.790123456790125,0)" xlink:href="#bi"/><use transform="matrix(0.04938271604938272,0,0,0.04938271604938272,22.66666666666667,0)" xlink:href="#bi"/><use transform="matrix(0.04938271604938272,0,0,0.04938271604938272,32.543209876543216,0)" xlink:href="#bj"/><use transform="matrix(0.04938271604938272,0,0,0.04938271604938272,42.41975308641976,0)" xlink:href="#bk"/><use transform="matrix(0.04938271604938272,0,0,0.04938271604938272,52.2962962962963,0)" xlink:href="#bk"/><use transform="matrix(0.04938271604938272,0,0,0.04938271604938272,62.17283950617284,0)" xlink:href="#bl"/><use transform="matrix(0.04938271604938272,0,0,0.04938271604938272,74.96296296296298,0)" xlink:href="#bm"/></g><path fill="#404040" d="M24 0v-248h195v40H76v63h132v40H76v65h150V0H24" id="bn"/><path fill="#404040" d="M135-194c87-1 58 113 63 194h-50c-7-57 23-157-34-157-59 0-34 97-39 157H25l-1-190h47c2 12-1 28 3 38 12-26 28-41 61-42" id="bo"/><path fill="#404040" d="M88-194c31-1 46 15 58 34l-1-101h50l1 261h-48c-2-10 0-23-3-31C134-8 116 4 84 4 32 4 16-41 15-95c0-56 19-97 73-99zm17 164c33 0 40-30 41-66 1-37-9-64-41-64s-38 30-39 65c0 43 13 65 39 65" id="bp"/><path fill="#404040" d="M135-194c53 0 70 44 70 98 0 56-19 98-73 100-31 1-45-17-59-34 3 33 2 69 2 105H25l-1-265h48c2 10 0 23 3 31 11-24 29-35 60-35zM114-30c33 0 39-31 40-66 0-38-9-64-40-64-56 0-55 130 0 130" id="bq"/><path fill="#404040" d="M110-194c64 0 96 36 96 99 0 64-35 99-97 99-61 0-95-36-95-99 0-62 34-99 96-99zm-1 164c35 0 45-28 45-65 0-40-10-65-43-65-34 0-45 26-45 65 0 36 10 65 43 65" id="br"/><path fill="#404040" d="M25-224v-37h50v37H25zM25 0v-190h50V0H25" id="bs"/><path fill="#404040" d="M115-3C79 11 28 4 28-45v-112H4v-33h27l15-45h31v45h36v33H77v99c-1 23 16 31 38 25v30" id="bt"/><g id="q"><use transform="matrix(0.04938271604938272,0,0,0.04938271604938272,0,0)" xlink:href="#bn"/><use transform="matrix(0.04938271604938272,0,0,0.04938271604938272,11.851851851851853,0)" xlink:href="#bo"/><use transform="matrix(0.04938271604938272,0,0,0.04938271604938272,22.666666666666668,0)" xlink:href="#bp"/><use transform="matrix(0.04938271604938272,0,0,0.04938271604938272,33.48148148148148,0)" xlink:href="#bq"/><use transform="matrix(0.04938271604938272,0,0,0.04938271604938272,44.2962962962963,0)" xlink:href="#br"/><use transform="matrix(0.04938271604938272,0,0,0.04938271604938272,55.111111111111114,0)" xlink:href="#bs"/><use transform="matrix(0.04938271604938272,0,0,0.04938271604938272,60.04938271604939,0)" xlink:href="#bo"/><use transform="matrix(0.04938271604938272,0,0,0.04938271604938272,70.8641975308642,0)" xlink:href="#bt"/><use transform="matrix(0.04938271604938272,0,0,0.04938271604938272,76.74074074074075,0)" xlink:href="#bk"/></g><g id="r"><use transform="matrix(0.00927734375,0,0,0.00927734375,0,0)" xlink:href="#aJ"/><use transform="matrix(0.00927734375,0,0,0.00927734375,12.6728515625,0)" xlink:href="#az"/><use transform="matrix(0.00927734375,0,0,0.00927734375,23.23974609375,0)" xlink:href="#aG"/><use transform="matrix(0.00927734375,0,0,0.00927734375,32.73974609375,0)" xlink:href="#ay"/></g><path d="M823-178C754-45 672 20 484 20 177 20 86-203 86-536c0-377 133-566 398-566 183 0 268 65 339 188-1-16 6-173 12-182h173c-5 39-7 138-7 295V425H821c1-201-3-407 4-603h-2zm-293 59c233 0 291-179 291-435 0-251-60-415-289-415-91 0-153 37-197 102-76 111-76 542 1 650 44 63 105 98 194 98" id="bu"/><path d="M476 20C225 20 133-99 133-361v-721h181v686c0 183 40 279 223 277 184-2 280-141 280-336v-627h180c3 345-6 754 6 1082H833c-5-68-6-94-8-185h-3C746-51 665 20 476 20" id="bv"/><g id="s"><use transform="matrix(0.00927734375,0,0,0.00927734375,0,0)" xlink:href="#aP"/><use transform="matrix(0.00927734375,0,0,0.00927734375,13.72119140625,0)" xlink:href="#ay"/><use transform="matrix(0.00927734375,0,0,0.00927734375,24.2880859375,0)" xlink:href="#bu"/><use transform="matrix(0.00927734375,0,0,0.00927734375,34.85498046875,0)" xlink:href="#bv"/><use transform="matrix(0.00927734375,0,0,0.00927734375,45.421875,0)" xlink:href="#ay"/><use transform="matrix(0.00927734375,0,0,0.00927734375,55.98876953125,0)" xlink:href="#aO"/><use transform="matrix(0.00927734375,0,0,0.00927734375,65.48876953125,0)" xlink:href="#aA"/></g><path fill="#3a414a" d="M835 0c-5-29-11-137-10-174h-4C759-45 663 20 484 20 177 20 86-201 86-536c0-377 133-566 398-566 178 1 273 67 339 188-4-187-1-380-2-570h180v1261c0 113 2 187 6 223H835zm-14-554c0-255-58-415-289-415-91 0-151 37-196 101-76 109-77 543-1 651 44 63 105 98 195 98 235 0 291-173 291-435" id="bw"/><g id="t"><use transform="matrix(0.009765625,0,0,0.009765625,0,0)" xlink:href="#aQ"/><use transform="matrix(0.009765625,0,0,0.009765625,13.33984375,0)" xlink:href="#aT"/><use transform="matrix(0.009765625,0,0,0.009765625,24.462890625,0)" xlink:href="#bb"/><use transform="matrix(0.009765625,0,0,0.009765625,35.5859375,0)" xlink:href="#bw"/></g><use transform="matrix(0.009765625,0,0,0.009765625,0,0)" xlink:href="#aR" id="u"/><path fill="#3a414a" d="M740-934C689-691 665-619 508 0H300L-3-1082h178c78 327 154 591 226 933 77-315 163-621 243-933h193c78 311 160 619 235 933 72-318 158-621 236-933h176L1174 0H965c-74-312-158-615-225-934" id="bx"/><g id="v"><use transform="matrix(0.009765625,0,0,0.009765625,0,0)" xlink:href="#bb"/><use transform="matrix(0.009765625,0,0,0.009765625,11.123046875,0)" xlink:href="#aT"/><use transform="matrix(0.009765625,0,0,0.009765625,22.24609375,0)" xlink:href="#bx"/></g><g id="w"><use transform="matrix(0.009765625,0,0,0.009765625,0,0)" xlink:href="#aU"/><use transform="matrix(0.009765625,0,0,0.009765625,14.443359375,0)" xlink:href="#aT"/><use transform="matrix(0.009765625,0,0,0.009765625,25.56640625,0)" xlink:href="#aV"/><use transform="matrix(0.009765625,0,0,0.009765625,30.009765625,0)" xlink:href="#aW"/><use transform="matrix(0.009765625,0,0,0.009765625,34.453125,0)" xlink:href="#aS"/><use transform="matrix(0.009765625,0,0,0.009765625,44.453125,0)" xlink:href="#aT"/><use transform="matrix(0.009765625,0,0,0.009765625,55.576171875,0)" xlink:href="#aX"/><use transform="matrix(0.009765625,0,0,0.009765625,62.236328125,0)" xlink:href="#aY"/></g><g id="x"><use transform="matrix(0.04938271604938272,0,0,0.04938271604938272,0,0)" xlink:href="#ap"/><use transform="matrix(0.04938271604938272,0,0,0.04938271604938272,11.851851851851853,0)" xlink:href="#al"/><use transform="matrix(0.04938271604938272,0,0,0.04938271604938272,21.7283950617284,0)" xlink:href="#aq"/><use transform="matrix(0.04938271604938272,0,0,0.04938271604938272,28.64197530864198,0)" xlink:href="#ar"/><use transform="matrix(0.04938271604938272,0,0,0.04938271604938272,38.518518518518526,0)" xlink:href="#as"/><use transform="matrix(0.04938271604938272,0,0,0.04938271604938272,43.4567901234568,0)" xlink:href="#ak"/><use transform="matrix(0.04938271604938272,0,0,0.04938271604938272,53.333333333333336,0)" xlink:href="#al"/></g><g id="y"><use transform="matrix(0.04938271604938272,0,0,0.04938271604938272,0,0)" xlink:href="#at"/><use transform="matrix(0.04938271604938272,0,0,0.04938271604938272,11.851851851851853,0)" xlink:href="#aq"/><use transform="matrix(0.04938271604938272,0,0,0.04938271604938272,18.765432098765434,0)" xlink:href="#au"/><use transform="matrix(0.04938271604938272,0,0,0.04938271604938272,29.58024691358025,0)" xlink:href="#ar"/><use transform="matrix(0.04938271604938272,0,0,0.04938271604938272,39.45679012345679,0)" xlink:href="#as"/><use transform="matrix(0.04938271604938272,0,0,0.04938271604938272,44.39506172839506,0)" xlink:href="#av"/><use transform="matrix(0.04938271604938272,0,0,0.04938271604938272,55.20987654320988,0)" xlink:href="#al"/><use transform="matrix(0.04938271604938272,0,0,0.04938271604938272,65.08641975308643,0)" xlink:href="#aq"/></g><path fill="#3a414a" d="M133-34C117-15 103 5 69 4 32 3 11-16 11-54c-1-60 55-63 116-61 1-26-3-47-28-47-18 1-26 9-28 27l-52-2c7-38 36-58 82-57s74 22 75 68l1 82c-1 14 12 18 25 15v27c-30 8-71 5-69-32zm-48 3c29 0 43-24 42-57-32 0-66-3-65 30 0 17 8 27 23 27" id="by"/><path fill="#3a414a" d="M25 0v-261h50V0H25" id="bz"/><path fill="#3a414a" d="M135-194c52 0 70 43 70 98 0 56-19 99-73 100-30 1-46-15-58-35L72 0H24l1-261h50v104c11-23 29-37 60-37zM114-30c31 0 40-27 40-66 0-37-7-63-39-63s-41 28-41 65c0 36 8 64 40 64" id="bA"/><path fill="#3a414a" d="M147 0L96-86 75-71V0H25v-261h50v150l67-79h53l-66 74L201 0h-54" id="bB"/><g id="z"><use transform="matrix(0.04938271604938272,0,0,0.04938271604938272,0,0)" xlink:href="#ao"/><use transform="matrix(0.04938271604938272,0,0,0.04938271604938272,12.790123456790125,0)" xlink:href="#by"/><use transform="matrix(0.04938271604938272,0,0,0.04938271604938272,22.66666666666667,0)" xlink:href="#bz"/><use transform="matrix(0.04938271604938272,0,0,0.04938271604938272,27.604938271604947,0)" xlink:href="#bz"/><use transform="matrix(0.04938271604938272,0,0,0.04938271604938272,32.543209876543216,0)" xlink:href="#bA"/><use transform="matrix(0.04938271604938272,0,0,0.04938271604938272,43.35802469135803,0)" xlink:href="#by"/><use transform="matrix(0.04938271604938272,0,0,0.04938271604938272,53.23456790123457,0)" xlink:href="#ak"/><use transform="matrix(0.04938271604938272,0,0,0.04938271604938272,63.111111111111114,0)" xlink:href="#bB"/></g><path fill="#3a414a" d="M24 0v-248h195v40H76v63h132v40H76v65h150V0H24" id="bC"/><path fill="#3a414a" d="M135-194c87-1 58 113 63 194h-50c-7-57 23-157-34-157-59 0-34 97-39 157H25l-1-190h47c2 12-1 28 3 38 12-26 28-41 61-42" id="bD"/><path fill="#3a414a" d="M135-194c53 0 70 44 70 98 0 56-19 98-73 100-31 1-45-17-59-34 3 33 2 69 2 105H25l-1-265h48c2 10 0 23 3 31 11-24 29-35 60-35zM114-30c33 0 39-31 40-66 0-38-9-64-40-64-56 0-55 130 0 130" id="bE"/><path fill="#3a414a" d="M115-3C79 11 28 4 28-45v-112H4v-33h27l15-45h31v45h36v33H77v99c-1 23 16 31 38 25v30" id="bF"/><g id="A"><use transform="matrix(0.04938271604938272,0,0,0.04938271604938272,0,0)" xlink:href="#bC"/><use transform="matrix(0.04938271604938272,0,0,0.04938271604938272,11.851851851851853,0)" xlink:href="#bD"/><use transform="matrix(0.04938271604938272,0,0,0.04938271604938272,22.666666666666668,0)" xlink:href="#av"/><use transform="matrix(0.04938271604938272,0,0,0.04938271604938272,33.48148148148148,0)" xlink:href="#bE"/><use transform="matrix(0.04938271604938272,0,0,0.04938271604938272,44.2962962962963,0)" xlink:href="#au"/><use transform="matrix(0.04938271604938272,0,0,0.04938271604938272,55.111111111111114,0)" xlink:href="#as"/><use transform="matrix(0.04938271604938272,0,0,0.04938271604938272,60.04938271604939,0)" xlink:href="#bD"/><use transform="matrix(0.04938271604938272,0,0,0.04938271604938272,70.8641975308642,0)" xlink:href="#bF"/><use transform="matrix(0.04938271604938272,0,0,0.04938271604938272,76.74074074074075,0)" xlink:href="#am"/></g><g id="B"><use transform="matrix(0.00927734375,0,0,0.00927734375,0,0)" xlink:href="#aP"/><use transform="matrix(0.00927734375,0,0,0.00927734375,13.72119140625,0)" xlink:href="#ay"/><use transform="matrix(0.00927734375,0,0,0.00927734375,24.2880859375,0)" xlink:href="#bu"/><use transform="matrix(0.00927734375,0,0,0.00927734375,34.85498046875,0)" xlink:href="#bv"/><use transform="matrix(0.00927734375,0,0,0.00927734375,45.421875,0)" xlink:href="#ay"/><use transform="matrix(0.00927734375,0,0,0.00927734375,55.98876953125,0)" xlink:href="#aO"/><use transform="matrix(0.00927734375,0,0,0.00927734375,65.48876953125,0)" xlink:href="#aA"/></g><path d="M1321-530c-7 359-228 550-590 550-350 0-573-184-573-532v-897h191v881c-2 253 132 393 381 393 255 0 401-146 401-406v-868h190v879" id="bG"/><path d="M320-908c63-128 152-193 335-193 133 0 233 45 299 134s99 230 99 421c0 377-133 566-398 566-167 0-279-63-336-188h-5c8 141 2 428 4 593H138V-861c0-111-2-185-6-221h174c5 33 9 134 10 174h4zm-2 380c0 254 57 415 289 415 89 0 149-37 195-99 76-105 79-547 1-653-45-62-105-97-194-97-243 1-291 184-291 434" id="bH"/><g id="C"><use transform="matrix(0.00927734375,0,0,0.00927734375,0,0)" xlink:href="#bG"/><use transform="matrix(0.00927734375,0,0,0.00927734375,13.72119140625,0)" xlink:href="#bH"/><use transform="matrix(0.00927734375,0,0,0.00927734375,24.2880859375,0)" xlink:href="#aK"/><use transform="matrix(0.00927734375,0,0,0.00927734375,34.85498046875,0)" xlink:href="#az"/><use transform="matrix(0.00927734375,0,0,0.00927734375,45.421875,0)" xlink:href="#aA"/><use transform="matrix(0.00927734375,0,0,0.00927734375,50.70068359375,0)" xlink:href="#ay"/><use transform="matrix(0.00927734375,0,0,0.00927734375,61.267578125,0)" xlink:href="#aO"/></g><g id="D"><use transform="matrix(0.00927734375,0,0,0.00927734375,0,0)" xlink:href="#bv"/><use transform="matrix(0.00927734375,0,0,0.00927734375,10.56689453125,0)" xlink:href="#bH"/><use transform="matrix(0.00927734375,0,0,0.00927734375,21.1337890625,0)" xlink:href="#aK"/><use transform="matrix(0.00927734375,0,0,0.00927734375,31.70068359375,0)" xlink:href="#az"/><use transform="matrix(0.00927734375,0,0,0.00927734375,42.267578125,0)" xlink:href="#aA"/><use transform="matrix(0.00927734375,0,0,0.00927734375,47.54638671875,0)" xlink:href="#ay"/><use transform="matrix(0.00927734375,0,0,0.00927734375,58.11328125,0)" xlink:href="#aO"/></g><path d="M492-1341c-103 3-130 49-131 162v97h211v131H361V0H181v-951H29v-131h152v-122c0-192 78-276 264-278 50 0 92 4 127 12v137c-30-5-57-8-80-8" id="bI"/><g id="E"><use transform="matrix(0.00927734375,0,0,0.00927734375,0,0)" xlink:href="#aP"/><use transform="matrix(0.00927734375,0,0,0.00927734375,13.72119140625,0)" xlink:href="#ay"/><use transform="matrix(0.00927734375,0,0,0.00927734375,24.2880859375,0)" xlink:href="#bI"/><use transform="matrix(0.00927734375,0,0,0.00927734375,29.56689453125,0)" xlink:href="#bv"/><use transform="matrix(0.00927734375,0,0,0.00927734375,40.1337890625,0)" xlink:href="#aB"/><use transform="matrix(0.00927734375,0,0,0.00927734375,50.70068359375,0)" xlink:href="#aK"/></g><g id="F"><use transform="matrix(0.00927734375,0,0,0.00927734375,0,0)" xlink:href="#ax"/><use transform="matrix(0.00927734375,0,0,0.00927734375,6.3271484375,0)" xlink:href="#ay"/><use transform="matrix(0.00927734375,0,0,0.00927734375,16.89404296875,0)" xlink:href="#bu"/><use transform="matrix(0.00927734375,0,0,0.00927734375,27.4609375,0)" xlink:href="#bv"/><use transform="matrix(0.00927734375,0,0,0.00927734375,38.02783203125,0)" xlink:href="#ay"/><use transform="matrix(0.00927734375,0,0,0.00927734375,48.5947265625,0)" xlink:href="#aO"/><use transform="matrix(0.00927734375,0,0,0.00927734375,58.0947265625,0)" xlink:href="#aA"/></g><g id="G"><use transform="matrix(0.00927734375,0,0,0.00927734375,0,0)" xlink:href="#az"/><use transform="matrix(0.00927734375,0,0,0.00927734375,10.56689453125,0)" xlink:href="#aB"/><use transform="matrix(0.00927734375,0,0,0.00927734375,21.1337890625,0)" xlink:href="#aK"/></g><g id="H"><use transform="matrix(0.00927734375,0,0,0.00927734375,0,0)" xlink:href="#bH"/><use transform="matrix(0.00927734375,0,0,0.00927734375,10.56689453125,0)" xlink:href="#ax"/><use transform="matrix(0.00927734375,0,0,0.00927734375,16.89404296875,0)" xlink:href="#aL"/><use transform="matrix(0.00927734375,0,0,0.00927734375,27.4609375,0)" xlink:href="#aN"/><use transform="matrix(0.00927734375,0,0,0.00927734375,36.9609375,0)" xlink:href="#ay"/><use transform="matrix(0.00927734375,0,0,0.00927734375,47.52783203125,0)" xlink:href="#aO"/><use transform="matrix(0.00927734375,0,0,0.00927734375,57.02783203125,0)" xlink:href="#aO"/></g><g id="I"><use transform="matrix(0.009765625,0,0,0.009765625,0,0)" xlink:href="#aQ"/><use transform="matrix(0.009765625,0,0,0.009765625,13.33984375,0)" xlink:href="#aT"/><use transform="matrix(0.009765625,0,0,0.009765625,24.462890625,0)" xlink:href="#bb"/><use transform="matrix(0.009765625,0,0,0.009765625,35.5859375,0)" xlink:href="#bw"/></g><path fill="#3a414a" d="M492-1341c-103 3-130 49-131 162v97h211v131H361V0H181v-951H29v-131h152v-122c0-192 78-276 264-278 50 0 92 4 127 12v137c-30-5-57-8-80-8" id="bJ"/><g id="J"><use transform="matrix(0.009765625,0,0,0.009765625,0,0)" xlink:href="#bc"/><use transform="matrix(0.009765625,0,0,0.009765625,14.443359375,0)" xlink:href="#aT"/><use transform="matrix(0.009765625,0,0,0.009765625,25.56640625,0)" xlink:href="#bJ"/><use transform="matrix(0.009765625,0,0,0.009765625,31.123046875,0)" xlink:href="#be"/><use transform="matrix(0.009765625,0,0,0.009765625,42.24609375,0)" xlink:href="#bb"/><use transform="matrix(0.009765625,0,0,0.009765625,53.369140625,0)" xlink:href="#bw"/></g><g id="K"><use transform="matrix(0.009765625,0,0,0.009765625,0,0)" xlink:href="#bc"/><use transform="matrix(0.009765625,0,0,0.009765625,14.443359375,0)" xlink:href="#aT"/><use transform="matrix(0.009765625,0,0,0.009765625,25.56640625,0)" xlink:href="#bd"/><use transform="matrix(0.009765625,0,0,0.009765625,36.689453125,0)" xlink:href="#be"/><use transform="matrix(0.009765625,0,0,0.009765625,47.8125,0)" xlink:href="#aT"/><use transform="matrix(0.009765625,0,0,0.009765625,58.935546875,0)" xlink:href="#bf"/><use transform="matrix(0.009765625,0,0,0.009765625,68.935546875,0)" xlink:href="#bg"/></g><path fill="#3a414a" d="M1167 0l-161-412H364L202 0H4l575-1409h217L1362 0h-195zM685-1265c-69 226-179 482-263 704h527c-89-236-186-456-264-704" id="bK"/><path fill="#3a414a" d="M320-908c63-128 152-193 335-193 133 0 233 45 299 134s99 230 99 421c0 377-133 566-398 566-167 0-279-63-336-188h-5c8 141 2 428 4 593H138V-861c0-111-2-185-6-221h174c5 33 9 134 10 174h4zm-2 380c0 254 57 415 289 415 89 0 149-37 195-99 76-105 79-547 1-653-45-62-105-97-194-97-243 1-291 184-291 434" id="bL"/><path fill="#3a414a" d="M571-1102c350 0 480 196 482 560 2 357-151 562-488 562C233 20 86-198 86-542c0-373 162-560 485-560zm-8 989c244 0 301-164 301-429 0-266-49-427-290-427-239 0-299 165-299 427 0 252 61 429 288 429" id="bM"/><g id="L"><use transform="matrix(0.009765625,0,0,0.009765625,0,0)" xlink:href="#bK"/><use transform="matrix(0.009765625,0,0,0.009765625,13.33984375,0)" xlink:href="#bL"/><use transform="matrix(0.009765625,0,0,0.009765625,24.462890625,0)" xlink:href="#bL"/><use transform="matrix(0.009765625,0,0,0.009765625,35.5859375,0)" xlink:href="#aX"/><use transform="matrix(0.009765625,0,0,0.009765625,42.24609375,0)" xlink:href="#bM"/><use transform="matrix(0.009765625,0,0,0.009765625,53.369140625,0)" xlink:href="#aS"/><use transform="matrix(0.009765625,0,0,0.009765625,63.369140625,0)" xlink:href="#aT"/></g><g id="M"><use transform="matrix(0.009765625,0,0,0.009765625,0,0)" xlink:href="#bM"/><use transform="matrix(0.009765625,0,0,0.009765625,11.123046875,0)" xlink:href="#aX"/></g><path fill="#3a414a" d="M137-1312v-172h180v172H137zM12 283c109-5 125-52 125-176v-1189h180V134c0 189-65 291-240 291-51 0-94-3-127-9V277" id="bN"/><path fill="#3a414a" d="M779-765c-19-119-93-196-233-196-95 0-164 32-207 95s-64 170-64 320c0 144 23 251 68 320s114 104 205 104c139 0 224-79 240-212l182 12C946-119 781 22 553 20 230 17 87-201 87-542c0-338 145-557 464-560 225-1 380 129 413 323" id="bO"/><g id="N"><use transform="matrix(0.009765625,0,0,0.009765625,0,0)" xlink:href="#bc"/><use transform="matrix(0.009765625,0,0,0.009765625,14.443359375,0)" xlink:href="#aT"/><use transform="matrix(0.009765625,0,0,0.009765625,25.56640625,0)" xlink:href="#bN"/><use transform="matrix(0.009765625,0,0,0.009765625,30.009765625,0)" xlink:href="#aT"/><use transform="matrix(0.009765625,0,0,0.009765625,41.1328125,0)" xlink:href="#bO"/><use transform="matrix(0.009765625,0,0,0.009765625,51.1328125,0)" xlink:href="#bg"/></g><g id="O"><use transform="matrix(0.009765625,0,0,0.009765625,0,0)" xlink:href="#aZ"/><use transform="matrix(0.009765625,0,0,0.009765625,14.443359375,0)" xlink:href="#ba"/><use transform="matrix(0.009765625,0,0,0.009765625,25.56640625,0)" xlink:href="#aR"/><use transform="matrix(0.009765625,0,0,0.009765625,36.689453125,0)" xlink:href="#bb"/><use transform="matrix(0.009765625,0,0,0.009765625,47.8125,0)" xlink:href="#bb"/><use transform="matrix(0.009765625,0,0,0.009765625,58.935546875,0)" xlink:href="#aT"/><use transform="matrix(0.009765625,0,0,0.009765625,70.05859375,0)" xlink:href="#aV"/></g><path fill="#333" d="M169-182c-1-43-94-46-97-3 18 66 151 10 154 114 3 95-165 93-204 36-6-8-10-19-12-30l50-8c3 46 112 56 116 5-17-69-150-10-154-114-4-87 153-88 188-35 5 8 8 18 10 28" id="bP"/><path fill="#333" d="M185-48c-13 30-37 53-82 52C43 2 14-33 14-96s30-98 90-98c62 0 83 45 84 108H66c0 31 8 55 39 56 18 0 30-7 34-22zm-45-69c5-46-57-63-70-21-2 6-4 13-4 21h74" id="bQ"/><path fill="#333" d="M135-150c-39-12-60 13-60 57V0H25l-1-190h47c2 13-1 29 3 40 6-28 27-53 61-41v41" id="bR"/><path fill="#333" d="M128 0H69L1-190h53L99-40l48-150h52" id="bS"/><path fill="#333" d="M25-224v-37h50v37H25zM25 0v-190h50V0H25" id="bT"/><path fill="#333" d="M190-63c-7 42-38 67-86 67-59 0-84-38-90-98-12-110 154-137 174-36l-49 2c-2-19-15-32-35-32-30 0-35 28-38 64-6 74 65 87 74 30" id="bU"/><g id="P"><use transform="matrix(0.04938271604938272,0,0,0.04938271604938272,0,0)" xlink:href="#bP"/><use transform="matrix(0.04938271604938272,0,0,0.04938271604938272,11.851851851851853,0)" xlink:href="#bQ"/><use transform="matrix(0.04938271604938272,0,0,0.04938271604938272,21.7283950617284,0)" xlink:href="#bR"/><use transform="matrix(0.04938271604938272,0,0,0.04938271604938272,28.64197530864198,0)" xlink:href="#bS"/><use transform="matrix(0.04938271604938272,0,0,0.04938271604938272,38.518518518518526,0)" xlink:href="#bT"/><use transform="matrix(0.04938271604938272,0,0,0.04938271604938272,43.4567901234568,0)" xlink:href="#bU"/><use transform="matrix(0.04938271604938272,0,0,0.04938271604938272,53.333333333333336,0)" xlink:href="#bQ"/></g><path fill="#333" d="M24-248c93 1 206-16 204 79-1 75-69 88-152 82V0H24v-248zm52 121c47 0 100 7 100-41 0-47-54-39-100-39v80" id="bV"/><path fill="#333" d="M110-194c64 0 96 36 96 99 0 64-35 99-97 99-61 0-95-36-95-99 0-62 34-99 96-99zm-1 164c35 0 45-28 45-65 0-40-10-65-43-65-34 0-45 26-45 65 0 36 10 65 43 65" id="bW"/><path fill="#333" d="M88-194c31-1 46 15 58 34l-1-101h50l1 261h-48c-2-10 0-23-3-31C134-8 116 4 84 4 32 4 16-41 15-95c0-56 19-97 73-99zm17 164c33 0 40-30 41-66 1-37-9-64-41-64s-38 30-39 65c0 43 13 65 39 65" id="bX"/><g id="Q"><use transform="matrix(0.04938271604938272,0,0,0.04938271604938272,0,0)" xlink:href="#bV"/><use transform="matrix(0.04938271604938272,0,0,0.04938271604938272,11.851851851851853,0)" xlink:href="#bR"/><use transform="matrix(0.04938271604938272,0,0,0.04938271604938272,18.765432098765434,0)" xlink:href="#bW"/><use transform="matrix(0.04938271604938272,0,0,0.04938271604938272,29.58024691358025,0)" xlink:href="#bS"/><use transform="matrix(0.04938271604938272,0,0,0.04938271604938272,39.45679012345679,0)" xlink:href="#bT"/><use transform="matrix(0.04938271604938272,0,0,0.04938271604938272,44.39506172839506,0)" xlink:href="#bX"/><use transform="matrix(0.04938271604938272,0,0,0.04938271604938272,55.20987654320988,0)" xlink:href="#bQ"/><use transform="matrix(0.04938271604938272,0,0,0.04938271604938272,65.08641975308643,0)" xlink:href="#bR"/></g><path fill="#333" d="M67-125c0 53 21 87 73 88 37 1 54-22 65-47l45 17C233-25 199 4 140 4 58 4 20-42 15-125 8-235 124-281 211-232c18 10 29 29 36 50l-46 12c-8-25-30-41-62-41-52 0-71 34-72 86" id="bY"/><path fill="#333" d="M133-34C117-15 103 5 69 4 32 3 11-16 11-54c-1-60 55-63 116-61 1-26-3-47-28-47-18 1-26 9-28 27l-52-2c7-38 36-58 82-57s74 22 75 68l1 82c-1 14 12 18 25 15v27c-30 8-71 5-69-32zm-48 3c29 0 43-24 42-57-32 0-66-3-65 30 0 17 8 27 23 27" id="bZ"/><path fill="#333" d="M25 0v-261h50V0H25" id="ca"/><path fill="#333" d="M135-194c52 0 70 43 70 98 0 56-19 99-73 100-30 1-46-15-58-35L72 0H24l1-261h50v104c11-23 29-37 60-37zM114-30c31 0 40-27 40-66 0-37-7-63-39-63s-41 28-41 65c0 36 8 64 40 64" id="cb"/><path fill="#333" d="M147 0L96-86 75-71V0H25v-261h50v150l67-79h53l-66 74L201 0h-54" id="cc"/><g id="R"><use transform="matrix(0.04938271604938272,0,0,0.04938271604938272,0,0)" xlink:href="#bY"/><use transform="matrix(0.04938271604938272,0,0,0.04938271604938272,12.790123456790125,0)" xlink:href="#bZ"/><use transform="matrix(0.04938271604938272,0,0,0.04938271604938272,22.66666666666667,0)" xlink:href="#ca"/><use transform="matrix(0.04938271604938272,0,0,0.04938271604938272,27.604938271604947,0)" xlink:href="#ca"/><use transform="matrix(0.04938271604938272,0,0,0.04938271604938272,32.543209876543216,0)" xlink:href="#cb"/><use transform="matrix(0.04938271604938272,0,0,0.04938271604938272,43.35802469135803,0)" xlink:href="#bZ"/><use transform="matrix(0.04938271604938272,0,0,0.04938271604938272,53.23456790123457,0)" xlink:href="#bU"/><use transform="matrix(0.04938271604938272,0,0,0.04938271604938272,63.111111111111114,0)" xlink:href="#cc"/></g><path fill="#333" d="M24 0v-248h195v40H76v63h132v40H76v65h150V0H24" id="cd"/><path fill="#333" d="M135-194c87-1 58 113 63 194h-50c-7-57 23-157-34-157-59 0-34 97-39 157H25l-1-190h47c2 12-1 28 3 38 12-26 28-41 61-42" id="ce"/><path fill="#333" d="M135-194c53 0 70 44 70 98 0 56-19 98-73 100-31 1-45-17-59-34 3 33 2 69 2 105H25l-1-265h48c2 10 0 23 3 31 11-24 29-35 60-35zM114-30c33 0 39-31 40-66 0-38-9-64-40-64-56 0-55 130 0 130" id="cf"/><path fill="#333" d="M115-3C79 11 28 4 28-45v-112H4v-33h27l15-45h31v45h36v33H77v99c-1 23 16 31 38 25v30" id="cg"/><path fill="#333" d="M137-138c1-29-70-34-71-4 15 46 118 7 119 86 1 83-164 76-172 9l43-7c4 19 20 25 44 25 33 8 57-30 24-41C81-84 22-81 20-136c-2-80 154-74 161-7" id="ch"/><g id="S"><use transform="matrix(0.04938271604938272,0,0,0.04938271604938272,0,0)" xlink:href="#cd"/><use transform="matrix(0.04938271604938272,0,0,0.04938271604938272,11.851851851851853,0)" xlink:href="#ce"/><use transform="matrix(0.04938271604938272,0,0,0.04938271604938272,22.666666666666668,0)" xlink:href="#bX"/><use transform="matrix(0.04938271604938272,0,0,0.04938271604938272,33.48148148148148,0)" xlink:href="#cf"/><use transform="matrix(0.04938271604938272,0,0,0.04938271604938272,44.2962962962963,0)" xlink:href="#bW"/><use transform="matrix(0.04938271604938272,0,0,0.04938271604938272,55.111111111111114,0)" xlink:href="#bT"/><use transform="matrix(0.04938271604938272,0,0,0.04938271604938272,60.04938271604939,0)" xlink:href="#ce"/><use transform="matrix(0.04938271604938272,0,0,0.04938271604938272,70.8641975308642,0)" xlink:href="#cg"/><use transform="matrix(0.04938271604938272,0,0,0.04938271604938272,76.74074074074075,0)" xlink:href="#ch"/></g><g id="T"><use transform="matrix(0.009765625,0,0,0.009765625,0,0)" xlink:href="#aQ"/><use transform="matrix(0.009765625,0,0,0.009765625,13.33984375,0)" xlink:href="#aY"/><use transform="matrix(0.009765625,0,0,0.009765625,23.33984375,0)" xlink:href="#bb"/><use transform="matrix(0.009765625,0,0,0.009765625,34.462890625,0)" xlink:href="#bO"/></g><g id="U"><use transform="matrix(0.009765625,0,0,0.009765625,0,0)" xlink:href="#aQ"/><use transform="matrix(0.009765625,0,0,0.009765625,13.33984375,0)" xlink:href="#bg"/><use transform="matrix(0.009765625,0,0,0.009765625,18.896484375,0)" xlink:href="#aR"/><use transform="matrix(0.009765625,0,0,0.009765625,30.01953125,0)" xlink:href="#bg"/><use transform="matrix(0.009765625,0,0,0.009765625,35.576171875,0)" xlink:href="#be"/><use transform="matrix(0.009765625,0,0,0.009765625,46.69921875,0)" xlink:href="#bf"/></g><path d="M655-1102c307 0 398 221 398 556 0 377-133 566-398 566-180 0-272-66-339-188 1 22-7 151-10 168H132c4-36 6-110 6-223v-1261h180c-2 196 4 384-4 576h4c62-129 158-194 337-194zM318-529c0 254 57 416 289 416 91 0 152-37 197-101 76-109 76-543 0-651-44-63-105-98-195-98-236 0-291 169-291 434" id="ci"/><g id="V"><use transform="matrix(0.00927734375,0,0,0.00927734375,0,0)" xlink:href="#aJ"/><use transform="matrix(0.00927734375,0,0,0.00927734375,12.6728515625,0)" xlink:href="#bv"/><use transform="matrix(0.00927734375,0,0,0.00927734375,23.23974609375,0)" xlink:href="#ci"/><use transform="matrix(0.00927734375,0,0,0.00927734375,33.806640625,0)" xlink:href="#aO"/><use transform="matrix(0.00927734375,0,0,0.00927734375,43.306640625,0)" xlink:href="#aN"/><use transform="matrix(0.00927734375,0,0,0.00927734375,52.806640625,0)" xlink:href="#ax"/><use transform="matrix(0.00927734375,0,0,0.00927734375,59.1337890625,0)" xlink:href="#aF"/><use transform="matrix(0.00927734375,0,0,0.00927734375,63.35498046875,0)" xlink:href="#ci"/><use transform="matrix(0.00927734375,0,0,0.00927734375,73.921875,0)" xlink:href="#ay"/><use transform="matrix(0.00927734375,0,0,0.00927734375,84.48876953125,0)" xlink:href="#aO"/></g><g id="W"><use transform="matrix(0.00927734375,0,0,0.00927734375,0,0)" xlink:href="#aA"/><use transform="matrix(0.00927734375,0,0,0.00927734375,5.27880859375,0)" xlink:href="#aL"/></g><g id="X"><use transform="matrix(0.00927734375,0,0,0.00927734375,0,0)" xlink:href="#az"/><use transform="matrix(0.00927734375,0,0,0.00927734375,10.56689453125,0)" xlink:href="#aB"/></g><path d="M168 0v-1409h1069v156H359v452h818v154H359v491h919V0H168" id="cj"/><g id="Y"><use transform="matrix(0.00927734375,0,0,0.00927734375,0,0)" xlink:href="#cj"/><use transform="matrix(0.00927734375,0,0,0.00927734375,12.6728515625,0)" xlink:href="#aG"/><use transform="matrix(0.00927734375,0,0,0.00927734375,22.1728515625,0)" xlink:href="#ay"/><use transform="matrix(0.00927734375,0,0,0.00927734375,32.73974609375,0)" xlink:href="#aB"/><use transform="matrix(0.00927734375,0,0,0.00927734375,43.306640625,0)" xlink:href="#aA"/></g><g id="Z"><use transform="matrix(0.00927734375,0,0,0.00927734375,0,0)" xlink:href="#aJ"/><use transform="matrix(0.00927734375,0,0,0.00927734375,12.6728515625,0)" xlink:href="#az"/><use transform="matrix(0.00927734375,0,0,0.00927734375,23.23974609375,0)" xlink:href="#aG"/><use transform="matrix(0.00927734375,0,0,0.00927734375,32.73974609375,0)" xlink:href="#ay"/></g><g id="aa"><use transform="matrix(0.00927734375,0,0,0.00927734375,0,0)" xlink:href="#cj"/><use transform="matrix(0.00927734375,0,0,0.00927734375,12.6728515625,0)" xlink:href="#aG"/><use transform="matrix(0.00927734375,0,0,0.00927734375,22.1728515625,0)" xlink:href="#ay"/><use transform="matrix(0.00927734375,0,0,0.00927734375,32.73974609375,0)" xlink:href="#aB"/><use transform="matrix(0.00927734375,0,0,0.00927734375,43.306640625,0)" xlink:href="#aA"/></g><g id="ab"><use transform="matrix(0.00927734375,0,0,0.00927734375,0,0)" xlink:href="#aJ"/><use transform="matrix(0.00927734375,0,0,0.00927734375,12.6728515625,0)" xlink:href="#bv"/><use transform="matrix(0.00927734375,0,0,0.00927734375,23.23974609375,0)" xlink:href="#ci"/><use transform="matrix(0.00927734375,0,0,0.00927734375,33.806640625,0)" xlink:href="#aO"/><use transform="matrix(0.00927734375,0,0,0.00927734375,43.306640625,0)" xlink:href="#aN"/><use transform="matrix(0.00927734375,0,0,0.00927734375,52.806640625,0)" xlink:href="#ax"/><use transform="matrix(0.00927734375,0,0,0.00927734375,59.1337890625,0)" xlink:href="#aF"/><use transform="matrix(0.00927734375,0,0,0.00927734375,63.35498046875,0)" xlink:href="#bH"/><use transform="matrix(0.00927734375,0,0,0.00927734375,73.921875,0)" xlink:href="#aA"/><use transform="matrix(0.00927734375,0,0,0.00927734375,79.20068359375,0)" xlink:href="#aF"/><use transform="matrix(0.00927734375,0,0,0.00927734375,83.421875,0)" xlink:href="#aL"/><use transform="matrix(0.00927734375,0,0,0.00927734375,93.98876953125,0)" xlink:href="#aB"/></g><path fill="#3a414a" d="M24-248c120-7 223 5 221 122C244-46 201 0 124 0H24v-248zM76-40c74 7 117-18 117-86 0-67-45-88-117-82v168" id="ck"/><path fill="#3a414a" d="M24 0v-248h52v208h133V0H24" id="cl"/><path fill="#3a414a" d="M24 0v-248h52V0H24" id="cm"/><path fill="#3a414a" d="M147 0H94L2-248h55l64 206c17-72 42-137 63-206h54" id="cn"/><path fill="#3a414a" d="M146-102V0H94v-102L6-248h54l60 105 60-105h54" id="co"/><g id="ac"><use transform="matrix(0.06172839506172839,0,0,0.06172839506172839,0,0)" xlink:href="#ck"/><use transform="matrix(0.06172839506172839,0,0,0.06172839506172839,15.987654320987653,0)" xlink:href="#bC"/><use transform="matrix(0.06172839506172839,0,0,0.06172839506172839,30.80246913580247,0)" xlink:href="#cl"/><use transform="matrix(0.06172839506172839,0,0,0.06172839506172839,44.32098765432099,0)" xlink:href="#cm"/><use transform="matrix(0.06172839506172839,0,0,0.06172839506172839,50.49382716049383,0)" xlink:href="#cn"/><use transform="matrix(0.06172839506172839,0,0,0.06172839506172839,65.30864197530865,0)" xlink:href="#bC"/><use transform="matrix(0.06172839506172839,0,0,0.06172839506172839,80.12345679012346,0)" xlink:href="#an"/><use transform="matrix(0.06172839506172839,0,0,0.06172839506172839,95.30864197530865,0)" xlink:href="#co"/></g><path fill="#3a414a" d="M186 0v-106H76V0H24v-248h52v99h110v-99h50V0h-50" id="cp"/><path fill="#3a414a" d="M175 0L67-191c6 58 2 128 3 191H24v-248h59L193-55c-6-58-2-129-3-193h46V0h-61" id="cq"/><g id="ad"><use transform="matrix(0.06172839506172839,0,0,0.06172839506172839,0,0)" xlink:href="#ao"/><use transform="matrix(0.06172839506172839,0,0,0.06172839506172839,15.987654320987653,0)" xlink:href="#cp"/><use transform="matrix(0.06172839506172839,0,0,0.06172839506172839,31.975308641975307,0)" xlink:href="#aj"/><use transform="matrix(0.06172839506172839,0,0,0.06172839506172839,47.96296296296296,0)" xlink:href="#cq"/><use transform="matrix(0.06172839506172839,0,0,0.06172839506172839,63.95061728395061,0)" xlink:href="#cq"/><use transform="matrix(0.06172839506172839,0,0,0.06172839506172839,79.93827160493827,0)" xlink:href="#bC"/><use transform="matrix(0.06172839506172839,0,0,0.06172839506172839,94.75308641975307,0)" xlink:href="#cl"/></g><path fill="#3a414a" d="M136-208V0H84v-208H4v-40h212v40h-80" id="cr"/><g id="ae"><use transform="matrix(0.06172839506172839,0,0,0.06172839506172839,0,0)" xlink:href="#bC"/><use transform="matrix(0.06172839506172839,0,0,0.06172839506172839,14.814814814814813,0)" xlink:href="#cn"/><use transform="matrix(0.06172839506172839,0,0,0.06172839506172839,29.629629629629626,0)" xlink:href="#bC"/><use transform="matrix(0.06172839506172839,0,0,0.06172839506172839,44.44444444444444,0)" xlink:href="#cq"/><use transform="matrix(0.06172839506172839,0,0,0.06172839506172839,60.432098765432094,0)" xlink:href="#cr"/></g><path fill="#3a414a" d="M238-95c0 69-44 99-111 99C63 4 22-25 22-93v-155h51v151c-1 38 19 59 55 60 90 1 49-130 58-211h52v153" id="cs"/><path fill="#3a414a" d="M182-130c37 4 62 22 62 59C244 23 116-4 24 0v-248c84 5 203-23 205 63 0 31-19 50-47 55zM76-148c40-3 101 13 101-30 0-44-60-28-101-31v61zm0 110c48-3 116 14 116-37 0-48-69-32-116-35v72" id="ct"/><path fill="#3a414a" d="M140-251c80 0 125 45 125 126S219 4 139 4C58 4 15-44 15-125s44-126 125-126zm-1 214c52 0 73-35 73-88 0-50-21-86-72-86-52 0-73 35-73 86s22 88 72 88" id="cu"/><g id="af"><use transform="matrix(0.06172839506172839,0,0,0.06172839506172839,0,0)" xlink:href="#ap"/><use transform="matrix(0.06172839506172839,0,0,0.06172839506172839,14.814814814814813,0)" xlink:href="#cs"/><use transform="matrix(0.06172839506172839,0,0,0.06172839506172839,30.80246913580247,0)" xlink:href="#ct"/><use transform="matrix(0.06172839506172839,0,0,0.06172839506172839,46.79012345679012,0)" xlink:href="#ap"/><use transform="matrix(0.06172839506172839,0,0,0.06172839506172839,61.60493827160494,0)" xlink:href="#ao"/><use transform="matrix(0.06172839506172839,0,0,0.06172839506172839,77.5925925925926,0)" xlink:href="#an"/><use transform="matrix(0.06172839506172839,0,0,0.06172839506172839,93.58024691358025,0)" xlink:href="#cm"/><use transform="matrix(0.06172839506172839,0,0,0.06172839506172839,99.75308641975309,0)" xlink:href="#at"/><use transform="matrix(0.06172839506172839,0,0,0.06172839506172839,114.5679012345679,0)" xlink:href="#cr"/><use transform="matrix(0.06172839506172839,0,0,0.06172839506172839,128.0864197530864,0)" xlink:href="#cm"/><use transform="matrix(0.06172839506172839,0,0,0.06172839506172839,134.25925925925924,0)" xlink:href="#cu"/><use transform="matrix(0.06172839506172839,0,0,0.06172839506172839,151.5432098765432,0)" xlink:href="#cq"/></g><path fill="#3a414a" d="M140-251c80 0 125 45 125 126 0 70-33 111-92 124 6 28 34 38 68 31l-1 36C177 83 129 55 120 2 51-6 15-50 15-125c0-81 44-126 125-126zm-1 214c52 0 73-35 73-88 0-50-21-86-72-86-52 0-73 35-73 86s22 88 72 88" id="cv"/><g id="ag"><use transform="matrix(0.06172839506172839,0,0,0.06172839506172839,0,0)" xlink:href="#an"/><use transform="matrix(0.06172839506172839,0,0,0.06172839506172839,15.987654320987653,0)" xlink:href="#bC"/><use transform="matrix(0.06172839506172839,0,0,0.06172839506172839,30.80246913580247,0)" xlink:href="#cv"/><use transform="matrix(0.06172839506172839,0,0,0.06172839506172839,48.08641975308642,0)" xlink:href="#cs"/><use transform="matrix(0.06172839506172839,0,0,0.06172839506172839,64.07407407407408,0)" xlink:href="#bC"/><use transform="matrix(0.06172839506172839,0,0,0.06172839506172839,78.88888888888889,0)" xlink:href="#ap"/><use transform="matrix(0.06172839506172839,0,0,0.06172839506172839,93.7037037037037,0)" xlink:href="#cr"/></g><path fill="#3a414a" d="M168-19C124 19 11 11 16-68c3-43 29-60 59-75-25-44-12-111 53-106 37 3 64 15 64 52 0 43-40 52-69 68 12 22 27 41 43 59 14-19 21-38 28-64l37 13c-8 29-19 52-34 74 12 10 32 16 52 10v35c-28 11-65-2-81-17zm-58-139c19-9 43-14 43-39 0-14-10-22-25-22-34 0-33 41-18 61zM60-68c-3 40 55 47 79 25-18-20-34-42-48-67-18 8-30 20-31 42" id="cw"/><use transform="matrix(0.06172839506172839,0,0,0.06172839506172839,0,0)" xlink:href="#cw" id="ah"/><g id="ai"><use transform="matrix(0.06172839506172839,0,0,0.06172839506172839,0,0)" xlink:href="#ck"/><use transform="matrix(0.06172839506172839,0,0,0.06172839506172839,15.987654320987653,0)" xlink:href="#bC"/><use transform="matrix(0.06172839506172839,0,0,0.06172839506172839,30.80246913580247,0)" xlink:href="#cl"/><use transform="matrix(0.06172839506172839,0,0,0.06172839506172839,44.32098765432099,0)" xlink:href="#cm"/><use transform="matrix(0.06172839506172839,0,0,0.06172839506172839,50.49382716049383,0)" xlink:href="#cn"/><use transform="matrix(0.06172839506172839,0,0,0.06172839506172839,65.30864197530865,0)" xlink:href="#bC"/><use transform="matrix(0.06172839506172839,0,0,0.06172839506172839,80.12345679012346,0)" xlink:href="#an"/><use transform="matrix(0.06172839506172839,0,0,0.06172839506172839,96.11111111111111,0)" xlink:href="#cm"/><use transform="matrix(0.06172839506172839,0,0,0.06172839506172839,102.28395061728395,0)" xlink:href="#bC"/><use transform="matrix(0.06172839506172839,0,0,0.06172839506172839,117.09876543209876,0)" xlink:href="#ap"/></g></defs></g></svg>